<svg xmlns="http://www.w3.org/2000/svg" width="37.492" height="22.586" viewBox="0 0 37.492 22.586">
  <g id="Group_26" data-name="Group 26" transform="translate(-131.17 -110.664)">
    <rect id="Rectangle_25" data-name="Rectangle 25" width="6.44" height="6.44" transform="matrix(0.707, -0.707, 0.707, 0.707, 150.533, 122.466)" fill="#bababa"/>
    <rect id="Rectangle_26" data-name="Rectangle 26" width="4.572" height="4.572" transform="matrix(0.707, -0.707, 0.707, 0.707, 162.196, 113.897)" fill="#bababa"/>
    <rect id="Rectangle_27" data-name="Rectangle 27" width="4.572" height="4.572" transform="matrix(0.707, -0.707, 0.707, 0.707, 151.854, 113.897)" fill="#bababa"/>
    <path id="Path_25" data-name="Path 25" d="M295.807,174.147l5.269,5.38,3.839-14.242Z" transform="translate(-139.485 -46.277)" fill="#bababa"/>
    <rect id="Rectangle_28" data-name="Rectangle 28" width="4.572" height="4.572" transform="translate(141.512 113.898) rotate(-45)" fill="#bababa"/>
    <rect id="Rectangle_29" data-name="Rectangle 29" width="6.44" height="6.44" transform="translate(145.364 128.697) rotate(-44.999)" fill="#bababa"/>
    <rect id="Rectangle_30" data-name="Rectangle 30" width="4.572" height="4.572" transform="translate(131.17 113.898) rotate(-45)" fill="#bababa"/>
    <path id="Path_26" data-name="Path 26" d="M156.172,179.527l5.269-5.38-9.108-8.861Z" transform="translate(-17.931 -46.277)" fill="#bababa"/>
    <rect id="Rectangle_31" data-name="Rectangle 31" width="6.44" height="6.44" transform="translate(140.191 122.466) rotate(-45)" fill="#bababa"/>
  </g>
</svg>
