<svg xmlns="http://www.w3.org/2000/svg" width="22.204" height="14.583" viewBox="0 0 22.204 14.583">
  <g id="console" transform="translate(0 -55.109)">
    <g id="Group_10" data-name="Group 10" transform="translate(0 55.109)">
      <g id="Group_9" data-name="Group 9" transform="translate(0 0)">
        <path id="Path_6" data-name="Path 6" d="M22.192,65.195a20.726,20.726,0,0,0-.608-4.01,15.391,15.391,0,0,0-1.245-3.374c-1.936-3.4-4.038-2.876-6.554-2.212a18.015,18.015,0,0,1-2.544.5h-.277a18.015,18.015,0,0,1-2.544-.5C5.9,54.962,3.8,54.409,1.865,57.839A14.1,14.1,0,0,0,.621,61.212a20.726,20.726,0,0,0-.608,4.01A7.535,7.535,0,0,0,.4,68.375,2.1,2.1,0,0,0,1.727,69.62a2.7,2.7,0,0,0,1.77-.194,13,13,0,0,0,3.54-2.517A6.106,6.106,0,0,1,11.1,65.665a6.106,6.106,0,0,1,4.065,1.244,13,13,0,0,0,3.54,2.517,2.893,2.893,0,0,0,1.77.194A2.067,2.067,0,0,0,21.8,68.348,7.4,7.4,0,0,0,22.192,65.195ZM20.865,67.96a1.1,1.1,0,0,1-.664.691,1.91,1.91,0,0,1-1.134-.138,11.279,11.279,0,0,1-3.208-2.3A6.906,6.906,0,0,0,11.1,64.642a7.293,7.293,0,0,0-4.784,1.521,11.491,11.491,0,0,1-3.208,2.3,1.716,1.716,0,0,1-1.134.138,1.1,1.1,0,0,1-.664-.691,6.539,6.539,0,0,1-.277-2.655,19.076,19.076,0,0,1,.581-3.816,13.2,13.2,0,0,1,1.162-3.125c1.521-2.738,3.291-2.3,5.393-1.742a16.223,16.223,0,0,0,2.71.525H11.3a16.023,16.023,0,0,0,2.738-.525c2.1-.525,3.872-1,5.393,1.742a12.752,12.752,0,0,1,1.162,3.125,20.933,20.933,0,0,1,.581,3.816A6.4,6.4,0,0,1,20.865,67.96Z" transform="translate(0 -55.109)" fill="#fac800"/>
      </g>
    </g>
    <g id="Group_12" data-name="Group 12" transform="translate(2.861 57.866)">
      <g id="Group_11" data-name="Group 11" transform="translate(0 0)">
        <path id="Path_7" data-name="Path 7" d="M47.07,96.917a1.68,1.68,0,0,0-1-.47,1.574,1.574,0,0,0-.442-.968l-.028-.028a1.566,1.566,0,0,0-1.134-.47,1.633,1.633,0,0,0-1.134.47,1.607,1.607,0,0,0-.47,1,1.647,1.647,0,0,0-1,.442l-.028.028a1.566,1.566,0,0,0-.47,1.134,1.633,1.633,0,0,0,.47,1.134,1.542,1.542,0,0,0,1.023.47,1.475,1.475,0,0,0,.47,1,1.566,1.566,0,0,0,1.134.47,1.633,1.633,0,0,0,1.134-.47,1.68,1.68,0,0,0,.47-1,1.475,1.475,0,0,0,1-.47,1.566,1.566,0,0,0,.47-1.134A1.633,1.633,0,0,0,47.07,96.917Zm-.691,1.549a.563.563,0,0,1-.415.166h-.387a.525.525,0,0,0-.525.525v.36a.581.581,0,1,1-1.162,0v-.387a.525.525,0,0,0-.525-.525h-.387a.567.567,0,0,1-.415-.968l.028-.028a.661.661,0,0,1,.387-.138h.387a.525.525,0,0,0,.525-.525v-.387a.587.587,0,0,1,1-.415l.028.028a.661.661,0,0,1,.138.387v.387a.525.525,0,0,0,.525.525h.387a.587.587,0,0,1,.415,1Z" transform="translate(-41.373 -94.981)" fill="#fac800"/>
      </g>
    </g>
    <g id="Group_14" data-name="Group 14" transform="translate(14.946 58.004)">
      <g id="Group_13" data-name="Group 13">
        <circle id="Ellipse_8" data-name="Ellipse 8" cx="0.968" cy="0.968" r="0.968" fill="#fac800"/>
      </g>
    </g>
    <g id="Group_16" data-name="Group 16" transform="translate(14.946 61.932)">
      <g id="Group_15" data-name="Group 15" transform="translate(0 0)">
        <circle id="Ellipse_9" data-name="Ellipse 9" cx="0.968" cy="0.968" r="0.968" fill="#fac800"/>
      </g>
    </g>
    <g id="Group_18" data-name="Group 18" transform="translate(12.983 59.968)">
      <g id="Group_17" data-name="Group 17" transform="translate(0 0)">
        <circle id="Ellipse_10" data-name="Ellipse 10" cx="0.968" cy="0.968" r="0.968" fill="#fac800"/>
      </g>
    </g>
    <g id="Group_20" data-name="Group 20" transform="translate(16.91 59.968)">
      <g id="Group_19" data-name="Group 19" transform="translate(0 0)">
        <circle id="Ellipse_11" data-name="Ellipse 11" cx="0.968" cy="0.968" r="0.968" fill="#fac800"/>
      </g>
    </g>
  </g>
</svg>
