<svg xmlns="http://www.w3.org/2000/svg" xmlns:xlink="http://www.w3.org/1999/xlink" width="157" height="157" viewBox="0 0 157 157">
  <defs>
    <filter id="Ellipse_6" x="0" y="0" width="157" height="157" filterUnits="userSpaceOnUse">
      <feOffset dy="3" input="SourceAlpha"/>
      <feGaussianBlur stdDeviation="3" result="blur"/>
      <feFlood flood-opacity="0.161"/>
      <feComposite operator="in" in2="blur"/>
      <feComposite in="SourceGraphic"/>
    </filter>
  </defs>
  <g transform="matrix(1, 0, 0, 1, 0, 0)" filter="url(#Ellipse_6)">
    <circle id="Ellipse_6-2" data-name="Ellipse 6" cx="69.5" cy="69.5" r="69.5" transform="translate(9 6)" fill="#fff"/>
  </g>
  <g id="tick" transform="translate(54 -10.998)">
    <g id="Group_5" data-name="Group 5" transform="translate(0 67.997)">
      <path id="Path_5" data-name="Path 5" d="M49.267,68.73a2.5,2.5,0,0,0-3.536,0L15.78,98.682,4.267,87.169A2.5,2.5,0,0,0,.732,90.7l13.281,13.28a2.5,2.5,0,0,0,3.536,0L49.267,72.265A2.5,2.5,0,0,0,49.267,68.73Z" transform="translate(0 -67.997)" fill="#555"/>
    </g>
  </g>
</svg>
