<svg xmlns="http://www.w3.org/2000/svg" xmlns:xlink="http://www.w3.org/1999/xlink" width="157" height="157" viewBox="0 0 157 157">
  <defs>
    <filter id="Ellipse_5" x="0" y="0" width="157" height="157" filterUnits="userSpaceOnUse">
      <feOffset dy="3" input="SourceAlpha"/>
      <feGaussianBlur stdDeviation="3" result="blur"/>
      <feFlood flood-opacity="0.161"/>
      <feComposite operator="in" in2="blur"/>
      <feComposite in="SourceGraphic"/>
    </filter>
  </defs>
  <g transform="matrix(1, 0, 0, 1, 0, 0)" filter="url(#Ellipse_5)">
    <circle id="Ellipse_5-2" data-name="Ellipse 5" cx="69.5" cy="69.5" r="69.5" transform="translate(9 6)" fill="#fff"/>
  </g>
  <g id="Outline" transform="translate(6 30.854)">
    <path id="Path_37" data-name="Path 37" d="M92.858,107.812H49.794V84.486a2.694,2.694,0,0,1,2.691-2.691H72.223V80H52.486A4.491,4.491,0,0,0,48,84.486V112.3a4.491,4.491,0,0,0,4.486,4.486h11.2l-1.922,4.486H57.869a2.691,2.691,0,0,0,0,5.383H84.783a2.691,2.691,0,0,0,0-5.383H80.889l-1.922-4.486h11.2a4.491,4.491,0,0,0,4.486-4.486V97.046H92.858Zm-7.177,16.149a.9.9,0,0,1-.9.9H57.869a.9.9,0,0,1,0-1.794H84.783a.9.9,0,0,1,.9.9Zm-6.743-2.691H63.715l1.922-4.486H77.015Zm11.229-6.28H52.486a2.694,2.694,0,0,1-2.691-2.691v-2.691H92.858V112.3a2.694,2.694,0,0,1-2.691,2.691Z" transform="translate(0 -54.917)" fill="#555"/>
    <path id="Path_38" data-name="Path 38" d="M248,360h1.794v1.794H248Z" transform="translate(-177.571 -303.517)" fill="#555"/>
    <path id="Path_39" data-name="Path 39" d="M298.472,28.355a.9.9,0,0,0,.253-1l-1.073-2.791a.9.9,0,0,0-.86-.575l-2.442.062-1.073-1.129.187-2.436a.9.9,0,0,0-.53-.889L290.2,18.381a.9.9,0,0,0-1.015.2L287.5,20.354l-1.558-.04-1.59-1.855a.9.9,0,0,0-1-.253l-2.791,1.073a.9.9,0,0,0-.575.86l.062,2.442-1.129,1.073-2.436-.187a.9.9,0,0,0-.889.53l-1.214,2.733a.9.9,0,0,0,.2,1.015l1.771,1.683-.04,1.558-1.855,1.59a.9.9,0,0,0-.253,1l1.073,2.791a.9.9,0,0,0,.86.575l2.442-.062,1.073,1.129-.187,2.436a.9.9,0,0,0,.53.889l2.732,1.214a.9.9,0,0,0,1.015-.2l1.683-1.771,1.558.04,1.59,1.855a.9.9,0,0,0,1,.253l2.791-1.073a.9.9,0,0,0,.575-.86l-.062-2.442,1.129-1.073,2.436.187a.9.9,0,0,0,.889-.53L298.55,34.2a.9.9,0,0,0-.2-1.015L296.577,31.5l.04-1.558Zm-3.419,4.174,1.6,1.522-.7,1.575-2.2-.169a.9.9,0,0,0-.687.244l-1.708,1.622a.9.9,0,0,0-.279.673l.056,2.208-1.609.619-1.438-1.677a.9.9,0,0,0-.658-.313l-2.355-.06h-.022a.9.9,0,0,0-.651.279l-1.521,1.6-1.574-.7.169-2.2a.9.9,0,0,0-.244-.687l-1.622-1.708a.891.891,0,0,0-.673-.279l-2.208.056-.619-1.609,1.677-1.438a.9.9,0,0,0,.313-.658l.06-2.355a.9.9,0,0,0-.279-.673l-1.6-1.521.7-1.575,2.2.169a.9.9,0,0,0,.687-.244l1.708-1.622a.9.9,0,0,0,.279-.673l-.056-2.208,1.609-.619,1.438,1.677a.9.9,0,0,0,.657.312l2.355.06a.885.885,0,0,0,.673-.279l1.521-1.6,1.575.7-.169,2.2a.9.9,0,0,0,.244.687l1.622,1.708a.892.892,0,0,0,.673.279L296.2,25.8l.619,1.609-1.676,1.437a.9.9,0,0,0-.313.658l-.06,2.355a.9.9,0,0,0,.279.673Z" transform="translate(-200.785)" fill="#555"/>
    <path id="Path_40" data-name="Path 40" d="M331.139,71.488a6.386,6.386,0,1,0,8.252,3.668A6.386,6.386,0,0,0,331.139,71.488Zm3.941,10.245a4.591,4.591,0,1,1,2.637-5.934A4.591,4.591,0,0,1,335.08,81.733Z" transform="translate(-247.751 -46.982)" fill="#555"/>
    <path id="Path_41" data-name="Path 41" d="M92.223,127.726l-2.057-2.057,2.057-2.057-1.269-1.269-2.691,2.691a.9.9,0,0,0,0,1.269l2.691,2.691Z" transform="translate(-35.514 -92.512)" fill="#555"/>
    <path id="Path_42" data-name="Path 42" d="M179.612,128.995,182.3,126.3a.9.9,0,0,0,0-1.269l-2.691-2.691-1.269,1.269,2.057,2.057-2.057,2.057Z" transform="translate(-115.726 -92.512)" fill="#555"/>
    <path id="Path_43" data-name="Path 43" d="M0,0H7.4V1.794H0Z" transform="translate(57.899 36.538) rotate(-75.936)" fill="#555"/>
    <path id="Path_44" data-name="Path 44" d="M88,200h1.794v1.794H88Z" transform="translate(-35.514 -161.46)" fill="#555"/>
    <path id="Path_45" data-name="Path 45" d="M120,200h17.046v1.794H120Z" transform="translate(-63.926 -161.46)" fill="#555"/>
    <path id="Path_46" data-name="Path 46" d="M88,232h1.794v1.794H88Z" transform="translate(-35.514 -189.871)" fill="#555"/>
    <path id="Path_47" data-name="Path 47" d="M120,232h19.737v1.794H120Z" transform="translate(-63.926 -189.871)" fill="#555"/>
    <path id="Path_48" data-name="Path 48" d="M88,264h1.794v1.794H88Z" transform="translate(-35.514 -218.283)" fill="#555"/>
    <path id="Path_49" data-name="Path 49" d="M120,264h22.429v1.794H120Z" transform="translate(-63.926 -218.283)" fill="#555"/>
    <path id="Path_50" data-name="Path 50" d="M88,296h1.794v1.794H88Z" transform="translate(-35.514 -246.694)" fill="#555"/>
    <path id="Path_51" data-name="Path 51" d="M120,296h26.915v1.794H120Z" transform="translate(-63.926 -246.694)" fill="#555"/>
    <path id="Path_52" data-name="Path 52" d="M376,296h1.794v1.794H376Z" transform="translate(-291.217 -246.694)" fill="#555"/>
    <path id="Path_53" data-name="Path 53" d="M368,264h1.794v1.794H368Z" transform="translate(-284.114 -218.283)" fill="#555"/>
    <path id="Path_54" data-name="Path 54" d="M336,264h1.794v1.794H336Z" transform="translate(-255.702 -218.283)" fill="#555"/>
    <path id="Path_55" data-name="Path 55" d="M408,296h1.794v1.794H408Z" transform="translate(-319.628 -246.694)" fill="#555"/>
  </g>
</svg>
