<svg xmlns="http://www.w3.org/2000/svg" xmlns:xlink="http://www.w3.org/1999/xlink" width="157" height="157" viewBox="0 0 157 157">
  <defs>
    <filter id="Ellipse_4" x="0" y="0" width="157" height="157" filterUnits="userSpaceOnUse">
      <feOffset dy="3" input="SourceAlpha"/>
      <feGaussianBlur stdDeviation="3" result="blur"/>
      <feFlood flood-opacity="0.161"/>
      <feComposite operator="in" in2="blur"/>
      <feComposite in="SourceGraphic"/>
    </filter>
  </defs>
  <g transform="matrix(1, 0, 0, 1, 0, 0)" filter="url(#Ellipse_4)">
    <circle id="Ellipse_4-2" data-name="Ellipse 4" cx="69.5" cy="69.5" r="69.5" transform="translate(9 6)" fill="#fff"/>
  </g>
  <g id="Group_23" data-name="Group 23" transform="translate(-475 -2056.003)">
    <g id="surface1" transform="translate(529 2107.003)">
      <path id="Path_16" data-name="Path 16" d="M4.032,43.674H25V42.06H4.032a2.419,2.419,0,0,1-2.419-2.419V4.157A2.419,2.419,0,0,1,4.032,1.738H39.516a2.419,2.419,0,0,1,2.419,2.419V22.705h1.613V4.157A4.037,4.037,0,0,0,39.516.125H4.032A4.037,4.037,0,0,0,0,4.157V39.641A4.038,4.038,0,0,0,4.032,43.674Zm0,0" transform="translate(0 -0.125)" fill="#555"/>
      <path id="Path_17" data-name="Path 17" d="M62.344,62.469h1.613v1.613H62.344Zm0,0" transform="translate(-59.118 -59.243)" fill="#555"/>
      <path id="Path_18" data-name="Path 18" d="M124.676,62.469h1.613v1.613h-1.613Zm0,0" transform="translate(-118.224 -59.243)" fill="#555"/>
      <path id="Path_19" data-name="Path 19" d="M187.016,62.469h1.613v1.613h-1.613Zm0,0" transform="translate(-177.339 -59.243)" fill="#555"/>
      <path id="Path_20" data-name="Path 20" d="M62.344,124.8h37.1v1.613h-37.1Zm0,0" transform="translate(-59.118 -118.349)" fill="#555"/>
      <path id="Path_21" data-name="Path 21" d="M70.2,191.707l-2.048,2.048a4.045,4.045,0,1,0,1.14,1.14l2.048-2.048Zm-4.269,7.828a2.419,2.419,0,1,1,0-4.838,2.377,2.377,0,0,1,1.037.242l-1.606,1.607,1.14,1.14,1.608-1.606a2.375,2.375,0,0,1,.242,1.036A2.419,2.419,0,0,1,65.93,199.535Zm0,0" transform="translate(-58.672 -181.793)" fill="#555"/>
      <path id="Path_22" data-name="Path 22" d="M264.941,249.484H278.65V251.1H264.941Zm0,0" transform="translate(-251.231 -236.581)" fill="#555"/>
      <path id="Path_23" data-name="Path 23" d="M264.941,311.82h5.645v1.613h-5.645Zm0,0" transform="translate(-251.231 -295.691)" fill="#555"/>
      <path id="Path_24" data-name="Path 24" d="M405.2,311.82h11.29v1.613H405.2Zm0,0" transform="translate(-384.235 -295.691)" fill="#555"/>
      <path id="Path_25" data-name="Path 25" d="M561.047,249.484h8.065V251.1h-8.065Zm0,0" transform="translate(-532.015 -236.581)" fill="#555"/>
      <path id="Path_26" data-name="Path 26" d="M70.2,378.723l-2.048,2.048a4.045,4.045,0,1,0,1.14,1.14l2.048-2.048Zm-4.269,7.828a2.419,2.419,0,0,1,0-4.839,2.38,2.38,0,0,1,1.037.242l-1.606,1.607,1.14,1.14,1.608-1.606a2.376,2.376,0,0,1,.242,1.036A2.419,2.419,0,0,1,65.93,386.551Zm0,0" transform="translate(-58.672 -359.132)" fill="#555"/>
      <path id="Path_27" data-name="Path 27" d="M264.941,436.492H278.65v1.613H264.941Zm0,0" transform="translate(-251.231 -413.912)" fill="#555"/>
      <path id="Path_28" data-name="Path 28" d="M264.941,498.836h5.645v1.613h-5.645Zm0,0" transform="translate(-251.231 -473.03)" fill="#555"/>
      <path id="Path_29" data-name="Path 29" d="M405.2,498.836h6.451v1.613H405.2Zm0,0" transform="translate(-384.235 -473.03)" fill="#555"/>
      <path id="Path_30" data-name="Path 30" d="M561.047,436.492h3.226v1.613h-3.226Zm0,0" transform="translate(-532.015 -413.912)" fill="#555"/>
      <path id="Path_31" data-name="Path 31" d="M70.2,565.738l-2.048,2.048a4.045,4.045,0,1,0,1.14,1.14l2.048-2.048Zm-4.269,7.828a2.419,2.419,0,0,1,0-4.839,2.373,2.373,0,0,1,1.037.242l-1.606,1.607,1.14,1.14,1.608-1.606a2.378,2.378,0,0,1,.242,1.036A2.419,2.419,0,0,1,65.93,573.566Zm0,0" transform="translate(-58.672 -536.47)" fill="#555"/>
      <path id="Path_32" data-name="Path 32" d="M264.941,623.512h10.484v1.613H264.941Zm0,0" transform="translate(-251.231 -591.254)" fill="#555"/>
      <path id="Path_33" data-name="Path 33" d="M264.941,685.852h5.645v1.613h-5.645Zm0,0" transform="translate(-251.231 -650.368)" fill="#555"/>
      <path id="Path_34" data-name="Path 34" d="M405.2,685.852h3.226v1.613H405.2Zm0,0" transform="translate(-384.235 -650.368)" fill="#555"/>
      <path id="Path_35" data-name="Path 35" d="M510.808,491.858a12.1,12.1,0,1,0-12.1-12.1A12.1,12.1,0,0,0,510.808,491.858Zm0-22.581a10.484,10.484,0,1,1-10.484,10.484A10.484,10.484,0,0,1,510.808,469.277Zm0,0" transform="translate(-472.904 -443.471)" fill="#555"/>
      <path id="Path_36" data-name="Path 36" d="M610.964,587.985l-1.444.721,1.613,3.226a.806.806,0,0,0,.593.436.9.9,0,0,0,.125.01.808.808,0,0,0,.57-.236l9.677-9.677-1.14-1.141-8.887,8.886Zm0,0" transform="translate(-577.979 -551.249)" fill="#555"/>
    </g>
  </g>
</svg>
