<svg width="26" height="26" viewBox="0 0 26 26" fill="none" xmlns="http://www.w3.org/2000/svg">
<mask id="mask0" mask-type="alpha" maskUnits="userSpaceOnUse" x="0" y="0" width="26" height="26">
<rect width="25.91" height="25.91" fill="#C4C4C4"/>
</mask>
<g mask="url(#mask0)">
<path d="M3.66411 20.4502V21.1545L4.32899 20.9222L4.32902 20.9222C4.32977 20.922 4.34388 20.9176 4.37681 20.9129C4.4094 20.9082 4.45148 20.9045 4.50359 20.9023C4.60867 20.898 4.73447 20.9007 4.87275 20.9074C4.963 20.9118 5.0678 20.9188 5.17367 20.9259C5.3537 20.9379 5.53685 20.9502 5.65692 20.9502H21.5486C21.9397 20.9502 22.4206 20.8044 22.8116 20.5021C23.2185 20.1875 23.5414 19.6901 23.5414 19.0142V3.06681C23.5414 2.1826 23.2382 1.60617 22.72 1.29991C22.2774 1.03828 21.7653 1.03901 21.497 1.03939C21.4871 1.03941 21.4775 1.03942 21.4683 1.03942H5.57662C5.56612 1.03942 5.55517 1.0394 5.54379 1.03937C5.28073 1.0388 4.79098 1.03774 4.37835 1.31844C3.90297 1.64183 3.66411 2.22478 3.66411 3.07884V20.4502ZM21.5486 21.5811H5.18608C4.34772 21.5811 3.66411 22.2651 3.66411 23.1033C3.66411 23.9416 4.34772 24.6256 5.18608 24.6256H20.5266H21.5486C22.38 24.6256 23.1709 24.4451 23.8822 24.1193C23.4862 24.9116 22.6186 25.41 21.5486 25.41H20.5266H5.65692C4.6963 25.41 4.07158 25.1551 3.68764 24.7824C3.30537 24.4113 3.091 23.8546 3.091 23.1033V3.06681C3.091 1.65096 4.24184 0.5 5.65692 0.5H21.5486C22.9637 0.5 24.1145 1.65096 24.1145 3.06681V19.0142C24.1145 20.4301 22.9637 21.5811 21.5486 21.5811ZM13.0552 9.73652H14.0992V16.3675H13.0552V9.73652ZM13.0552 7.61955H14.0992V8.15897H13.0552V7.61955Z" fill="#F52871" stroke="#F52871"/>
</g>
</svg>
