<svg width="26" height="26" viewBox="0 0 26 26" fill="none" xmlns="http://www.w3.org/2000/svg">
<mask id="mask0" mask-type="alpha" maskUnits="userSpaceOnUse" x="0" y="0" width="26" height="26">
<rect width="25.91" height="25.91" fill="#C4C4C4"/>
</mask>
<g mask="url(#mask0)">
<path d="M3.66405 20.4502V21.1545L4.32893 20.9222L4.32896 20.9222C4.32971 20.922 4.34382 20.9176 4.37674 20.9129C4.40934 20.9082 4.45142 20.9045 4.50353 20.9023C4.60861 20.898 4.73441 20.9007 4.87269 20.9074C4.96293 20.9118 5.0677 20.9188 5.17356 20.9259C5.35361 20.9379 5.53678 20.9502 5.65686 20.9502H21.5485C21.9397 20.9502 22.4206 20.8044 22.8115 20.5021C23.2184 20.1875 23.5413 19.6901 23.5413 19.0142V3.06681C23.5413 2.1826 23.2381 1.60617 22.72 1.29991C22.2773 1.03828 21.7653 1.03901 21.4969 1.03939C21.487 1.03941 21.4774 1.03942 21.4682 1.03942H5.57656C5.56606 1.03942 5.5551 1.0394 5.54373 1.03937C5.28067 1.0388 4.79092 1.03774 4.37829 1.31844C3.9029 1.64183 3.66405 2.22478 3.66405 3.07884V20.4502ZM21.5485 21.5811H5.18602C4.34766 21.5811 3.66405 22.2651 3.66405 23.1033C3.66405 23.9416 4.34766 24.6256 5.18602 24.6256H20.5266H21.5485C22.3799 24.6256 23.1709 24.4451 23.8821 24.1193C23.4862 24.9116 22.6186 25.41 21.5485 25.41H20.5266H5.65686C4.69624 25.41 4.07152 25.1551 3.68758 24.7824C3.30531 24.4113 3.09094 23.8546 3.09094 23.1033V3.06681C3.09094 1.65096 4.24178 0.5 5.65686 0.5H21.5485C22.9636 0.5 24.1144 1.65096 24.1144 3.06681V19.0142C24.1144 20.4301 22.9636 21.5811 21.5485 21.5811ZM13.0552 9.73652H14.0991V16.3675H13.0552V9.73652ZM13.0552 7.61955H14.0991V8.15897H13.0552V7.61955Z" fill="#C4C4C4" stroke="#C4C4C4"/>
</g>
</svg>
