<svg width="27" height="26" viewBox="0 0 27 26" fill="none" xmlns="http://www.w3.org/2000/svg">
<mask id="mask0" mask-type="alpha" maskUnits="userSpaceOnUse" x="0" y="0" width="27" height="26">
<rect x="0.921143" width="25.9068" height="25.9068" fill="#C4C4C4"/>
</mask>
<g mask="url(#mask0)">
<path fill-rule="evenodd" clip-rule="evenodd" d="M14.5252 0.484969C14.1425 0.187302 13.6066 0.187302 13.2238 0.484969L2.62559 8.72806C2.36743 8.92885 2.21643 9.23758 2.21643 9.56463V22.5181C2.21643 24.4041 3.74537 25.933 5.63142 25.933H10.3252C10.3307 25.9331 10.3362 25.9332 10.3418 25.9332C10.3473 25.9332 10.3529 25.9331 10.3584 25.933H17.3907C17.3962 25.9331 17.4017 25.9332 17.4073 25.9332C17.4129 25.9332 17.4184 25.9331 17.4239 25.933H22.1176C24.0036 25.933 25.5326 24.4041 25.5326 22.5181V9.56463C25.5326 9.23758 25.3816 8.92885 25.1234 8.72806L14.5252 0.484969ZM18.4671 23.8134H22.1176C22.833 23.8134 23.4129 23.2335 23.4129 22.5181V10.083L13.8745 2.6642L4.33608 10.083V22.5181C4.33608 23.2335 4.91603 23.8134 5.63142 23.8134H9.28197V13.0975C9.28197 12.5122 9.75647 12.0377 10.3418 12.0377H17.4073C17.9926 12.0377 18.4671 12.5122 18.4671 13.0975V23.8134ZM11.4016 23.8134H16.3475V14.1573H11.4016V23.8134Z" fill="#C4C4C4"/>
</g>
</svg>
