<svg width="27" height="26" viewBox="0 0 27 26" fill="none" xmlns="http://www.w3.org/2000/svg">
<mask id="mask0" mask-type="alpha" maskUnits="userSpaceOnUse" x="0" y="0" width="27" height="26">
<rect x="0.921143" width="25.9068" height="25.9068" fill="#C4C4C4"/>
</mask>
<g mask="url(#mask0)">
<path fill-rule="evenodd" clip-rule="evenodd" d="M14.5252 0.484969C14.1425 0.187302 13.6066 0.187302 13.2239 0.484969L2.62565 8.72806C2.36749 8.92885 2.21649 9.23758 2.21649 9.56463V22.5181C2.21649 24.4041 3.74544 25.933 5.63148 25.933H10.3252C10.3308 25.9331 10.3363 25.9332 10.3419 25.9332C10.3474 25.9332 10.353 25.9331 10.3585 25.933H17.3907C17.3963 25.9331 17.4018 25.9332 17.4074 25.9332C17.4129 25.9332 17.4185 25.9331 17.424 25.933H22.1177C24.0037 25.933 25.5327 24.4041 25.5327 22.5181V9.56463C25.5327 9.23758 25.3817 8.92885 25.1235 8.72806L14.5252 0.484969ZM18.4672 23.8134H22.1177C22.8331 23.8134 23.413 23.2335 23.413 22.5181V10.083L13.8746 2.6642L4.33614 10.083V22.5181C4.33614 23.2335 4.91609 23.8134 5.63148 23.8134H9.28203V13.0975C9.28203 12.5122 9.75653 12.0377 10.3419 12.0377H17.4074C17.9927 12.0377 18.4672 12.5122 18.4672 13.0975V23.8134ZM11.4017 23.8134H16.3475V14.1573H11.4017V23.8134Z" fill="#F52871"/>
</g>
</svg>
