<svg width="26" height="26" viewBox="0 0 26 26" fill="none" xmlns="http://www.w3.org/2000/svg">
<mask id="mask0" mask-type="alpha" maskUnits="userSpaceOnUse" x="0" y="0" width="26" height="26">
<rect width="25.91" height="25.91" fill="#FF0000"/>
</mask>
<g mask="url(#mask0)">
<path d="M24.4283 7.22083C24.1783 7.06621 23.8659 7.05209 23.603 7.1835L18.0444 9.96317V7.94265C18.0444 6.53723 16.9051 5.39792 15.4997 5.39792H3.62432C2.2189 5.39792 1.07959 6.53723 1.07959 7.94265V18.1216C1.07959 19.527 2.2189 20.6663 3.62432 20.6663H15.4997C16.9051 20.6663 18.0444 19.527 18.0444 18.1216V16.101L23.603 18.885C24.0221 19.0944 24.5315 18.9244 24.7409 18.5054C24.8005 18.3862 24.8312 18.2547 24.8304 18.1216V7.94265C24.8306 7.64861 24.6784 7.3755 24.4283 7.22083ZM16.348 18.1216C16.348 18.5901 15.9682 18.9698 15.4997 18.9698H3.62432C3.15583 18.9698 2.77606 18.5901 2.77606 18.1216V7.94265C2.77606 7.47416 3.15583 7.09439 3.62432 7.09439H15.4997C15.9682 7.09439 16.348 7.47416 16.348 7.94265V18.1216ZM23.1339 16.7491L18.0444 14.2044V11.8599L23.1339 9.31516V16.7491Z" fill="#F52871"/>
<path d="M9.56212 9.63824C7.68821 9.63824 6.16913 11.1573 6.16913 13.0312C6.16913 14.9051 7.68821 16.4242 9.56212 16.4242C11.436 16.4242 12.9551 14.9051 12.9551 13.0312C12.9551 11.1573 11.436 9.63824 9.56212 9.63824ZM9.56212 14.7277C8.62519 14.7277 7.86565 13.9682 7.86565 13.0312C7.86565 12.0943 8.62519 11.3348 9.56212 11.3348C10.499 11.3348 11.2586 12.0943 11.2586 13.0312C11.2586 13.9682 10.499 14.7277 9.56212 14.7277Z" fill="#F52871"/>
</g>
</svg>
