<svg width="26" height="21" viewBox="0 0 26 21" fill="none" xmlns="http://www.w3.org/2000/svg">
<mask id="mask0" mask-type="alpha" maskUnits="userSpaceOnUse" x="0" y="0" width="26" height="21">
<path fill-rule="evenodd" clip-rule="evenodd" d="M3.36717 0.773385V2.43064H22.4565V0.773385H3.36717ZM3.15025 0C2.85074 0 2.60794 0.247326 2.60794 0.552418V2.65161C2.60794 2.65559 2.60798 2.65957 2.60806 2.66354C2.54661 2.71401 2.49562 2.77843 2.46002 2.85363L0.0544862 7.93587C-0.119121 8.30265 0.143241 8.7282 0.542983 8.7282H2.60794V19.6661C2.60794 19.9712 2.85074 20.2185 3.15025 20.2185H22.6734C22.973 20.2185 23.2158 19.9712 23.2158 19.6661V8.7282H25.328C25.7294 8.7282 25.9917 8.29934 25.8148 7.93228L23.3647 2.85004C23.3286 2.77527 23.2773 2.71133 23.2157 2.66135C23.2157 2.65811 23.2158 2.65486 23.2158 2.65161V0.552418C23.2158 0.247326 22.9729 0 22.6734 0H3.15025ZM18.3883 3.31451H20.3748L22.5309 7.84433H19.6011L18.3883 3.31451ZM15.0692 3.31451H17.6013L18.8141 7.84433H15.4861L15.0692 3.31451ZM11.5215 3.31451H14.3066L14.7235 7.84433H11.1972L11.5215 3.31451ZM8.38745 3.31451H10.7602L10.436 7.84433H7.12358L8.38745 3.31451ZM5.50309 3.31451H7.59815L6.33428 7.84433H3.34699L5.50309 3.31451ZM4.65932 3.31451H3.08475L0.888393 7.95482H2.45063L4.65932 3.31451ZM23.4273 7.95482L21.2186 3.31451H22.7427L24.9798 7.95482H23.4273ZM3.36717 8.7282H22.4565V19.4451H3.36717V8.7282Z" fill="#C4C4C4"/>
<path d="M11.9701 16.8578C11.4663 16.8578 11.0564 17.2745 11.0564 17.7865C11.0564 18.2985 11.4663 18.7152 11.9701 18.7152C12.4738 18.7152 12.8838 18.2985 12.8838 17.7865C12.8838 17.2745 12.4738 16.8578 11.9701 16.8578ZM11.9701 18.0961C11.802 18.0961 11.6655 17.9574 11.6655 17.7865C11.6655 17.6156 11.802 17.477 11.9701 17.477C12.1382 17.477 12.2747 17.6156 12.2747 17.7865C12.2747 17.9574 12.1382 18.0961 11.9701 18.0961Z" fill="#C4C4C4"/>
<path d="M15.6248 16.8578C15.121 16.8578 14.7111 17.2745 14.7111 17.7865C14.7111 18.2985 15.121 18.7152 15.6248 18.7152C16.1285 18.7152 16.5384 18.2985 16.5384 17.7865C16.5384 17.2745 16.1285 16.8578 15.6248 16.8578ZM15.6248 18.0961C15.4566 18.0961 15.3202 17.9574 15.3202 17.7865C15.3202 17.6156 15.4566 17.477 15.6248 17.477C15.7929 17.477 15.9293 17.6156 15.9293 17.7865C15.9293 17.9574 15.7929 18.0961 15.6248 18.0961Z" fill="#C4C4C4"/>
<path d="M17.6855 10.7781C17.6283 10.7076 17.5424 10.6667 17.4522 10.6667H10.2938L10.0288 9.65816C9.99345 9.52257 9.87285 9.42847 9.73457 9.42847H8.31531C8.14719 9.42847 8.01074 9.56715 8.01074 9.73802C8.01074 9.9089 8.14719 10.0476 8.31531 10.0476H9.50067L11.0667 16.009C11.1021 16.1446 11.2227 16.2387 11.3609 16.2387H16.234C16.4021 16.2387 16.5385 16.1 16.5385 15.9292C16.5385 15.7583 16.4021 15.6196 16.234 15.6196H11.5948L11.4164 14.9398L16.8565 14.6909C16.9984 14.6841 17.1172 14.5789 17.1422 14.4371L17.7513 11.032C17.7677 10.9416 17.7434 10.8487 17.6855 10.7781ZM16.5873 14.0836L11.255 14.3275L10.4564 11.2858H17.0874L16.5873 14.0836Z" fill="#C4C4C4"/>
<path d="M15.6248 11.9049C15.4566 11.9049 15.3202 12.0436 15.3202 12.2145V13.4527C15.3202 13.6236 15.4566 13.7622 15.6248 13.7622C15.7929 13.7622 15.9293 13.6236 15.9293 13.4527V12.2145C15.9293 12.0436 15.7929 11.9049 15.6248 11.9049Z" fill="#C4C4C4"/>
<path d="M13.7975 11.9049C13.6294 11.9049 13.4929 12.0436 13.4929 12.2145V13.4527C13.4929 13.6236 13.6294 13.7622 13.7975 13.7622C13.9656 13.7622 14.102 13.6236 14.102 13.4527V12.2145C14.102 12.0436 13.9656 11.9049 13.7975 11.9049Z" fill="#C4C4C4"/>
<path d="M11.9701 11.9049C11.802 11.9049 11.6655 12.0436 11.6655 12.2145V13.4527C11.6655 13.6236 11.802 13.7622 11.9701 13.7622C12.1382 13.7622 12.2747 13.6236 12.2747 13.4527V12.2145C12.2747 12.0436 12.1382 11.9049 11.9701 11.9049Z" fill="#C4C4C4"/>
</mask>
<g mask="url(#mask0)">
<rect y="-3" width="25.91" height="25.91" fill="#C4C4C4"/>
</g>
</svg>
