<svg width="25" height="25" viewBox="0 0 25 25" fill="none" xmlns="http://www.w3.org/2000/svg">
<path d="M12.5 0C5.59644 0 0 5.59644 0 12.5C0 19.4036 5.59644 25 12.5 25C19.4036 25 25 19.4036 25 12.5C25 5.59644 19.4036 0 12.5 0ZM12.5 23.4375C6.45937 23.4375 1.5625 18.5406 1.5625 12.5C1.5625 6.45937 6.45937 1.5625 12.5 1.5625C18.5406 1.5625 23.4375 6.45937 23.4375 12.5C23.4375 18.5406 18.5406 23.4375 12.5 23.4375Z" fill="#F52871"/>
<path d="M12.5 14.0625C13.3629 14.0625 14.0625 13.3629 14.0625 12.5C14.0625 11.6371 13.3629 10.9375 12.5 10.9375C11.6371 10.9375 10.9375 11.6371 10.9375 12.5C10.9375 13.3629 11.6371 14.0625 12.5 14.0625Z" fill="#F52871"/>
<path d="M17.9688 14.0625C18.8317 14.0625 19.5312 13.3629 19.5312 12.5C19.5312 11.6371 18.8317 10.9375 17.9688 10.9375C17.1058 10.9375 16.4062 11.6371 16.4062 12.5C16.4062 13.3629 17.1058 14.0625 17.9688 14.0625Z" fill="#F52871"/>
<path d="M7.03125 14.0625C7.8942 14.0625 8.59375 13.3629 8.59375 12.5C8.59375 11.6371 7.8942 10.9375 7.03125 10.9375C6.16831 10.9375 5.46875 11.6371 5.46875 12.5C5.46875 13.3629 6.16831 14.0625 7.03125 14.0625Z" fill="#F52871"/>
</svg>
