<svg width="23" height="23" viewBox="0 0 23 23" fill="none" xmlns="http://www.w3.org/2000/svg">
<mask id="mask0" mask-type="alpha" maskUnits="userSpaceOnUse" x="0" y="0" width="23" height="23">
<path d="M6.83908 3.10808C8.59237 1.32132 11.2648 1.03759 13.3169 2.24434L12.7768 2.79485C12.6214 2.95289 12.575 3.18993 12.6589 3.39659C12.7426 3.60178 12.9395 3.73708 13.1594 3.73662L15.5525 3.7356C15.8513 3.7356 16.0941 3.48795 16.0941 3.184V0.745728C16.0941 0.520958 15.9626 0.320454 15.7608 0.23539C15.557 0.15028 15.3249 0.19743 15.1702 0.355196L14.3971 1.14334C11.7407 -0.637125 8.1266 -0.338275 5.79211 2.04099C5.50273 2.33575 5.50273 2.81332 5.79211 3.10813C6.08127 3.40279 6.5497 3.40279 6.83908 3.10808Z" fill="#C4C4C4"/>
<path d="M15.5664 18.8905C13.8131 20.7295 11.1406 21.0217 9.08857 19.7794L9.62874 19.2128C9.78412 19.0501 9.83051 18.8063 9.74669 18.5935C9.66265 18.3823 9.46592 18.2431 9.24612 18.2435L6.85297 18.2446C6.55421 18.2446 6.3114 18.4995 6.3114 18.8123V21.322C6.3114 21.5534 6.44293 21.7597 6.64475 21.8473C6.84846 21.9349 7.08062 21.8864 7.23537 21.724L8.00833 20.9128C9.14561 21.6971 10.4581 22.09 11.7711 22.09C13.5246 22.09 15.2779 21.3895 16.6134 19.9889C16.9028 19.6854 16.9028 19.1939 16.6134 18.8905C16.3242 18.587 15.8558 18.587 15.5664 18.8905Z" fill="#C4C4C4"/>
<path d="M8.50202 15.0811C8.64934 14.9264 8.73081 14.7211 8.73081 14.5037V5.8721C8.73081 5.4219 8.37936 5.05542 7.9478 5.05542H0.78319C0.351175 5.05542 0 5.4219 0 5.8721V16.2172C0 16.6681 0.35122 17.0346 0.78319 17.0346H6.30639C6.51555 17.0346 6.71212 16.9494 6.85989 16.7946L8.50202 15.0811ZM7.16524 6.68953V13.6871H6.30639C5.87482 13.6871 5.5232 14.0535 5.5232 14.5037V15.3998H1.56548V6.68953H7.16524Z" fill="#C4C4C4"/>
<path d="M21.3069 5.05542H14.1416C13.71 5.05542 13.3593 5.4219 13.3593 5.8721V16.2172C13.3593 16.6681 13.71 17.0346 14.1416 17.0346H19.6648C19.874 17.0346 20.0704 16.9494 20.2183 16.7946L21.861 15.0811C22.0083 14.9264 22.0901 14.721 22.0901 14.5036V5.8721C22.0901 5.4219 21.7384 5.05542 21.3069 5.05542ZM20.5237 6.68953V13.6871H19.6648C19.233 13.6871 18.8823 14.0535 18.8823 14.5037V15.3998H14.9247V6.68953H20.5237Z" fill="#C4C4C4"/>
</mask>
<g mask="url(#mask0)">
<rect x="-1.90997" y="-1.91" width="25.91" height="25.91" fill="#F52871"/>
</g>
</svg>
