<svg xmlns="http://www.w3.org/2000/svg" xmlns:xlink="http://www.w3.org/1999/xlink" width="1161.505" height="774.339" viewBox="0 0 1161.505 774.339">
  <defs>
    <clipPath id="clip-path">
      <path id="Path_3064" data-name="Path 3064" d="M1161.505,0V774.339H0V0Z" fill="none"/>
    </clipPath>
    <linearGradient id="linear-gradient" x1="-0.881" y1="1.891" x2="-0.188" y2="1.178" gradientUnits="objectBoundingBox">
      <stop offset="0" stop-color="#ffd063" stop-opacity="0"/>
      <stop offset="1" stop-color="#6e4f06"/>
    </linearGradient>
    <linearGradient id="linear-gradient-2" x1="0.261" y1="0.157" x2="0.261" y2="0.785" gradientUnits="objectBoundingBox">
      <stop offset="0.503" stop-color="#957222" stop-opacity="0"/>
      <stop offset="0.591" stop-color="#957222" stop-opacity="0.024"/>
      <stop offset="0.672" stop-color="#957222" stop-opacity="0.098"/>
      <stop offset="0.751" stop-color="#957222" stop-opacity="0.224"/>
      <stop offset="0.828" stop-color="#957222" stop-opacity="0.4"/>
      <stop offset="0.903" stop-color="#957222" stop-opacity="0.627"/>
      <stop offset="0.976" stop-color="#957222" stop-opacity="0.902"/>
      <stop offset="1" stop-color="#957222"/>
    </linearGradient>
    <linearGradient id="linear-gradient-3" x1="0.059" y1="0.73" x2="0.059" y2="1.741" gradientUnits="objectBoundingBox">
      <stop offset="0" stop-color="#957222"/>
      <stop offset="0.024" stop-color="#957222" stop-opacity="0.902"/>
      <stop offset="0.097" stop-color="#957222" stop-opacity="0.627"/>
      <stop offset="0.172" stop-color="#957222" stop-opacity="0.4"/>
      <stop offset="0.249" stop-color="#957222" stop-opacity="0.224"/>
      <stop offset="0.328" stop-color="#957222" stop-opacity="0.098"/>
      <stop offset="0.409" stop-color="#957222" stop-opacity="0.024"/>
      <stop offset="0.497" stop-color="#957222" stop-opacity="0"/>
    </linearGradient>
    <linearGradient id="linear-gradient-4" x1="0.602" y1="2.013" x2="0.602" y2="3.025" xlink:href="#linear-gradient-3"/>
    <linearGradient id="linear-gradient-5" x1="0.126" y1="0.378" x2="0.819" y2="-0.335" gradientUnits="objectBoundingBox">
      <stop offset="0" stop-color="#ffd063" stop-opacity="0"/>
      <stop offset="1" stop-color="#ffd063"/>
    </linearGradient>
    <linearGradient id="linear-gradient-6" x1="1.274" y1="-14.442" x2="1.274" y2="75.045" gradientUnits="objectBoundingBox">
      <stop offset="0" stop-color="#ffd063"/>
      <stop offset="1" stop-color="#ffd063" stop-opacity="0"/>
    </linearGradient>
    <linearGradient id="linear-gradient-7" x1="-6.244" y1="173.268" x2="-6.244" y2="262.813" xlink:href="#linear-gradient-6"/>
    <linearGradient id="linear-gradient-8" x1="13.817" y1="-144.738" x2="13.817" y2="-55.258" xlink:href="#linear-gradient-6"/>
    <linearGradient id="linear-gradient-9" x1="4.57" y1="-62.146" x2="4.57" y2="27.365" xlink:href="#linear-gradient-6"/>
    <linearGradient id="linear-gradient-10" x1="3.515" y1="31.713" x2="3.515" y2="121.184" xlink:href="#linear-gradient-6"/>
    <linearGradient id="linear-gradient-11" x1="-2.331" y1="329.062" x2="-2.331" y2="418.592" xlink:href="#linear-gradient-6"/>
    <linearGradient id="linear-gradient-12" x1="-25.394" y1="637.429" x2="-25.394" y2="726.966" xlink:href="#linear-gradient-6"/>
    <linearGradient id="linear-gradient-13" x1="11.723" y1="0.246" x2="11.723" y2="0.94" xlink:href="#linear-gradient-6"/>
    <linearGradient id="linear-gradient-14" x1="44.465" y1="-2.13" x2="44.465" y2="-1.436" xlink:href="#linear-gradient-6"/>
    <linearGradient id="linear-gradient-15" x1="-8.961" y1="-0.239" x2="-8.251" y2="-0.95" gradientUnits="objectBoundingBox">
      <stop offset="0" stop-color="#957222" stop-opacity="0"/>
      <stop offset="1" stop-color="#ffd063"/>
    </linearGradient>
    <linearGradient id="linear-gradient-16" x1="-5.192" y1="5.703" x2="-4.481" y2="4.993" xlink:href="#linear-gradient-15"/>
    <linearGradient id="linear-gradient-17" x1="1.292" y1="2.505" x2="2.003" y2="1.795" gradientUnits="objectBoundingBox">
      <stop offset="0" stop-color="#ffd063" stop-opacity="0"/>
      <stop offset="1" stop-color="#ffe3a1"/>
    </linearGradient>
  </defs>
  <g id="Group_701" data-name="Group 701" opacity="0.402">
    <g id="Group_700" data-name="Group 700" clip-path="url(#clip-path)">
      <path id="Path_3042" data-name="Path 3042" d="M176.93,5.784a2.892,2.892,0,1,1,2.891-2.894A2.891,2.891,0,0,1,176.93,5.784Zm31.9-2.894a2.892,2.892,0,1,0-2.89,2.894A2.891,2.891,0,0,0,208.826,2.891Zm29,0a2.889,2.889,0,1,0-2.889,2.894A2.89,2.89,0,0,0,237.831,2.891Zm29.007,0a2.891,2.891,0,1,0-2.89,2.894A2.89,2.89,0,0,0,266.838,2.891Zm-130.527,18.4a2.892,2.892,0,1,0-2.892,2.894A2.887,2.887,0,0,0,136.311,21.287Zm29.007,0a2.891,2.891,0,1,0-2.892,2.894A2.89,2.89,0,0,0,165.318,21.287Zm29.006,0a2.89,2.89,0,1,0-2.893,2.894A2.888,2.888,0,0,0,194.324,21.287Zm29,0a2.89,2.89,0,1,0-2.887,2.894A2.886,2.886,0,0,0,223.328,21.287Zm29.008,0a2.892,2.892,0,1,0-2.891,2.894A2.888,2.888,0,0,0,252.336,21.287Zm29.008,0a2.892,2.892,0,1,0-2.894,2.894A2.89,2.89,0,0,0,281.344,21.287Zm29.007,0a2.892,2.892,0,1,0-2.891,2.894A2.888,2.888,0,0,0,310.351,21.287ZM92.8,39.686a2.893,2.893,0,1,0-2.892,2.892A2.9,2.9,0,0,0,92.8,39.686Zm29.007,0a2.892,2.892,0,1,0-2.891,2.892A2.893,2.893,0,0,0,121.811,39.686Zm29,0a2.892,2.892,0,1,0-2.894,2.892A2.892,2.892,0,0,0,150.815,39.686Zm29.007,0a2.891,2.891,0,1,0-2.891,2.892A2.891,2.891,0,0,0,179.822,39.686Zm29,0a2.892,2.892,0,1,0-2.89,2.892A2.892,2.892,0,0,0,208.826,39.686Zm29,0a2.889,2.889,0,1,0-2.889,2.892A2.891,2.891,0,0,0,237.831,39.686Zm29.007,0a2.891,2.891,0,1,0-2.89,2.892A2.891,2.891,0,0,0,266.838,39.686Zm29.009,0a2.891,2.891,0,1,0-2.892,2.892A2.892,2.892,0,0,0,295.847,39.686Zm29,0a2.891,2.891,0,1,0-2.89,2.892A2.891,2.891,0,0,0,324.848,39.686Zm29.008,0a2.891,2.891,0,1,0-2.89,2.892A2.888,2.888,0,0,0,353.856,39.686ZM78.3,58.082a2.892,2.892,0,1,0-2.893,2.893A2.89,2.89,0,0,0,78.3,58.082Zm29,0a2.893,2.893,0,1,0-2.9,2.893A2.891,2.891,0,0,0,107.306,58.082Zm29,0a2.892,2.892,0,1,0-2.892,2.893A2.887,2.887,0,0,0,136.311,58.082Zm29.007,0a2.891,2.891,0,1,0-2.892,2.893A2.89,2.89,0,0,0,165.318,58.082Zm29.006,0a2.89,2.89,0,1,0-2.893,2.893A2.888,2.888,0,0,0,194.324,58.082Zm29,0a2.89,2.89,0,1,0-2.887,2.893A2.886,2.886,0,0,0,223.328,58.082Zm29.008,0a2.892,2.892,0,1,0-2.891,2.893A2.888,2.888,0,0,0,252.336,58.082Zm29.008,0a2.892,2.892,0,1,0-2.894,2.893A2.89,2.89,0,0,0,281.344,58.082Zm29.007,0a2.892,2.892,0,1,0-2.891,2.893A2.888,2.888,0,0,0,310.351,58.082Zm29,0a2.889,2.889,0,1,0-2.886,2.893A2.883,2.883,0,0,0,339.353,58.082Zm29.007,0a2.892,2.892,0,1,0-2.893,2.893A2.889,2.889,0,0,0,368.359,58.082ZM63.8,76.487A2.891,2.891,0,1,0,60.9,79.375,2.89,2.89,0,0,0,63.8,76.487Zm29.008,0a2.893,2.893,0,1,0-2.892,2.888A2.894,2.894,0,0,0,92.8,76.487Zm29.007,0a2.892,2.892,0,1,0-2.891,2.888A2.892,2.892,0,0,0,121.811,76.487Zm29,0a2.892,2.892,0,1,0-2.894,2.888A2.891,2.891,0,0,0,150.815,76.487Zm29.007,0a2.891,2.891,0,1,0-2.891,2.888A2.89,2.89,0,0,0,179.822,76.487Zm29,0a2.892,2.892,0,1,0-2.89,2.888A2.89,2.89,0,0,0,208.826,76.487Zm29,0a2.889,2.889,0,1,0-2.889,2.888A2.89,2.89,0,0,0,237.831,76.487Zm29.007,0a2.891,2.891,0,1,0-2.89,2.888A2.889,2.889,0,0,0,266.838,76.487Zm29.009,0a2.891,2.891,0,1,0-2.892,2.888A2.891,2.891,0,0,0,295.847,76.487Zm29,0a2.891,2.891,0,1,0-2.89,2.888A2.889,2.889,0,0,0,324.848,76.487Zm29.008,0a2.891,2.891,0,1,0-2.89,2.888A2.887,2.887,0,0,0,353.856,76.487Zm29.009,0a2.892,2.892,0,1,0-2.892,2.888A2.891,2.891,0,0,0,382.865,76.487ZM49.292,94.883A2.89,2.89,0,1,0,46.4,97.772,2.887,2.887,0,0,0,49.292,94.883Zm29.01,0a2.892,2.892,0,1,0-2.893,2.888A2.889,2.889,0,0,0,78.3,94.883Zm29,0a2.893,2.893,0,1,0-2.9,2.888A2.891,2.891,0,0,0,107.306,94.883Zm29,0a2.892,2.892,0,1,0-2.892,2.888A2.886,2.886,0,0,0,136.311,94.883Zm29.007,0a2.891,2.891,0,1,0-2.892,2.888A2.889,2.889,0,0,0,165.318,94.883Zm29.006,0a2.89,2.89,0,1,0-2.893,2.888A2.887,2.887,0,0,0,194.324,94.883Zm29,0a2.89,2.89,0,1,0-2.887,2.888A2.885,2.885,0,0,0,223.328,94.883Zm29.008,0a2.892,2.892,0,1,0-2.891,2.888A2.888,2.888,0,0,0,252.336,94.883Zm29.008,0a2.892,2.892,0,1,0-2.894,2.888A2.89,2.89,0,0,0,281.344,94.883Zm29.007,0a2.892,2.892,0,1,0-2.891,2.888A2.888,2.888,0,0,0,310.351,94.883Zm29,0a2.889,2.889,0,1,0-2.886,2.888A2.883,2.883,0,0,0,339.353,94.883Zm29.007,0a2.892,2.892,0,1,0-2.893,2.888A2.888,2.888,0,0,0,368.359,94.883Zm29.009,0a2.892,2.892,0,1,0-2.893,2.888A2.892,2.892,0,0,0,397.369,94.883ZM34.79,113.285a2.893,2.893,0,1,0-2.893,2.891A2.891,2.891,0,0,0,34.79,113.285Zm29.006,0a2.891,2.891,0,1,0-2.892,2.891A2.89,2.89,0,0,0,63.8,113.285Zm29.008,0a2.893,2.893,0,1,0-2.892,2.891A2.895,2.895,0,0,0,92.8,113.285Zm29.007,0a2.892,2.892,0,1,0-2.891,2.891A2.892,2.892,0,0,0,121.811,113.285Zm29,0a2.892,2.892,0,1,0-2.894,2.891A2.892,2.892,0,0,0,150.815,113.285Zm29.007,0a2.891,2.891,0,1,0-2.891,2.891A2.89,2.89,0,0,0,179.822,113.285Zm29,0a2.892,2.892,0,1,0-2.89,2.891A2.891,2.891,0,0,0,208.826,113.285Zm29,0a2.889,2.889,0,1,0-2.889,2.891A2.89,2.89,0,0,0,237.831,113.285Zm29.007,0a2.891,2.891,0,1,0-2.89,2.891A2.89,2.89,0,0,0,266.838,113.285Zm29.009,0a2.891,2.891,0,1,0-2.892,2.891A2.891,2.891,0,0,0,295.847,113.285Zm29,0a2.891,2.891,0,1,0-2.89,2.891A2.89,2.89,0,0,0,324.848,113.285Zm29.008,0a2.891,2.891,0,1,0-2.89,2.891A2.887,2.887,0,0,0,353.856,113.285Zm29.009,0a2.892,2.892,0,1,0-2.892,2.891A2.891,2.891,0,0,0,382.865,113.285Zm29,0a2.89,2.89,0,1,0-2.887,2.891A2.886,2.886,0,0,0,411.866,113.285ZM20.285,131.679A2.891,2.891,0,1,0,17.4,134.57,2.888,2.888,0,0,0,20.285,131.679Zm29.006,0A2.89,2.89,0,1,0,46.4,134.57,2.887,2.887,0,0,0,49.292,131.679Zm29.01,0a2.892,2.892,0,1,0-2.893,2.891A2.889,2.889,0,0,0,78.3,131.679Zm29,0a2.893,2.893,0,1,0-2.9,2.891A2.89,2.89,0,0,0,107.306,131.679Zm29,0a2.892,2.892,0,1,0-2.892,2.891A2.886,2.886,0,0,0,136.311,131.679Zm29.007,0a2.891,2.891,0,1,0-2.892,2.891A2.889,2.889,0,0,0,165.318,131.679Zm29.006,0a2.89,2.89,0,1,0-2.893,2.891A2.887,2.887,0,0,0,194.324,131.679Zm29,0a2.89,2.89,0,1,0-2.887,2.891A2.885,2.885,0,0,0,223.328,131.679Zm29.008,0a2.892,2.892,0,1,0-2.891,2.891A2.888,2.888,0,0,0,252.336,131.679Zm29.008,0a2.892,2.892,0,1,0-2.894,2.891A2.89,2.89,0,0,0,281.344,131.679Zm29.007,0a2.892,2.892,0,1,0-2.891,2.891A2.888,2.888,0,0,0,310.351,131.679Zm29,0a2.889,2.889,0,1,0-2.886,2.891A2.883,2.883,0,0,0,339.353,131.679Zm29.007,0a2.892,2.892,0,1,0-2.893,2.891A2.888,2.888,0,0,0,368.359,131.679Zm29.009,0a2.892,2.892,0,1,0-2.893,2.891A2.892,2.892,0,0,0,397.369,131.679Zm29.008,0a2.892,2.892,0,1,0-2.9,2.891A2.892,2.892,0,0,0,426.376,131.679ZM34.79,150.082a2.893,2.893,0,1,0-2.893,2.893A2.891,2.891,0,0,0,34.79,150.082Zm29.006,0a2.891,2.891,0,1,0-2.892,2.893A2.89,2.89,0,0,0,63.8,150.082Zm29.008,0a2.893,2.893,0,1,0-2.892,2.893A2.894,2.894,0,0,0,92.8,150.082Zm29.007,0a2.892,2.892,0,1,0-2.891,2.893A2.891,2.891,0,0,0,121.811,150.082Zm29,0a2.892,2.892,0,1,0-2.894,2.893A2.891,2.891,0,0,0,150.815,150.082Zm29.007,0a2.891,2.891,0,1,0-2.891,2.893A2.889,2.889,0,0,0,179.822,150.082Zm29,0a2.892,2.892,0,1,0-2.89,2.893A2.89,2.89,0,0,0,208.826,150.082Zm29,0a2.889,2.889,0,1,0-2.889,2.893A2.889,2.889,0,0,0,237.831,150.082Zm29.007,0a2.891,2.891,0,1,0-2.89,2.893A2.889,2.889,0,0,0,266.838,150.082Zm29.009,0a2.891,2.891,0,1,0-2.892,2.893A2.89,2.89,0,0,0,295.847,150.082Zm29,0a2.891,2.891,0,1,0-2.89,2.893A2.889,2.889,0,0,0,324.848,150.082Zm29.008,0a2.891,2.891,0,1,0-2.89,2.893A2.886,2.886,0,0,0,353.856,150.082Zm29.009,0a2.892,2.892,0,1,0-2.892,2.893A2.891,2.891,0,0,0,382.865,150.082Zm29,0a2.89,2.89,0,1,0-2.887,2.893A2.886,2.886,0,0,0,411.866,150.082Zm-391.581,18.4a2.891,2.891,0,1,0-2.887,2.892A2.889,2.889,0,0,0,20.285,168.479Zm29.006,0a2.89,2.89,0,1,0-2.891,2.892A2.888,2.888,0,0,0,49.292,168.479Zm29.01,0a2.892,2.892,0,1,0-2.893,2.892A2.891,2.891,0,0,0,78.3,168.479Zm29,0a2.893,2.893,0,1,0-2.9,2.892A2.892,2.892,0,0,0,107.306,168.479Zm29,0a2.892,2.892,0,1,0-2.892,2.892A2.888,2.888,0,0,0,136.311,168.479Zm29.007,0a2.891,2.891,0,1,0-2.892,2.892A2.891,2.891,0,0,0,165.318,168.479Zm29.006,0a2.89,2.89,0,1,0-2.893,2.892A2.889,2.889,0,0,0,194.324,168.479Zm29,0a2.89,2.89,0,1,0-2.887,2.892A2.887,2.887,0,0,0,223.328,168.479Zm29.008,0a2.892,2.892,0,1,0-2.891,2.892A2.889,2.889,0,0,0,252.336,168.479Zm29.008,0a2.892,2.892,0,1,0-2.894,2.892A2.891,2.891,0,0,0,281.344,168.479Zm29.007,0a2.892,2.892,0,1,0-2.891,2.892A2.89,2.89,0,0,0,310.351,168.479Zm29,0a2.889,2.889,0,1,0-2.886,2.892A2.885,2.885,0,0,0,339.353,168.479Zm29.007,0a2.892,2.892,0,1,0-2.893,2.892A2.89,2.89,0,0,0,368.359,168.479Zm29.009,0a2.892,2.892,0,1,0-2.893,2.892A2.894,2.894,0,0,0,397.369,168.479Zm29.008,0a2.892,2.892,0,1,0-2.9,2.892A2.894,2.894,0,0,0,426.376,168.479ZM5.782,186.88a2.891,2.891,0,1,0-2.887,2.889A2.888,2.888,0,0,0,5.782,186.88Zm29.009,0a2.893,2.893,0,1,0-2.893,2.889A2.892,2.892,0,0,0,34.79,186.88Zm29.006,0a2.891,2.891,0,1,0-2.892,2.889A2.891,2.891,0,0,0,63.8,186.88Zm29.008,0a2.893,2.893,0,1,0-2.892,2.889A2.895,2.895,0,0,0,92.8,186.88Zm29.007,0a2.892,2.892,0,1,0-2.891,2.889A2.892,2.892,0,0,0,121.811,186.88Zm29,0a2.892,2.892,0,1,0-2.894,2.889A2.892,2.892,0,0,0,150.815,186.88Zm29.007,0a2.891,2.891,0,1,0-2.891,2.889A2.89,2.89,0,0,0,179.822,186.88Zm29,0a2.892,2.892,0,1,0-2.89,2.889A2.891,2.891,0,0,0,208.826,186.88Zm29,0a2.889,2.889,0,1,0-2.889,2.889A2.89,2.89,0,0,0,237.831,186.88Zm29.007,0a2.891,2.891,0,1,0-2.89,2.889A2.89,2.89,0,0,0,266.838,186.88Zm29.009,0a2.891,2.891,0,1,0-2.892,2.889A2.892,2.892,0,0,0,295.847,186.88Zm29,0a2.891,2.891,0,1,0-2.89,2.889A2.89,2.89,0,0,0,324.848,186.88Zm29.008,0a2.891,2.891,0,1,0-2.89,2.889A2.887,2.887,0,0,0,353.856,186.88Zm29.009,0a2.892,2.892,0,1,0-2.892,2.889A2.892,2.892,0,0,0,382.865,186.88Zm29,0a2.89,2.89,0,1,0-2.887,2.889A2.887,2.887,0,0,0,411.866,186.88Zm29.009,0a2.889,2.889,0,1,0-2.894,2.889A2.892,2.892,0,0,0,440.875,186.88Zm-420.59,18.4a2.891,2.891,0,1,0-2.887,2.887A2.887,2.887,0,0,0,20.285,205.277Zm29.006,0a2.89,2.89,0,1,0-2.891,2.887A2.886,2.886,0,0,0,49.292,205.277Zm29.01,0a2.892,2.892,0,1,0-2.893,2.887A2.888,2.888,0,0,0,78.3,205.277Zm29,0a2.893,2.893,0,1,0-2.9,2.887A2.89,2.89,0,0,0,107.306,205.277Zm29,0a2.892,2.892,0,1,0-2.892,2.887A2.885,2.885,0,0,0,136.311,205.277Zm29.007,0a2.891,2.891,0,1,0-2.892,2.887A2.888,2.888,0,0,0,165.318,205.277Zm29.006,0a2.89,2.89,0,1,0-2.893,2.887A2.886,2.886,0,0,0,194.324,205.277Zm29,0a2.89,2.89,0,1,0-2.887,2.887A2.884,2.884,0,0,0,223.328,205.277Zm29.008,0a2.892,2.892,0,1,0-2.891,2.887A2.887,2.887,0,0,0,252.336,205.277Zm29.008,0a2.892,2.892,0,1,0-2.894,2.887A2.889,2.889,0,0,0,281.344,205.277Zm29.007,0a2.892,2.892,0,1,0-2.891,2.887A2.887,2.887,0,0,0,310.351,205.277Zm29,0a2.889,2.889,0,1,0-2.886,2.887A2.882,2.882,0,0,0,339.353,205.277Zm29.007,0a2.892,2.892,0,1,0-2.893,2.887A2.887,2.887,0,0,0,368.359,205.277Zm29.009,0a2.892,2.892,0,1,0-2.893,2.887A2.891,2.891,0,0,0,397.369,205.277Zm29.008,0a2.892,2.892,0,1,0-2.9,2.887A2.891,2.891,0,0,0,426.376,205.277ZM5.782,223.679a2.891,2.891,0,1,0-2.887,2.89A2.887,2.887,0,0,0,5.782,223.679Zm29.009,0a2.893,2.893,0,1,0-2.893,2.89A2.891,2.891,0,0,0,34.79,223.679Zm29.006,0a2.891,2.891,0,1,0-2.892,2.89A2.89,2.89,0,0,0,63.8,223.679Zm29.008,0a2.893,2.893,0,1,0-2.892,2.89A2.894,2.894,0,0,0,92.8,223.679Zm29.007,0a2.892,2.892,0,1,0-2.891,2.89A2.891,2.891,0,0,0,121.811,223.679Zm29,0a2.892,2.892,0,1,0-2.894,2.89A2.891,2.891,0,0,0,150.815,223.679Zm29.007,0a2.891,2.891,0,1,0-2.891,2.89A2.89,2.89,0,0,0,179.822,223.679Zm29,0a2.892,2.892,0,1,0-2.89,2.89A2.89,2.89,0,0,0,208.826,223.679Zm29,0a2.889,2.889,0,1,0-2.889,2.89A2.89,2.89,0,0,0,237.831,223.679Zm29.007,0a2.891,2.891,0,1,0-2.89,2.89A2.889,2.889,0,0,0,266.838,223.679Zm29.009,0a2.891,2.891,0,1,0-2.892,2.89A2.891,2.891,0,0,0,295.847,223.679Zm29,0a2.891,2.891,0,1,0-2.89,2.89A2.889,2.889,0,0,0,324.848,223.679Zm29.008,0a2.891,2.891,0,1,0-2.89,2.89A2.886,2.886,0,0,0,353.856,223.679Zm29.009,0a2.892,2.892,0,1,0-2.892,2.89A2.891,2.891,0,0,0,382.865,223.679Zm29,0a2.89,2.89,0,1,0-2.887,2.89A2.886,2.886,0,0,0,411.866,223.679Zm29.009,0a2.889,2.889,0,1,0-2.894,2.89A2.891,2.891,0,0,0,440.875,223.679ZM20.285,242.073a2.891,2.891,0,1,0-2.887,2.893A2.887,2.887,0,0,0,20.285,242.073Zm29.006,0a2.89,2.89,0,1,0-2.891,2.893A2.886,2.886,0,0,0,49.292,242.073Zm29.01,0a2.892,2.892,0,1,0-2.893,2.893A2.888,2.888,0,0,0,78.3,242.073Zm29,0a2.893,2.893,0,1,0-2.9,2.893A2.889,2.889,0,0,0,107.306,242.073Zm29,0a2.892,2.892,0,1,0-2.892,2.893A2.885,2.885,0,0,0,136.311,242.073Zm29.007,0a2.891,2.891,0,1,0-2.892,2.893A2.888,2.888,0,0,0,165.318,242.073Zm29.006,0a2.89,2.89,0,1,0-2.893,2.893A2.886,2.886,0,0,0,194.324,242.073Zm29,0a2.89,2.89,0,1,0-2.887,2.893A2.884,2.884,0,0,0,223.328,242.073Zm29.008,0a2.892,2.892,0,1,0-2.891,2.893A2.887,2.887,0,0,0,252.336,242.073Zm29.008,0a2.892,2.892,0,1,0-2.894,2.893A2.889,2.889,0,0,0,281.344,242.073Zm29.007,0a2.892,2.892,0,1,0-2.891,2.893A2.887,2.887,0,0,0,310.351,242.073Zm29,0a2.889,2.889,0,1,0-2.886,2.893A2.882,2.882,0,0,0,339.353,242.073Zm29.007,0a2.892,2.892,0,1,0-2.893,2.893A2.887,2.887,0,0,0,368.359,242.073Zm29.009,0a2.892,2.892,0,1,0-2.893,2.893A2.891,2.891,0,0,0,397.369,242.073Zm29.008,0a2.892,2.892,0,1,0-2.9,2.893A2.891,2.891,0,0,0,426.376,242.073ZM34.79,260.477a2.893,2.893,0,1,0-2.893,2.891A2.892,2.892,0,0,0,34.79,260.477Zm29.006,0a2.891,2.891,0,1,0-2.892,2.891A2.891,2.891,0,0,0,63.8,260.477Zm29.008,0a2.893,2.893,0,1,0-2.892,2.891A2.9,2.9,0,0,0,92.8,260.477Zm29.007,0a2.892,2.892,0,1,0-2.891,2.891A2.893,2.893,0,0,0,121.811,260.477Zm29,0a2.892,2.892,0,1,0-2.894,2.891A2.893,2.893,0,0,0,150.815,260.477Zm29.007,0a2.891,2.891,0,1,0-2.891,2.891A2.891,2.891,0,0,0,179.822,260.477Zm29,0a2.892,2.892,0,1,0-2.89,2.891A2.892,2.892,0,0,0,208.826,260.477Zm29,0a2.889,2.889,0,1,0-2.889,2.891A2.891,2.891,0,0,0,237.831,260.477Zm29.007,0a2.891,2.891,0,1,0-2.89,2.891A2.891,2.891,0,0,0,266.838,260.477Zm29.009,0a2.891,2.891,0,1,0-2.892,2.891A2.892,2.892,0,0,0,295.847,260.477Zm29,0a2.891,2.891,0,1,0-2.89,2.891A2.891,2.891,0,0,0,324.848,260.477Zm29.008,0a2.891,2.891,0,1,0-2.89,2.891A2.888,2.888,0,0,0,353.856,260.477Zm29.009,0a2.892,2.892,0,1,0-2.892,2.891A2.892,2.892,0,0,0,382.865,260.477Zm29,0a2.89,2.89,0,1,0-2.887,2.891A2.887,2.887,0,0,0,411.866,260.477ZM20.285,278.87a2.891,2.891,0,1,0-2.887,2.893A2.886,2.886,0,0,0,20.285,278.87Zm29.006,0a2.89,2.89,0,1,0-2.891,2.893A2.885,2.885,0,0,0,49.292,278.87Zm29.01,0a2.892,2.892,0,1,0-2.893,2.893A2.887,2.887,0,0,0,78.3,278.87Zm29,0a2.893,2.893,0,1,0-2.9,2.893A2.889,2.889,0,0,0,107.306,278.87Zm29,0a2.892,2.892,0,1,0-2.892,2.893A2.884,2.884,0,0,0,136.311,278.87Zm29.007,0a2.891,2.891,0,1,0-2.892,2.893A2.887,2.887,0,0,0,165.318,278.87Zm29.006,0a2.89,2.89,0,1,0-2.893,2.893A2.886,2.886,0,0,0,194.324,278.87Zm29,0a2.89,2.89,0,1,0-2.887,2.893A2.883,2.883,0,0,0,223.328,278.87Zm29.008,0a2.892,2.892,0,1,0-2.891,2.893A2.886,2.886,0,0,0,252.336,278.87Zm29.008,0a2.892,2.892,0,1,0-2.894,2.893A2.888,2.888,0,0,0,281.344,278.87Zm29.007,0a2.892,2.892,0,1,0-2.891,2.893A2.886,2.886,0,0,0,310.351,278.87Zm29,0a2.889,2.889,0,1,0-2.886,2.893A2.881,2.881,0,0,0,339.353,278.87Zm29.007,0a2.892,2.892,0,1,0-2.893,2.893A2.886,2.886,0,0,0,368.359,278.87Zm29.009,0a2.892,2.892,0,1,0-2.893,2.893A2.89,2.89,0,0,0,397.369,278.87Zm29.008,0a2.892,2.892,0,1,0-2.9,2.893A2.89,2.89,0,0,0,426.376,278.87ZM34.79,297.273a2.893,2.893,0,1,0-2.893,2.891A2.89,2.89,0,0,0,34.79,297.273Zm29.006,0a2.891,2.891,0,1,0-2.892,2.891A2.889,2.889,0,0,0,63.8,297.273Zm29.008,0a2.893,2.893,0,1,0-2.892,2.891A2.893,2.893,0,0,0,92.8,297.273Zm29.007,0a2.892,2.892,0,1,0-2.891,2.891A2.891,2.891,0,0,0,121.811,297.273Zm29,0a2.892,2.892,0,1,0-2.894,2.891A2.89,2.89,0,0,0,150.815,297.273Zm29.007,0a2.891,2.891,0,1,0-2.891,2.891A2.889,2.889,0,0,0,179.822,297.273Zm29,0a2.892,2.892,0,1,0-2.89,2.891A2.889,2.889,0,0,0,208.826,297.273Zm29,0a2.889,2.889,0,1,0-2.889,2.891A2.889,2.889,0,0,0,237.831,297.273Zm29.007,0a2.891,2.891,0,1,0-2.89,2.891A2.888,2.888,0,0,0,266.838,297.273Zm29.009,0a2.891,2.891,0,1,0-2.892,2.891A2.89,2.89,0,0,0,295.847,297.273Zm29,0a2.891,2.891,0,1,0-2.89,2.891A2.888,2.888,0,0,0,324.848,297.273Zm29.008,0a2.891,2.891,0,1,0-2.89,2.891A2.886,2.886,0,0,0,353.856,297.273Zm29.009,0a2.892,2.892,0,1,0-2.892,2.891A2.89,2.89,0,0,0,382.865,297.273Zm29,0a2.89,2.89,0,1,0-2.887,2.891A2.885,2.885,0,0,0,411.866,297.273Zm-362.575,18.4A2.89,2.89,0,1,0,46.4,318.56,2.887,2.887,0,0,0,49.292,315.669Zm29.01,0a2.892,2.892,0,1,0-2.893,2.891A2.889,2.889,0,0,0,78.3,315.669Zm29,0a2.893,2.893,0,1,0-2.9,2.891A2.89,2.89,0,0,0,107.306,315.669Zm29,0a2.892,2.892,0,1,0-2.892,2.891A2.886,2.886,0,0,0,136.311,315.669Zm29.007,0a2.891,2.891,0,1,0-2.892,2.891A2.889,2.889,0,0,0,165.318,315.669Zm29.006,0a2.89,2.89,0,1,0-2.893,2.891A2.887,2.887,0,0,0,194.324,315.669Zm29,0a2.89,2.89,0,1,0-2.887,2.891A2.885,2.885,0,0,0,223.328,315.669Zm29.008,0a2.892,2.892,0,1,0-2.891,2.891A2.887,2.887,0,0,0,252.336,315.669Zm29.008,0a2.892,2.892,0,1,0-2.894,2.891A2.89,2.89,0,0,0,281.344,315.669Zm29.007,0a2.892,2.892,0,1,0-2.891,2.891A2.888,2.888,0,0,0,310.351,315.669Zm29,0a2.889,2.889,0,1,0-2.886,2.891A2.883,2.883,0,0,0,339.353,315.669Zm29.007,0a2.892,2.892,0,1,0-2.893,2.891A2.888,2.888,0,0,0,368.359,315.669Zm29.009,0a2.892,2.892,0,1,0-2.893,2.891A2.892,2.892,0,0,0,397.369,315.669ZM63.8,334.072a2.891,2.891,0,1,0-2.892,2.891A2.89,2.89,0,0,0,63.8,334.072Zm29.008,0a2.893,2.893,0,1,0-2.892,2.891A2.894,2.894,0,0,0,92.8,334.072Zm29.007,0a2.892,2.892,0,1,0-2.891,2.891A2.892,2.892,0,0,0,121.811,334.072Zm29,0a2.892,2.892,0,1,0-2.894,2.891A2.891,2.891,0,0,0,150.815,334.072Zm29.007,0a2.891,2.891,0,1,0-2.891,2.891A2.89,2.89,0,0,0,179.822,334.072Zm29,0a2.892,2.892,0,1,0-2.89,2.891A2.89,2.89,0,0,0,208.826,334.072Zm29,0a2.889,2.889,0,1,0-2.889,2.891A2.89,2.89,0,0,0,237.831,334.072Zm29.007,0a2.891,2.891,0,1,0-2.89,2.891A2.889,2.889,0,0,0,266.838,334.072Zm29.009,0a2.891,2.891,0,1,0-2.892,2.891A2.891,2.891,0,0,0,295.847,334.072Zm29,0a2.891,2.891,0,1,0-2.89,2.891A2.889,2.889,0,0,0,324.848,334.072Zm29.008,0a2.891,2.891,0,1,0-2.89,2.891A2.886,2.886,0,0,0,353.856,334.072Zm29.009,0a2.892,2.892,0,1,0-2.892,2.891A2.891,2.891,0,0,0,382.865,334.072ZM78.3,352.466a2.892,2.892,0,1,0-2.893,2.892A2.886,2.886,0,0,0,78.3,352.466Zm29,0a2.893,2.893,0,1,0-2.9,2.892A2.888,2.888,0,0,0,107.306,352.466Zm29,0a2.892,2.892,0,1,0-2.892,2.892A2.884,2.884,0,0,0,136.311,352.466Zm29.007,0a2.891,2.891,0,1,0-2.892,2.892A2.886,2.886,0,0,0,165.318,352.466Zm29.006,0a2.89,2.89,0,1,0-2.893,2.892A2.885,2.885,0,0,0,194.324,352.466Zm29,0a2.89,2.89,0,1,0-2.887,2.892A2.882,2.882,0,0,0,223.328,352.466Zm29.008,0a2.892,2.892,0,1,0-2.891,2.892A2.885,2.885,0,0,0,252.336,352.466Zm29.008,0a2.892,2.892,0,1,0-2.894,2.892A2.887,2.887,0,0,0,281.344,352.466Zm29.007,0a2.892,2.892,0,1,0-2.891,2.892A2.885,2.885,0,0,0,310.351,352.466Zm29,0a2.889,2.889,0,1,0-2.886,2.892A2.88,2.88,0,0,0,339.353,352.466Zm29.007,0a2.892,2.892,0,1,0-2.893,2.892A2.886,2.886,0,0,0,368.359,352.466ZM92.8,370.868a2.893,2.893,0,1,0-2.892,2.891A2.892,2.892,0,0,0,92.8,370.868Zm29.007,0a2.892,2.892,0,1,0-2.891,2.891A2.889,2.889,0,0,0,121.811,370.868Zm29,0a2.892,2.892,0,1,0-2.894,2.891A2.889,2.889,0,0,0,150.815,370.868Zm29.007,0a2.891,2.891,0,1,0-2.891,2.891A2.887,2.887,0,0,0,179.822,370.868Zm29,0a2.892,2.892,0,1,0-2.89,2.891A2.888,2.888,0,0,0,208.826,370.868Zm29,0a2.889,2.889,0,1,0-2.889,2.891A2.887,2.887,0,0,0,237.831,370.868Zm29.007,0a2.891,2.891,0,1,0-2.89,2.891A2.887,2.887,0,0,0,266.838,370.868Zm29.009,0a2.891,2.891,0,1,0-2.892,2.891A2.888,2.888,0,0,0,295.847,370.868Zm29,0a2.891,2.891,0,1,0-2.89,2.891A2.887,2.887,0,0,0,324.848,370.868Zm29.008,0a2.891,2.891,0,1,0-2.89,2.891A2.884,2.884,0,0,0,353.856,370.868Zm-246.55,18.4a2.893,2.893,0,1,0-2.9,2.888A2.888,2.888,0,0,0,107.306,389.266Zm29,0a2.892,2.892,0,1,0-2.892,2.888A2.884,2.884,0,0,0,136.311,389.266Zm29.007,0a2.891,2.891,0,1,0-2.892,2.888A2.886,2.886,0,0,0,165.318,389.266Zm29.006,0a2.89,2.89,0,1,0-2.893,2.888A2.885,2.885,0,0,0,194.324,389.266Zm29,0a2.89,2.89,0,1,0-2.887,2.888A2.882,2.882,0,0,0,223.328,389.266Zm29.008,0a2.892,2.892,0,1,0-2.891,2.888A2.885,2.885,0,0,0,252.336,389.266Zm29.008,0a2.892,2.892,0,1,0-2.894,2.888A2.887,2.887,0,0,0,281.344,389.266Zm29.007,0a2.892,2.892,0,1,0-2.891,2.888A2.885,2.885,0,0,0,310.351,389.266Zm29,0a2.889,2.889,0,1,0-2.886,2.888A2.88,2.88,0,0,0,339.353,389.266Zm-217.541,18.4a2.892,2.892,0,1,0-2.891,2.891A2.893,2.893,0,0,0,121.811,407.669Zm29,0a2.892,2.892,0,1,0-2.894,2.891A2.893,2.893,0,0,0,150.815,407.669Zm29.007,0a2.891,2.891,0,1,0-2.891,2.891A2.891,2.891,0,0,0,179.822,407.669Zm29,0a2.892,2.892,0,1,0-2.89,2.891A2.892,2.892,0,0,0,208.826,407.669Zm29,0a2.889,2.889,0,1,0-2.889,2.891A2.891,2.891,0,0,0,237.831,407.669Zm29.007,0a2.891,2.891,0,1,0-2.89,2.891A2.891,2.891,0,0,0,266.838,407.669Zm29.009,0a2.891,2.891,0,1,0-2.892,2.891A2.892,2.892,0,0,0,295.847,407.669Zm29,0a2.891,2.891,0,1,0-2.89,2.891A2.891,2.891,0,0,0,324.848,407.669Zm-159.53,18.394a2.891,2.891,0,1,0-2.892,2.892A2.888,2.888,0,0,0,165.318,426.063Zm29.006,0a2.89,2.89,0,1,0-2.893,2.892A2.887,2.887,0,0,0,194.324,426.063Zm29,0a2.89,2.89,0,1,0-2.887,2.892A2.884,2.884,0,0,0,223.328,426.063Zm29.008,0a2.892,2.892,0,1,0-2.891,2.892A2.887,2.887,0,0,0,252.336,426.063Zm29.008,0a2.892,2.892,0,1,0-2.894,2.892A2.889,2.889,0,0,0,281.344,426.063Z" transform="translate(781.739 -134.92)" fill="url(#linear-gradient)"/>
      <rect id="Rectangle_237" data-name="Rectangle 237" width="877.529" height="1412.369" transform="matrix(0.707, -0.707, 0.707, 0.707, -385.647, 421.734)" opacity="0.5" fill="url(#linear-gradient-2)"/>
      <rect id="Rectangle_238" data-name="Rectangle 238" width="1412.37" height="877.53" transform="translate(237.038 1089.493) rotate(-45)" opacity="0.5" fill="url(#linear-gradient-3)"/>
      <rect id="Rectangle_239" data-name="Rectangle 239" width="1412.369" height="877.529" transform="matrix(0.707, -0.707, 0.707, 0.707, -920.852, 31.308)" opacity="0.25" fill="url(#linear-gradient-4)"/>
      <path id="Path_3043" data-name="Path 3043" d="M310.808,498.3a3.407,3.407,0,1,1-3.4,3.409A3.406,3.406,0,0,1,310.808,498.3Zm-37.561,3.409a3.407,3.407,0,1,0,3.407-3.409A3.407,3.407,0,0,0,273.247,501.71Zm-34.152,0a3.4,3.4,0,1,0,3.4-3.409A3.4,3.4,0,0,0,239.1,501.71Zm-34.159,0a3.4,3.4,0,1,0,3.4-3.409A3.405,3.405,0,0,0,204.937,501.71Zm153.7-21.663a3.4,3.4,0,1,0,3.4-3.407A3.4,3.4,0,0,0,358.64,480.047Zm-34.157,0a3.4,3.4,0,1,0,3.4-3.407A3.4,3.4,0,0,0,324.483,480.047Zm-34.156,0a3.4,3.4,0,1,0,3.4-3.407A3.4,3.4,0,0,0,290.327,480.047Zm-34.154,0a3.4,3.4,0,1,0,3.4-3.407A3.4,3.4,0,0,0,256.173,480.047Zm-34.157,0a3.4,3.4,0,1,0,3.4-3.407A3.4,3.4,0,0,0,222.016,480.047Zm-34.158,0a3.4,3.4,0,1,0,3.406-3.407A3.4,3.4,0,0,0,187.858,480.047Zm-34.157,0a3.406,3.406,0,1,0,3.4-3.407A3.4,3.4,0,0,0,153.7,480.047Zm256.17-21.664a3.406,3.406,0,1,0,3.406-3.408A3.409,3.409,0,0,0,409.871,458.382Zm-34.157,0a3.4,3.4,0,1,0,3.4-3.408A3.406,3.406,0,0,0,375.713,458.382Zm-34.153,0a3.4,3.4,0,1,0,3.407-3.408A3.406,3.406,0,0,0,341.561,458.382Zm-34.157,0a3.4,3.4,0,1,0,3.4-3.4A3.4,3.4,0,0,0,307.4,458.382Zm-34.156,0a3.407,3.407,0,1,0,3.407-3.4A3.406,3.406,0,0,0,273.247,458.382Zm-34.152,0a3.4,3.4,0,1,0,3.4-3.4A3.4,3.4,0,0,0,239.1,458.382Zm-34.159,0a3.4,3.4,0,1,0,3.4-3.4A3.4,3.4,0,0,0,204.937,458.382Zm-34.159,0a3.4,3.4,0,1,0,3.406-3.4A3.406,3.406,0,0,0,170.778,458.382Zm-34.15,0a3.4,3.4,0,1,0,3.4-3.4A3.4,3.4,0,0,0,136.628,458.382Zm-34.159,0a3.4,3.4,0,1,0,3.4-3.4A3.4,3.4,0,0,0,102.47,458.382Zm324.477-21.664a3.407,3.407,0,1,0,3.409-3.406A3.4,3.4,0,0,0,426.947,436.718Zm-34.153,0a3.407,3.407,0,1,0,3.407-3.406A3.4,3.4,0,0,0,392.794,436.718Zm-34.154,0a3.4,3.4,0,1,0,3.4-3.406A3.4,3.4,0,0,0,358.64,436.718Zm-34.157,0a3.4,3.4,0,1,0,3.4-3.406A3.4,3.4,0,0,0,324.483,436.718Zm-34.156,0a3.4,3.4,0,1,0,3.4-3.407A3.4,3.4,0,0,0,290.327,436.72Zm-34.154,0a3.4,3.4,0,1,0,3.4-3.407A3.395,3.395,0,0,0,256.173,436.72Zm-34.157,0a3.4,3.4,0,1,0,3.4-3.407A3.4,3.4,0,0,0,222.016,436.72Zm-34.158,0a3.4,3.4,0,1,0,3.406-3.407A3.4,3.4,0,0,0,187.858,436.72Zm-34.157,0a3.406,3.406,0,1,0,3.4-3.407A3.4,3.4,0,0,0,153.7,436.72Zm-34.153,0a3.4,3.4,0,1,0,3.4-3.407A3.395,3.395,0,0,0,119.548,436.72Zm-34.157,0a3.406,3.406,0,1,0,3.407-3.407A3.4,3.4,0,0,0,85.391,436.72Zm358.637-21.675a3.405,3.405,0,1,0,3.4-3.4A3.4,3.4,0,0,0,444.028,415.045Zm-34.157,0a3.406,3.406,0,1,0,3.406-3.4A3.407,3.407,0,0,0,409.871,415.045Zm-34.157,0a3.4,3.4,0,1,0,3.4-3.4A3.4,3.4,0,0,0,375.713,415.045Zm-34.153,0a3.4,3.4,0,1,0,3.407-3.4A3.4,3.4,0,0,0,341.561,415.045Zm-34.157,0a3.4,3.4,0,1,0,3.4-3.4A3.4,3.4,0,0,0,307.4,415.046Zm-34.156,0a3.407,3.407,0,1,0,3.407-3.4A3.4,3.4,0,0,0,273.247,415.046Zm-34.152,0a3.4,3.4,0,1,0,3.4-3.4A3.4,3.4,0,0,0,239.1,415.046Zm-34.159,0a3.4,3.4,0,1,0,3.4-3.4A3.4,3.4,0,0,0,204.937,415.046Zm-34.159,0a3.4,3.4,0,1,0,3.406-3.4A3.4,3.4,0,0,0,170.778,415.046Zm-34.15,0a3.4,3.4,0,1,0,3.4-3.4A3.4,3.4,0,0,0,136.628,415.046Zm-34.159,0a3.4,3.4,0,1,0,3.4-3.4A3.4,3.4,0,0,0,102.47,415.046Zm-34.158,0a3.4,3.4,0,1,0,3.406-3.4A3.4,3.4,0,0,0,68.312,415.046Zm392.8-21.662a3.4,3.4,0,1,0,3.4-3.4A3.4,3.4,0,0,0,461.107,393.384Zm-34.16,0a3.407,3.407,0,1,0,3.409-3.4A3.4,3.4,0,0,0,426.947,393.384Zm-34.153,0a3.407,3.407,0,1,0,3.407-3.4A3.4,3.4,0,0,0,392.794,393.384Zm-34.154,0a3.4,3.4,0,1,0,3.4-3.4A3.4,3.4,0,0,0,358.64,393.384Zm-34.157,0a3.4,3.4,0,1,0,3.4-3.4A3.4,3.4,0,0,0,324.483,393.384Zm-34.156,0a3.4,3.4,0,1,0,3.4-3.4A3.4,3.4,0,0,0,290.327,393.384Zm-34.157,0a3.4,3.4,0,1,0,3.4-3.4A3.4,3.4,0,0,0,256.17,393.384Zm-34.154,0a3.4,3.4,0,1,0,3.4-3.4A3.4,3.4,0,0,0,222.016,393.384Zm-34.158,0a3.405,3.405,0,1,0,3.406-3.4A3.4,3.4,0,0,0,187.858,393.384Zm-34.157,0a3.405,3.405,0,1,0,3.4-3.4A3.4,3.4,0,0,0,153.7,393.384Zm-34.153,0a3.4,3.4,0,1,0,3.4-3.4A3.4,3.4,0,0,0,119.548,393.384Zm-34.157,0a3.406,3.406,0,1,0,3.407-3.4A3.4,3.4,0,0,0,85.391,393.384Zm-34.157,0a3.406,3.406,0,1,0,3.406-3.4A3.406,3.406,0,0,0,51.233,393.384Zm426.95-21.667a3.407,3.407,0,1,0,3.409-3.406A3.405,3.405,0,0,0,478.183,371.716Zm-34.155,0a3.4,3.4,0,1,0,3.4-3.406A3.4,3.4,0,0,0,444.028,371.716Zm-34.157,0a3.406,3.406,0,1,0,3.406-3.406A3.408,3.408,0,0,0,409.871,371.716Zm-34.159,0a3.406,3.406,0,1,0,3.406-3.406A3.405,3.405,0,0,0,375.712,371.716Zm-34.151,0a3.4,3.4,0,1,0,3.407-3.406A3.4,3.4,0,0,0,341.561,371.716Zm-34.157,0a3.4,3.4,0,1,0,3.4-3.406A3.4,3.4,0,0,0,307.4,371.716Zm-34.156,0a3.407,3.407,0,1,0,3.407-3.406A3.406,3.406,0,0,0,273.247,371.716Zm-34.152,0a3.4,3.4,0,1,0,3.4-3.406A3.4,3.4,0,0,0,239.1,371.716Zm-34.159,0a3.4,3.4,0,1,0,3.4-3.406A3.4,3.4,0,0,0,204.937,371.716Zm-34.159,0a3.4,3.4,0,1,0,3.406-3.406A3.406,3.406,0,0,0,170.778,371.716Zm-34.15,0a3.4,3.4,0,1,0,3.4-3.406A3.4,3.4,0,0,0,136.628,371.716Zm-34.159,0a3.4,3.4,0,1,0,3.4-3.406A3.4,3.4,0,0,0,102.47,371.716Zm-34.158,0a3.4,3.4,0,1,0,3.4-3.406A3.4,3.4,0,0,0,68.312,371.716Zm-34.153,0a3.4,3.4,0,1,0,3.4-3.406A3.4,3.4,0,0,0,34.159,371.716Zm461.107-21.659a3.4,3.4,0,1,0,3.4-3.4A3.4,3.4,0,0,0,495.266,350.057Zm-34.159,0a3.4,3.4,0,1,0,3.4-3.4A3.4,3.4,0,0,0,461.107,350.057Zm-34.16,0a3.407,3.407,0,1,0,3.409-3.4A3.4,3.4,0,0,0,426.947,350.057Zm-34.153,0a3.407,3.407,0,1,0,3.407-3.4A3.4,3.4,0,0,0,392.794,350.057Zm-34.154,0a3.4,3.4,0,1,0,3.4-3.4A3.4,3.4,0,0,0,358.64,350.057Zm-34.157,0a3.4,3.4,0,1,0,3.4-3.4A3.4,3.4,0,0,0,324.483,350.057Zm-34.156,0a3.4,3.4,0,1,0,3.4-3.4A3.4,3.4,0,0,0,290.327,350.057Zm-34.157,0a3.4,3.4,0,1,0,3.4-3.4A3.4,3.4,0,0,0,256.17,350.057Zm-34.154,0a3.4,3.4,0,1,0,3.4-3.4A3.4,3.4,0,0,0,222.016,350.057Zm-34.158,0a3.4,3.4,0,1,0,3.406-3.4A3.4,3.4,0,0,0,187.858,350.057Zm-34.157,0a3.4,3.4,0,1,0,3.4-3.4A3.4,3.4,0,0,0,153.7,350.057Zm-34.153,0a3.4,3.4,0,1,0,3.4-3.4A3.4,3.4,0,0,0,119.548,350.057Zm-34.157,0a3.406,3.406,0,1,0,3.407-3.4A3.4,3.4,0,0,0,85.391,350.057Zm-34.157,0a3.406,3.406,0,1,0,3.406-3.4A3.4,3.4,0,0,0,51.233,350.057Zm-34.159,0a3.405,3.405,0,1,0,3.41-3.4A3.4,3.4,0,0,0,17.075,350.057Zm461.108-21.672a3.407,3.407,0,1,0,3.409-3.406A3.406,3.406,0,0,0,478.183,328.385Zm-34.155,0a3.4,3.4,0,1,0,3.4-3.406A3.4,3.4,0,0,0,444.028,328.385Zm-34.157,0a3.406,3.406,0,1,0,3.406-3.406A3.408,3.408,0,0,0,409.871,328.385Zm-34.159,0a3.406,3.406,0,1,0,3.406-3.406A3.406,3.406,0,0,0,375.712,328.385Zm-34.151,0a3.4,3.4,0,1,0,3.407-3.406A3.405,3.405,0,0,0,341.561,328.385Zm-34.157,0a3.4,3.4,0,1,0,3.4-3.406A3.4,3.4,0,0,0,307.4,328.385Zm-34.156,0a3.407,3.407,0,1,0,3.407-3.406A3.405,3.405,0,0,0,273.247,328.385Zm-34.152,0a3.4,3.4,0,1,0,3.4-3.406A3.4,3.4,0,0,0,239.1,328.385Zm-34.159,0a3.4,3.4,0,1,0,3.4-3.406A3.4,3.4,0,0,0,204.937,328.385Zm-34.159,0a3.4,3.4,0,1,0,3.406-3.406A3.405,3.405,0,0,0,170.778,328.385Zm-34.15,0a3.4,3.4,0,1,0,3.4-3.406A3.4,3.4,0,0,0,136.628,328.385Zm-34.159,0a3.4,3.4,0,1,0,3.4-3.406A3.4,3.4,0,0,0,102.47,328.385Zm-34.158,0a3.4,3.4,0,1,0,3.4-3.406A3.4,3.4,0,0,0,68.312,328.385Zm-34.153,0a3.4,3.4,0,1,0,3.4-3.406A3.4,3.4,0,0,0,34.159,328.385Zm461.107-21.664a3.4,3.4,0,1,0,3.4-3.4A3.4,3.4,0,0,0,495.266,306.721Zm-34.159,0a3.4,3.4,0,1,0,3.4-3.4A3.4,3.4,0,0,0,461.107,306.721Zm-34.16,0a3.407,3.407,0,1,0,3.409-3.4A3.405,3.405,0,0,0,426.947,306.721Zm-34.153,0a3.407,3.407,0,1,0,3.407-3.4A3.405,3.405,0,0,0,392.794,306.721Zm-34.154,0a3.4,3.4,0,1,0,3.4-3.4A3.4,3.4,0,0,0,358.64,306.721Zm-34.157,0a3.4,3.4,0,1,0,3.4-3.4A3.4,3.4,0,0,0,324.483,306.721Zm-34.156,0a3.4,3.4,0,1,0,3.4-3.4A3.4,3.4,0,0,0,290.327,306.721Zm-34.157,0a3.4,3.4,0,1,0,3.4-3.4A3.4,3.4,0,0,0,256.17,306.721Zm-34.154,0a3.4,3.4,0,1,0,3.4-3.4A3.4,3.4,0,0,0,222.016,306.721Zm-34.158,0a3.4,3.4,0,1,0,3.406-3.4A3.4,3.4,0,0,0,187.858,306.721Zm-34.157,0a3.4,3.4,0,1,0,3.4-3.4A3.4,3.4,0,0,0,153.7,306.721Zm-34.153,0a3.4,3.4,0,1,0,3.4-3.4A3.4,3.4,0,0,0,119.548,306.721Zm-34.157,0a3.406,3.406,0,1,0,3.407-3.4A3.4,3.4,0,0,0,85.391,306.721Zm-34.157,0a3.406,3.406,0,1,0,3.406-3.4A3.406,3.406,0,0,0,51.233,306.721Zm-34.159,0a3.405,3.405,0,1,0,3.41-3.4A3.408,3.408,0,0,0,17.075,306.721Zm495.267-21.666a3.4,3.4,0,1,0,3.4-3.4A3.4,3.4,0,0,0,512.341,285.055Zm-34.159,0a3.407,3.407,0,1,0,3.409-3.4A3.407,3.407,0,0,0,478.183,285.055Zm-34.155,0a3.4,3.4,0,1,0,3.4-3.4A3.4,3.4,0,0,0,444.028,285.055Zm-34.157,0a3.406,3.406,0,1,0,3.406-3.4A3.41,3.41,0,0,0,409.871,285.055Zm-34.159,0a3.406,3.406,0,1,0,3.406-3.4A3.408,3.408,0,0,0,375.712,285.055Zm-34.151,0a3.4,3.4,0,1,0,3.407-3.4A3.407,3.407,0,0,0,341.561,285.055Zm-34.157,0a3.4,3.4,0,1,0,3.4-3.4A3.406,3.406,0,0,0,307.4,285.055Zm-34.156,0a3.407,3.407,0,1,0,3.407-3.4A3.407,3.407,0,0,0,273.247,285.055Zm-34.152,0a3.4,3.4,0,1,0,3.4-3.4A3.4,3.4,0,0,0,239.1,285.055Zm-34.159,0a3.4,3.4,0,1,0,3.4-3.4A3.405,3.405,0,0,0,204.937,285.055Zm-34.159,0a3.4,3.4,0,1,0,3.406-3.4A3.407,3.407,0,0,0,170.778,285.055Zm-34.15,0a3.4,3.4,0,1,0,3.4-3.4A3.4,3.4,0,0,0,136.628,285.055Zm-34.159,0a3.4,3.4,0,1,0,3.4-3.4A3.4,3.4,0,0,0,102.47,285.055Zm-34.158,0a3.4,3.4,0,1,0,3.4-3.4A3.406,3.406,0,0,0,68.312,285.055Zm-34.153,0a3.4,3.4,0,1,0,3.4-3.4A3.4,3.4,0,0,0,34.159,285.055ZM0,285.055a3.4,3.4,0,1,0,3.406-3.4A3.407,3.407,0,0,0,0,285.055Zm495.266-21.664a3.4,3.4,0,1,0,3.4-3.4A3.4,3.4,0,0,0,495.266,263.392Zm-34.159,0a3.4,3.4,0,1,0,3.4-3.4A3.4,3.4,0,0,0,461.107,263.392Zm-34.16,0a3.407,3.407,0,1,0,3.409-3.4A3.4,3.4,0,0,0,426.947,263.392Zm-34.153,0a3.407,3.407,0,1,0,3.407-3.4A3.4,3.4,0,0,0,392.794,263.392Zm-34.154,0a3.4,3.4,0,1,0,3.4-3.4A3.4,3.4,0,0,0,358.64,263.392Zm-34.157,0a3.4,3.4,0,1,0,3.4-3.4A3.4,3.4,0,0,0,324.483,263.392Zm-34.156,0a3.4,3.4,0,1,0,3.4-3.4A3.4,3.4,0,0,0,290.327,263.392Zm-34.157,0a3.4,3.4,0,1,0,3.4-3.4A3.4,3.4,0,0,0,256.17,263.392Zm-34.154,0a3.4,3.4,0,1,0,3.4-3.4A3.4,3.4,0,0,0,222.016,263.392Zm-34.158,0a3.405,3.405,0,1,0,3.406-3.4A3.4,3.4,0,0,0,187.858,263.392Zm-34.157,0a3.405,3.405,0,1,0,3.4-3.4A3.4,3.4,0,0,0,153.7,263.392Zm-34.153,0a3.4,3.4,0,1,0,3.4-3.4A3.395,3.395,0,0,0,119.548,263.392Zm-34.157,0a3.406,3.406,0,1,0,3.407-3.4A3.4,3.4,0,0,0,85.391,263.392Zm-34.157,0a3.406,3.406,0,1,0,3.406-3.4A3.4,3.4,0,0,0,51.233,263.392Zm-34.159,0a3.405,3.405,0,1,0,3.41-3.4A3.4,3.4,0,0,0,17.075,263.392Zm495.267-21.67a3.4,3.4,0,1,0,3.4-3.4A3.4,3.4,0,0,0,512.341,241.721Zm-34.159,0a3.407,3.407,0,1,0,3.409-3.4A3.405,3.405,0,0,0,478.183,241.721Zm-34.155,0a3.405,3.405,0,1,0,3.4-3.4A3.4,3.4,0,0,0,444.028,241.721Zm-34.157,0a3.406,3.406,0,1,0,3.406-3.4A3.408,3.408,0,0,0,409.871,241.721Zm-34.159,0a3.406,3.406,0,1,0,3.406-3.4A3.405,3.405,0,0,0,375.712,241.721Zm-34.151,0a3.4,3.4,0,1,0,3.407-3.4A3.4,3.4,0,0,0,341.561,241.721Zm-34.157,0a3.4,3.4,0,1,0,3.4-3.4A3.4,3.4,0,0,0,307.4,241.721Zm-34.156,0a3.407,3.407,0,1,0,3.407-3.4A3.4,3.4,0,0,0,273.247,241.721Zm-34.152,0a3.4,3.4,0,1,0,3.4-3.4A3.4,3.4,0,0,0,239.1,241.721Zm-34.159,0a3.4,3.4,0,1,0,3.4-3.4A3.4,3.4,0,0,0,204.937,241.721Zm-34.159,0a3.4,3.4,0,1,0,3.406-3.4A3.4,3.4,0,0,0,170.778,241.721Zm-34.15,0a3.4,3.4,0,1,0,3.4-3.4A3.4,3.4,0,0,0,136.628,241.721Zm-34.159,0a3.4,3.4,0,1,0,3.4-3.4A3.4,3.4,0,0,0,102.47,241.721Zm-34.158,0a3.4,3.4,0,1,0,3.4-3.4A3.4,3.4,0,0,0,68.312,241.721Zm-34.153,0a3.4,3.4,0,1,0,3.4-3.4A3.4,3.4,0,0,0,34.159,241.721ZM0,241.721a3.4,3.4,0,1,0,3.406-3.4A3.4,3.4,0,0,0,0,241.721Zm495.266-21.658a3.4,3.4,0,1,0,3.4-3.409A3.4,3.4,0,0,0,495.266,220.063Zm-34.159,0a3.4,3.4,0,1,0,3.4-3.409A3.4,3.4,0,0,0,461.107,220.063Zm-34.16,0a3.407,3.407,0,1,0,3.409-3.409A3.4,3.4,0,0,0,426.947,220.063Zm-34.153,0a3.407,3.407,0,1,0,3.407-3.409A3.4,3.4,0,0,0,392.794,220.063Zm-34.154,0a3.4,3.4,0,1,0,3.4-3.409A3.4,3.4,0,0,0,358.64,220.063Zm-34.157,0a3.4,3.4,0,1,0,3.4-3.409A3.4,3.4,0,0,0,324.483,220.063Zm-34.156,0a3.4,3.4,0,1,0,3.4-3.409A3.4,3.4,0,0,0,290.327,220.063Zm-34.157,0a3.4,3.4,0,1,0,3.4-3.409A3.4,3.4,0,0,0,256.17,220.063Zm-34.154,0a3.4,3.4,0,1,0,3.4-3.409A3.4,3.4,0,0,0,222.016,220.063Zm-34.158,0a3.405,3.405,0,1,0,3.406-3.409A3.4,3.4,0,0,0,187.858,220.063Zm-34.157,0a3.405,3.405,0,1,0,3.4-3.409A3.4,3.4,0,0,0,153.7,220.063Zm-34.153,0a3.4,3.4,0,1,0,3.4-3.409A3.4,3.4,0,0,0,119.548,220.063Zm-34.157,0a3.406,3.406,0,1,0,3.407-3.409A3.4,3.4,0,0,0,85.391,220.063Zm-34.157,0a3.406,3.406,0,1,0,3.406-3.409A3.4,3.4,0,0,0,51.233,220.063Zm-34.159,0a3.405,3.405,0,1,0,3.41-3.409A3.4,3.4,0,0,0,17.075,220.063ZM478.183,198.39a3.407,3.407,0,1,0,3.409-3.4A3.408,3.408,0,0,0,478.183,198.39Zm-34.155,0a3.4,3.4,0,1,0,3.4-3.4A3.405,3.405,0,0,0,444.028,198.39Zm-34.157,0a3.406,3.406,0,1,0,3.406-3.4A3.41,3.41,0,0,0,409.871,198.39Zm-34.159,0a3.406,3.406,0,1,0,3.406-3.4A3.408,3.408,0,0,0,375.712,198.39Zm-34.151,0a3.4,3.4,0,1,0,3.407-3.4A3.407,3.407,0,0,0,341.561,198.39Zm-34.157,0a3.4,3.4,0,1,0,3.4-3.4A3.406,3.406,0,0,0,307.4,198.39Zm-34.156,0a3.407,3.407,0,1,0,3.407-3.4A3.407,3.407,0,0,0,273.247,198.39Zm-34.152,0a3.4,3.4,0,1,0,3.4-3.4A3.4,3.4,0,0,0,239.1,198.39Zm-34.159,0a3.4,3.4,0,1,0,3.4-3.4A3.405,3.405,0,0,0,204.937,198.39Zm-34.159,0a3.4,3.4,0,1,0,3.406-3.4A3.407,3.407,0,0,0,170.778,198.39Zm-34.15,0a3.4,3.4,0,1,0,3.4-3.4A3.4,3.4,0,0,0,136.628,198.39Zm-34.159,0a3.4,3.4,0,1,0,3.4-3.4A3.4,3.4,0,0,0,102.47,198.39Zm-34.158,0a3.4,3.4,0,1,0,3.4-3.4A3.406,3.406,0,0,0,68.312,198.39Zm-34.153,0a3.4,3.4,0,1,0,3.4-3.4A3.4,3.4,0,0,0,34.159,198.39Zm461.107-21.658a3.4,3.4,0,1,0,3.4-3.407A3.4,3.4,0,0,0,495.266,176.732Zm-34.159,0a3.4,3.4,0,1,0,3.4-3.407A3.4,3.4,0,0,0,461.107,176.732Zm-34.16,0a3.407,3.407,0,1,0,3.409-3.407A3.4,3.4,0,0,0,426.947,176.732Zm-34.153,0a3.407,3.407,0,1,0,3.407-3.407A3.4,3.4,0,0,0,392.794,176.732Zm-34.154,0a3.4,3.4,0,1,0,3.4-3.407A3.4,3.4,0,0,0,358.64,176.732Zm-34.157,0a3.4,3.4,0,1,0,3.4-3.407A3.4,3.4,0,0,0,324.483,176.732Zm-34.156,0a3.4,3.4,0,1,0,3.4-3.407A3.4,3.4,0,0,0,290.327,176.732Zm-34.157,0a3.4,3.4,0,1,0,3.4-3.407A3.4,3.4,0,0,0,256.17,176.732Zm-34.154,0a3.4,3.4,0,1,0,3.4-3.407A3.4,3.4,0,0,0,222.016,176.732Zm-34.158,0a3.4,3.4,0,1,0,3.406-3.407A3.4,3.4,0,0,0,187.858,176.732Zm-34.157,0a3.4,3.4,0,1,0,3.4-3.407A3.4,3.4,0,0,0,153.7,176.732Zm-34.153,0a3.4,3.4,0,1,0,3.4-3.407A3.4,3.4,0,0,0,119.548,176.732Zm-34.157,0a3.406,3.406,0,1,0,3.407-3.407A3.4,3.4,0,0,0,85.391,176.732Zm-34.157,0a3.406,3.406,0,1,0,3.406-3.407A3.4,3.4,0,0,0,51.233,176.732Zm-34.159,0a3.405,3.405,0,1,0,3.41-3.407A3.406,3.406,0,0,0,17.075,176.732Zm461.108-21.671a3.407,3.407,0,1,0,3.409-3.4A3.405,3.405,0,0,0,478.183,155.062Zm-34.155,0a3.4,3.4,0,1,0,3.4-3.4A3.4,3.4,0,0,0,444.028,155.062Zm-34.157,0a3.406,3.406,0,1,0,3.406-3.4A3.408,3.408,0,0,0,409.871,155.062Zm-34.159,0a3.406,3.406,0,1,0,3.406-3.4A3.405,3.405,0,0,0,375.712,155.062Zm-34.151,0a3.4,3.4,0,1,0,3.407-3.4A3.4,3.4,0,0,0,341.561,155.062Zm-34.157,0a3.4,3.4,0,1,0,3.4-3.4A3.4,3.4,0,0,0,307.4,155.062Zm-34.156,0a3.407,3.407,0,1,0,3.407-3.4A3.4,3.4,0,0,0,273.247,155.062Zm-34.152,0a3.4,3.4,0,1,0,3.4-3.4A3.4,3.4,0,0,0,239.1,155.062Zm-34.159,0a3.4,3.4,0,1,0,3.4-3.4A3.4,3.4,0,0,0,204.937,155.062Zm-34.159,0a3.4,3.4,0,1,0,3.406-3.4A3.4,3.4,0,0,0,170.778,155.062Zm-34.15,0a3.4,3.4,0,1,0,3.4-3.4A3.4,3.4,0,0,0,136.628,155.062Zm-34.159,0a3.4,3.4,0,1,0,3.4-3.4A3.4,3.4,0,0,0,102.47,155.062Zm-34.158,0a3.4,3.4,0,1,0,3.4-3.4A3.4,3.4,0,0,0,68.312,155.062Zm-34.153,0a3.4,3.4,0,1,0,3.4-3.4A3.4,3.4,0,0,0,34.159,155.062ZM461.107,133.4a3.4,3.4,0,1,0,3.4-3.406A3.4,3.4,0,0,0,461.107,133.4Zm-34.16,0a3.407,3.407,0,1,0,3.409-3.406A3.4,3.4,0,0,0,426.947,133.4Zm-34.153,0a3.407,3.407,0,1,0,3.407-3.406A3.4,3.4,0,0,0,392.794,133.4Zm-34.154,0a3.4,3.4,0,1,0,3.4-3.406A3.4,3.4,0,0,0,358.64,133.4Zm-34.157,0a3.4,3.4,0,1,0,3.4-3.406A3.4,3.4,0,0,0,324.483,133.4Zm-34.156,0a3.4,3.4,0,1,0,3.4-3.406A3.4,3.4,0,0,0,290.327,133.4Zm-34.157,0a3.4,3.4,0,1,0,3.4-3.406A3.4,3.4,0,0,0,256.17,133.4Zm-34.154,0a3.4,3.4,0,1,0,3.4-3.406A3.4,3.4,0,0,0,222.016,133.4Zm-34.158,0a3.4,3.4,0,1,0,3.406-3.406A3.4,3.4,0,0,0,187.858,133.4Zm-34.157,0a3.4,3.4,0,1,0,3.4-3.406A3.4,3.4,0,0,0,153.7,133.4Zm-34.153,0a3.4,3.4,0,1,0,3.4-3.406A3.4,3.4,0,0,0,119.548,133.4Zm-34.157,0a3.406,3.406,0,1,0,3.407-3.406A3.4,3.4,0,0,0,85.391,133.4Zm-34.157,0a3.406,3.406,0,1,0,3.406-3.406A3.4,3.4,0,0,0,51.233,133.4ZM444.028,111.73a3.4,3.4,0,1,0,3.4-3.406A3.4,3.4,0,0,0,444.028,111.73Zm-34.157,0a3.406,3.406,0,1,0,3.406-3.406A3.407,3.407,0,0,0,409.871,111.73Zm-34.159,0a3.406,3.406,0,1,0,3.406-3.406A3.4,3.4,0,0,0,375.712,111.73Zm-34.151,0a3.4,3.4,0,1,0,3.407-3.406A3.4,3.4,0,0,0,341.561,111.73Zm-34.157,0a3.4,3.4,0,1,0,3.4-3.406A3.4,3.4,0,0,0,307.4,111.73Zm-34.156,0a3.407,3.407,0,1,0,3.407-3.406A3.4,3.4,0,0,0,273.247,111.73Zm-34.152,0a3.4,3.4,0,1,0,3.4-3.406A3.4,3.4,0,0,0,239.1,111.73Zm-34.159,0a3.4,3.4,0,1,0,3.4-3.406A3.4,3.4,0,0,0,204.937,111.73Zm-34.159,0a3.4,3.4,0,1,0,3.406-3.406A3.4,3.4,0,0,0,170.778,111.73Zm-34.15,0a3.4,3.4,0,1,0,3.4-3.406A3.4,3.4,0,0,0,136.628,111.73Zm-34.159,0a3.4,3.4,0,1,0,3.4-3.406A3.4,3.4,0,0,0,102.47,111.73Zm-34.158,0a3.4,3.4,0,1,0,3.4-3.406A3.4,3.4,0,0,0,68.312,111.73ZM426.947,90.068a3.407,3.407,0,1,0,3.409-3.4A3.4,3.4,0,0,0,426.947,90.068Zm-34.153,0a3.407,3.407,0,1,0,3.407-3.4A3.4,3.4,0,0,0,392.794,90.068Zm-34.154,0a3.4,3.4,0,1,0,3.4-3.4A3.393,3.393,0,0,0,358.64,90.068Zm-34.157,0a3.4,3.4,0,1,0,3.4-3.4A3.4,3.4,0,0,0,324.483,90.068Zm-34.156,0a3.4,3.4,0,1,0,3.4-3.4A3.395,3.395,0,0,0,290.327,90.068Zm-34.157,0a3.4,3.4,0,1,0,3.4-3.4A3.4,3.4,0,0,0,256.17,90.068Zm-34.154,0a3.4,3.4,0,1,0,3.4-3.4A3.394,3.394,0,0,0,222.016,90.068Zm-34.158,0a3.4,3.4,0,1,0,3.406-3.4A3.4,3.4,0,0,0,187.858,90.068Zm-34.157,0a3.4,3.4,0,1,0,3.4-3.4A3.4,3.4,0,0,0,153.7,90.068Zm-34.153,0a3.4,3.4,0,1,0,3.4-3.4A3.393,3.393,0,0,0,119.548,90.068Zm-34.157,0a3.406,3.406,0,1,0,3.407-3.4A3.4,3.4,0,0,0,85.391,90.068ZM409.871,68.4a3.406,3.406,0,1,0,3.406-3.4A3.405,3.405,0,0,0,409.871,68.4Zm-34.159,0a3.406,3.406,0,1,0,3.406-3.4A3.4,3.4,0,0,0,375.712,68.4Zm-34.151,0a3.4,3.4,0,1,0,3.407-3.4A3.4,3.4,0,0,0,341.561,68.4Zm-34.157,0a3.4,3.4,0,1,0,3.4-3.4A3.4,3.4,0,0,0,307.4,68.4Zm-34.156,0a3.407,3.407,0,1,0,3.407-3.4A3.4,3.4,0,0,0,273.247,68.4Zm-34.152,0a3.4,3.4,0,1,0,3.4-3.4A3.4,3.4,0,0,0,239.1,68.4Zm-34.159,0a3.4,3.4,0,1,0,3.4-3.4A3.4,3.4,0,0,0,204.937,68.4Zm-34.159,0a3.4,3.4,0,1,0,3.406-3.4A3.4,3.4,0,0,0,170.778,68.4Zm-34.15,0a3.4,3.4,0,1,0,3.4-3.4A3.4,3.4,0,0,0,136.628,68.4Zm-34.159,0a3.4,3.4,0,1,0,3.4-3.4A3.4,3.4,0,0,0,102.47,68.4ZM392.794,46.736a3.407,3.407,0,1,0,3.407-3.4A3.4,3.4,0,0,0,392.794,46.736Zm-34.154,0a3.4,3.4,0,1,0,3.4-3.4A3.393,3.393,0,0,0,358.64,46.736Zm-34.157,0a3.4,3.4,0,1,0,3.4-3.4A3.4,3.4,0,0,0,324.483,46.736Zm-34.156,0a3.4,3.4,0,1,0,3.4-3.4A3.395,3.395,0,0,0,290.327,46.736Zm-34.157,0a3.4,3.4,0,1,0,3.4-3.4A3.4,3.4,0,0,0,256.17,46.736Zm-34.154,0a3.4,3.4,0,1,0,3.4-3.4A3.394,3.394,0,0,0,222.016,46.736Zm-34.158,0a3.405,3.405,0,1,0,3.406-3.4A3.4,3.4,0,0,0,187.858,46.736Zm-34.157,0a3.405,3.405,0,1,0,3.4-3.4A3.4,3.4,0,0,0,153.7,46.736Zm-34.153,0a3.4,3.4,0,1,0,3.4-3.4A3.393,3.393,0,0,0,119.548,46.736ZM375.712,25.065a3.406,3.406,0,1,0,3.406-3.4A3.407,3.407,0,0,0,375.712,25.065Zm-34.151,0a3.4,3.4,0,1,0,3.407-3.4A3.406,3.406,0,0,0,341.561,25.065Zm-34.157,0a3.4,3.4,0,1,0,3.4-3.4A3.4,3.4,0,0,0,307.4,25.065Zm-34.156,0a3.407,3.407,0,1,0,3.407-3.4A3.406,3.406,0,0,0,273.247,25.065Zm-34.152,0a3.4,3.4,0,1,0,3.4-3.4A3.4,3.4,0,0,0,239.1,25.065Zm-34.159,0a3.4,3.4,0,1,0,3.4-3.4A3.4,3.4,0,0,0,204.937,25.065Zm-34.159,0a3.4,3.4,0,1,0,3.406-3.4A3.406,3.406,0,0,0,170.778,25.065Zm-34.15,0a3.4,3.4,0,1,0,3.4-3.4A3.4,3.4,0,0,0,136.628,25.065ZM324.483,3.406A3.4,3.4,0,1,0,327.887,0,3.4,3.4,0,0,0,324.483,3.406Zm-34.156,0A3.4,3.4,0,1,0,293.732,0,3.4,3.4,0,0,0,290.327,3.406Zm-34.157,0A3.4,3.4,0,1,0,259.571,0,3.4,3.4,0,0,0,256.17,3.406Zm-34.154,0A3.4,3.4,0,1,0,225.417,0,3.4,3.4,0,0,0,222.016,3.406Zm-34.158,0A3.4,3.4,0,1,0,191.264,0,3.4,3.4,0,0,0,187.858,3.406Z" transform="translate(-99.305 474.413)" fill="url(#linear-gradient-5)"/>
      <g id="Group_689" data-name="Group 689" transform="translate(-97.597 -294.044)" opacity="0.5">
        <g id="Group_688" data-name="Group 688">
          <path id="Path_3044" data-name="Path 3044" d="M0,97.03a97.032,97.032,0,1,1,97.03,97.033A97.03,97.03,0,0,1,0,97.03Z" transform="translate(276.57 276.57)" fill="none" stroke="#ffd063" stroke-miterlimit="10" stroke-width="4.13"/>
          <path id="Path_3045" data-name="Path 3045" d="M241.818,120.907A120.909,120.909,0,1,1,120.908,0,120.908,120.908,0,0,1,241.818,120.907Z" transform="translate(252.692 252.692)" fill="none" stroke="#ffd063" stroke-miterlimit="10" stroke-width="3.709"/>
          <path id="Path_3046" data-name="Path 3046" d="M289.574,144.785A144.787,144.787,0,1,1,144.785,0,144.786,144.786,0,0,1,289.574,144.785Z" transform="translate(228.814 228.815)" fill="none" stroke="#ffd063" stroke-miterlimit="10" stroke-width="3.287"/>
          <circle id="Ellipse_62" data-name="Ellipse 62" cx="168.664" cy="168.664" r="168.664" transform="translate(135.073 373.6) rotate(-45)" fill="none" stroke="#ffd063" stroke-miterlimit="10" stroke-width="2.866"/>
          <circle id="Ellipse_63" data-name="Ellipse 63" cx="192.542" cy="192.542" r="192.542" transform="translate(101.305 373.6) rotate(-45)" fill="none" stroke="#ffd063" stroke-miterlimit="10" stroke-width="2.445"/>
          <circle id="Ellipse_64" data-name="Ellipse 64" cx="216.42" cy="216.42" r="216.42" transform="translate(67.537 373.6) rotate(-45)" fill="none" stroke="#ffd063" stroke-miterlimit="10" stroke-width="2.023"/>
          <circle id="Ellipse_65" data-name="Ellipse 65" cx="240.298" cy="240.298" r="240.298" transform="translate(33.768 373.6) rotate(-45)" fill="none" stroke="#ffd063" stroke-miterlimit="10" stroke-width="1.602"/>
          <circle id="Ellipse_66" data-name="Ellipse 66" cx="264.175" cy="264.175" r="264.175" transform="translate(0 373.6) rotate(-45)" fill="none" stroke="#ffd063" stroke-miterlimit="10" stroke-width="1.181"/>
          <circle id="Ellipse_67" data-name="Ellipse 67" cx="288.053" cy="288.053" r="288.053" transform="translate(85.547 85.547)" fill="none" stroke="#ffd063" stroke-miterlimit="10" stroke-width="0.76"/>
        </g>
      </g>
      <g id="Group_691" data-name="Group 691" transform="translate(-332.702 235.541)" opacity="0.5">
        <g id="Group_690" data-name="Group 690">
          <path id="Path_3047" data-name="Path 3047" d="M0,127.9A127.9,127.9,0,1,1,127.9,255.8,127.9,127.9,0,0,1,0,127.9Z" transform="translate(409.062 409.061)" fill="none" stroke="#ffd063" stroke-miterlimit="10" stroke-width="5.444"/>
          <path id="Path_3048" data-name="Path 3048" d="M318.744,159.371A159.372,159.372,0,1,1,159.37,0,159.372,159.372,0,0,1,318.744,159.371Z" transform="translate(377.588 377.588)" fill="none" stroke="#ffd063" stroke-miterlimit="10" stroke-width="4.888"/>
          <path id="Path_3049" data-name="Path 3049" d="M381.691,190.845c0,105.4-85.444,190.846-190.847,190.846S0,296.247,0,190.845,85.443,0,190.844,0,381.691,85.442,381.691,190.845Z" transform="translate(346.115 346.114)" fill="none" stroke="#ffd063" stroke-miterlimit="10" stroke-width="4.333"/>
          <circle id="Ellipse_68" data-name="Ellipse 68" cx="222.319" cy="222.319" r="222.319" transform="translate(222.553 536.959) rotate(-45)" fill="none" stroke="#ffd063" stroke-miterlimit="10" stroke-width="3.778"/>
          <circle id="Ellipse_69" data-name="Ellipse 69" cx="253.792" cy="253.792" r="253.792" transform="translate(283.167 283.167)" fill="none" stroke="#ffd063" stroke-miterlimit="10" stroke-width="3.222"/>
          <circle id="Ellipse_70" data-name="Ellipse 70" cx="285.266" cy="285.266" r="285.266" transform="translate(133.532 536.959) rotate(-45)" fill="none" stroke="#ffd063" stroke-miterlimit="10" stroke-width="2.667"/>
          <circle id="Ellipse_71" data-name="Ellipse 71" cx="316.739" cy="316.739" r="316.739" transform="translate(89.022 536.959) rotate(-45)" fill="none" stroke="#ffd063" stroke-miterlimit="10" stroke-width="2.112"/>
          <circle id="Ellipse_72" data-name="Ellipse 72" cx="348.213" cy="348.213" r="348.213" transform="translate(44.511 536.959) rotate(-45)" fill="none" stroke="#ffd063" stroke-miterlimit="10" stroke-width="1.557"/>
          <circle id="Ellipse_73" data-name="Ellipse 73" cx="379.687" cy="379.687" r="379.687" transform="translate(0 536.958) rotate(-45)" fill="none" stroke="#ffd063" stroke-miterlimit="10" stroke-width="1.001"/>
        </g>
      </g>
      <g id="Group_693" data-name="Group 693" transform="translate(840.875 256.984)" opacity="0.5">
        <g id="Group_692" data-name="Group 692">
          <path id="Path_3050" data-name="Path 3050" d="M0,69.311a69.312,69.312,0,1,1,69.311,69.314A69.311,69.311,0,0,1,0,69.311Z" transform="translate(136.455 136.453)" fill="none" stroke="#ffd063" stroke-miterlimit="10" stroke-width="3.097"/>
          <path id="Path_3051" data-name="Path 3051" d="M172.736,86.368A86.368,86.368,0,1,1,86.368,0,86.369,86.369,0,0,1,172.736,86.368Z" transform="translate(119.398 119.396)" fill="none" stroke="#ffd063" stroke-miterlimit="10" stroke-width="2.778"/>
          <path id="Path_3052" data-name="Path 3052" d="M206.849,103.424A103.425,103.425,0,1,1,103.424,0,103.425,103.425,0,0,1,206.849,103.424Z" transform="translate(102.341 102.34)" fill="none" stroke="#ffd063" stroke-miterlimit="10" stroke-width="2.459"/>
          <path id="Path_3053" data-name="Path 3053" d="M240.963,120.481A120.482,120.482,0,1,1,120.482,0,120.482,120.482,0,0,1,240.963,120.481Z" transform="translate(85.284 85.283)" fill="none" stroke="#ffd063" stroke-miterlimit="10" stroke-width="2.139"/>
          <path id="Path_3054" data-name="Path 3054" d="M275.076,137.537A137.538,137.538,0,1,1,137.538,0,137.539,137.539,0,0,1,275.076,137.537Z" transform="translate(68.227 68.227)" fill="none" stroke="#ffd063" stroke-miterlimit="10" stroke-width="1.82"/>
          <path id="Path_3055" data-name="Path 3055" d="M309.19,154.594A154.595,154.595,0,1,1,154.6,0,154.595,154.595,0,0,1,309.19,154.594Z" transform="translate(51.17 51.17)" fill="none" stroke="#ffd063" stroke-miterlimit="10" stroke-width="1.501"/>
          <path id="Path_3056" data-name="Path 3056" d="M343.3,171.651A171.651,171.651,0,1,1,171.652,0,171.652,171.652,0,0,1,343.3,171.651Z" transform="translate(34.114 34.113)" fill="none" stroke="#ffd063" stroke-miterlimit="10" stroke-width="1.181"/>
          <path id="Path_3057" data-name="Path 3057" d="M377.416,188.708c0,104.222-84.486,188.71-188.707,188.71S0,292.929,0,188.708,84.487,0,188.708,0,377.416,84.487,377.416,188.708Z" transform="translate(17.057 17.057)" fill="none" stroke="#ffd063" stroke-miterlimit="10" stroke-width="0.862"/>
          <path id="Path_3058" data-name="Path 3058" d="M0,205.764C0,92.123,92.124,0,205.766,0S411.529,92.123,411.529,205.764,319.408,411.531,205.766,411.531,0,319.406,0,205.764Z" fill="none" stroke="#ffd063" stroke-miterlimit="10" stroke-width="0.543"/>
        </g>
      </g>
      <g id="Group_695" data-name="Group 695" transform="translate(491.858 -156.801)" opacity="0.5">
        <g id="Group_694" data-name="Group 694">
          <line id="Line_1" data-name="Line 1" x2="97.174" transform="translate(0 702.961)" fill="none" stroke="#ffd063" stroke-miterlimit="10" stroke-width="0.305"/>
          <line id="Line_2" data-name="Line 2" x2="97.174" transform="translate(13.784 689.177)" fill="none" stroke="#ffd063" stroke-miterlimit="10" stroke-width="0.412"/>
          <line id="Line_3" data-name="Line 3" x2="97.174" transform="translate(27.567 675.393)" fill="none" stroke="#ffd063" stroke-miterlimit="10" stroke-width="0.52"/>
          <line id="Line_4" data-name="Line 4" x2="97.174" transform="translate(41.351 661.61)" fill="none" stroke="#ffd063" stroke-miterlimit="10" stroke-width="0.627"/>
          <line id="Line_5" data-name="Line 5" x2="97.173" transform="translate(55.134 647.826)" fill="none" stroke="#ffd063" stroke-miterlimit="10" stroke-width="0.735"/>
          <line id="Line_6" data-name="Line 6" x2="97.173" transform="translate(68.918 634.043)" fill="none" stroke="#ffd063" stroke-miterlimit="10" stroke-width="0.842"/>
          <line id="Line_7" data-name="Line 7" x2="97.173" transform="translate(82.701 620.259)" fill="none" stroke="#ffd063" stroke-miterlimit="10" stroke-width="0.949"/>
          <line id="Line_8" data-name="Line 8" x2="97.173" transform="translate(96.485 606.476)" fill="none" stroke="#ffd063" stroke-miterlimit="10" stroke-width="1.057"/>
          <line id="Line_9" data-name="Line 9" x2="97.173" transform="translate(110.268 592.692)" fill="none" stroke="#ffd063" stroke-miterlimit="10" stroke-width="1.164"/>
          <line id="Line_10" data-name="Line 10" x2="97.173" transform="translate(124.052 578.909)" fill="none" stroke="#ffd063" stroke-miterlimit="10" stroke-width="1.271"/>
          <line id="Line_11" data-name="Line 11" x2="97.173" transform="translate(137.835 565.125)" fill="none" stroke="#ffd063" stroke-miterlimit="10" stroke-width="1.379"/>
          <line id="Line_12" data-name="Line 12" x2="97.173" transform="translate(151.619 551.342)" fill="none" stroke="#ffd063" stroke-miterlimit="10" stroke-width="1.486"/>
          <line id="Line_13" data-name="Line 13" x2="97.173" transform="translate(165.403 537.558)" fill="none" stroke="#ffd063" stroke-miterlimit="10" stroke-width="1.593"/>
          <line id="Line_14" data-name="Line 14" x2="97.173" transform="translate(179.186 523.775)" fill="none" stroke="#ffd063" stroke-miterlimit="10" stroke-width="1.701"/>
          <line id="Line_15" data-name="Line 15" x2="97.173" transform="translate(192.97 509.991)" fill="none" stroke="#ffd063" stroke-miterlimit="10" stroke-width="1.808"/>
          <line id="Line_16" data-name="Line 16" x2="97.173" transform="translate(206.753 496.207)" fill="none" stroke="#ffd063" stroke-miterlimit="10" stroke-width="1.915"/>
          <line id="Line_17" data-name="Line 17" x2="97.173" transform="translate(220.537 482.424)" fill="none" stroke="#ffd063" stroke-miterlimit="10" stroke-width="2.023"/>
          <line id="Line_18" data-name="Line 18" x2="97.173" transform="translate(234.32 468.64)" fill="none" stroke="#ffd063" stroke-miterlimit="10" stroke-width="2.13"/>
          <line id="Line_19" data-name="Line 19" x2="97.173" transform="translate(248.104 454.857)" fill="none" stroke="#ffd063" stroke-miterlimit="10" stroke-width="2.238"/>
          <line id="Line_20" data-name="Line 20" x2="97.173" transform="translate(261.887 441.073)" fill="none" stroke="#ffd063" stroke-miterlimit="10" stroke-width="2.345"/>
          <line id="Line_21" data-name="Line 21" x2="97.173" transform="translate(275.671 427.29)" fill="none" stroke="#ffd063" stroke-miterlimit="10" stroke-width="2.452"/>
          <line id="Line_22" data-name="Line 22" x2="97.173" transform="translate(289.454 413.506)" fill="none" stroke="#ffd063" stroke-miterlimit="10" stroke-width="2.56"/>
          <line id="Line_23" data-name="Line 23" x2="97.173" transform="translate(303.238 399.723)" fill="none" stroke="#ffd063" stroke-miterlimit="10" stroke-width="2.667"/>
          <line id="Line_24" data-name="Line 24" x2="97.173" transform="translate(317.021 385.939)" fill="none" stroke="#ffd063" stroke-miterlimit="10" stroke-width="2.774"/>
          <line id="Line_25" data-name="Line 25" x2="97.173" transform="translate(330.805 372.156)" fill="none" stroke="#ffd063" stroke-miterlimit="10" stroke-width="2.882"/>
          <line id="Line_26" data-name="Line 26" x2="97.173" transform="translate(344.589 358.372)" fill="none" stroke="#ffd063" stroke-miterlimit="10" stroke-width="2.989"/>
          <line id="Line_27" data-name="Line 27" x2="97.173" transform="translate(358.372 344.589)" fill="none" stroke="#ffd063" stroke-miterlimit="10" stroke-width="3.096"/>
          <line id="Line_28" data-name="Line 28" x2="97.173" transform="translate(372.156 330.805)" fill="none" stroke="#ffd063" stroke-miterlimit="10" stroke-width="3.204"/>
          <line id="Line_29" data-name="Line 29" x2="97.173" transform="translate(385.939 317.021)" fill="none" stroke="#ffd063" stroke-miterlimit="10" stroke-width="3.311"/>
          <line id="Line_30" data-name="Line 30" x2="97.173" transform="translate(399.723 303.238)" fill="none" stroke="#ffd063" stroke-miterlimit="10" stroke-width="3.419"/>
          <line id="Line_31" data-name="Line 31" x2="97.173" transform="translate(413.506 289.454)" fill="none" stroke="#ffd063" stroke-miterlimit="10" stroke-width="3.526"/>
          <line id="Line_32" data-name="Line 32" x2="97.173" transform="translate(427.29 275.671)" fill="none" stroke="#ffd063" stroke-miterlimit="10" stroke-width="3.633"/>
          <line id="Line_33" data-name="Line 33" x2="97.173" transform="translate(441.073 261.887)" fill="none" stroke="#ffd063" stroke-miterlimit="10" stroke-width="3.741"/>
          <line id="Line_34" data-name="Line 34" x2="97.173" transform="translate(454.857 248.104)" fill="none" stroke="#ffd063" stroke-miterlimit="10" stroke-width="3.848"/>
          <line id="Line_35" data-name="Line 35" x2="97.173" transform="translate(468.641 234.32)" fill="none" stroke="#ffd063" stroke-miterlimit="10" stroke-width="3.955"/>
          <line id="Line_36" data-name="Line 36" x2="97.173" transform="translate(482.424 220.537)" fill="none" stroke="#ffd063" stroke-miterlimit="10" stroke-width="4.063"/>
          <line id="Line_37" data-name="Line 37" x2="97.173" transform="translate(496.208 206.753)" fill="none" stroke="#ffd063" stroke-miterlimit="10" stroke-width="4.17"/>
          <line id="Line_38" data-name="Line 38" x2="97.173" transform="translate(509.991 192.97)" fill="none" stroke="#ffd063" stroke-miterlimit="10" stroke-width="4.277"/>
          <line id="Line_39" data-name="Line 39" x2="97.173" transform="translate(523.775 179.186)" fill="none" stroke="#ffd063" stroke-miterlimit="10" stroke-width="4.385"/>
          <line id="Line_40" data-name="Line 40" x2="97.173" transform="translate(537.558 165.403)" fill="none" stroke="#ffd063" stroke-miterlimit="10" stroke-width="4.492"/>
          <line id="Line_41" data-name="Line 41" x2="97.173" transform="translate(551.342 151.619)" fill="none" stroke="#ffd063" stroke-miterlimit="10" stroke-width="4.599"/>
          <line id="Line_42" data-name="Line 42" x2="97.173" transform="translate(565.125 137.835)" fill="none" stroke="#ffd063" stroke-miterlimit="10" stroke-width="4.707"/>
          <line id="Line_43" data-name="Line 43" x2="97.173" transform="translate(578.909 124.052)" fill="none" stroke="#ffd063" stroke-miterlimit="10" stroke-width="4.814"/>
          <line id="Line_44" data-name="Line 44" x2="97.173" transform="translate(592.692 110.268)" fill="none" stroke="#ffd063" stroke-miterlimit="10" stroke-width="4.922"/>
          <line id="Line_45" data-name="Line 45" x2="97.173" transform="translate(606.476 96.485)" fill="none" stroke="#ffd063" stroke-miterlimit="10" stroke-width="5.029"/>
          <line id="Line_46" data-name="Line 46" x2="97.173" transform="translate(620.259 82.701)" fill="none" stroke="#ffd063" stroke-miterlimit="10" stroke-width="5.136"/>
          <line id="Line_47" data-name="Line 47" x2="97.173" transform="translate(634.043 68.918)" fill="none" stroke="#ffd063" stroke-miterlimit="10" stroke-width="5.244"/>
          <line id="Line_48" data-name="Line 48" x2="97.173" transform="translate(647.827 55.134)" fill="none" stroke="#ffd063" stroke-miterlimit="10" stroke-width="5.351"/>
          <line id="Line_49" data-name="Line 49" x2="97.173" transform="translate(661.61 41.351)" fill="none" stroke="#ffd063" stroke-miterlimit="10" stroke-width="5.458"/>
          <line id="Line_50" data-name="Line 50" x2="97.173" transform="translate(675.394 27.567)" fill="none" stroke="#ffd063" stroke-miterlimit="10" stroke-width="5.566"/>
          <line id="Line_51" data-name="Line 51" x2="97.173" transform="translate(689.177 13.784)" fill="none" stroke="#ffd063" stroke-miterlimit="10" stroke-width="5.673"/>
          <line id="Line_52" data-name="Line 52" x2="97.173" transform="translate(702.961)" fill="none" stroke="#ffd063" stroke-miterlimit="10" stroke-width="5.78"/>
        </g>
      </g>
      <g id="Group_697" data-name="Group 697" transform="translate(-424.959 25.095)" opacity="0.5">
        <g id="Group_696" data-name="Group 696">
          <line id="Line_53" data-name="Line 53" x1="97.173" transform="translate(702.961)" fill="none" stroke="#ffd063" stroke-miterlimit="10" stroke-width="0.305"/>
          <line id="Line_54" data-name="Line 54" x1="97.173" transform="translate(689.177 13.784)" fill="none" stroke="#ffd063" stroke-miterlimit="10" stroke-width="0.412"/>
          <line id="Line_55" data-name="Line 55" x1="97.173" transform="translate(675.394 27.567)" fill="none" stroke="#ffd063" stroke-miterlimit="10" stroke-width="0.52"/>
          <line id="Line_56" data-name="Line 56" x1="97.173" transform="translate(661.61 41.351)" fill="none" stroke="#ffd063" stroke-miterlimit="10" stroke-width="0.627"/>
          <line id="Line_57" data-name="Line 57" x1="97.173" transform="translate(647.827 55.134)" fill="none" stroke="#ffd063" stroke-miterlimit="10" stroke-width="0.735"/>
          <line id="Line_58" data-name="Line 58" x1="97.173" transform="translate(634.043 68.918)" fill="none" stroke="#ffd063" stroke-miterlimit="10" stroke-width="0.842"/>
          <line id="Line_59" data-name="Line 59" x1="97.173" transform="translate(620.259 82.701)" fill="none" stroke="#ffd063" stroke-miterlimit="10" stroke-width="0.949"/>
          <line id="Line_60" data-name="Line 60" x1="97.173" transform="translate(606.476 96.485)" fill="none" stroke="#ffd063" stroke-miterlimit="10" stroke-width="1.057"/>
          <line id="Line_61" data-name="Line 61" x1="97.173" transform="translate(592.692 110.268)" fill="none" stroke="#ffd063" stroke-miterlimit="10" stroke-width="1.164"/>
          <line id="Line_62" data-name="Line 62" x1="97.173" transform="translate(578.909 124.052)" fill="none" stroke="#ffd063" stroke-miterlimit="10" stroke-width="1.271"/>
          <line id="Line_63" data-name="Line 63" x1="97.173" transform="translate(565.125 137.835)" fill="none" stroke="#ffd063" stroke-miterlimit="10" stroke-width="1.379"/>
          <line id="Line_64" data-name="Line 64" x1="97.173" transform="translate(551.342 151.619)" fill="none" stroke="#ffd063" stroke-miterlimit="10" stroke-width="1.486"/>
          <line id="Line_65" data-name="Line 65" x1="97.173" transform="translate(537.558 165.403)" fill="none" stroke="#ffd063" stroke-miterlimit="10" stroke-width="1.593"/>
          <line id="Line_66" data-name="Line 66" x1="97.173" transform="translate(523.775 179.186)" fill="none" stroke="#ffd063" stroke-miterlimit="10" stroke-width="1.701"/>
          <line id="Line_67" data-name="Line 67" x1="97.173" transform="translate(509.991 192.97)" fill="none" stroke="#ffd063" stroke-miterlimit="10" stroke-width="1.808"/>
          <line id="Line_68" data-name="Line 68" x1="97.173" transform="translate(496.208 206.753)" fill="none" stroke="#ffd063" stroke-miterlimit="10" stroke-width="1.915"/>
          <line id="Line_69" data-name="Line 69" x1="97.173" transform="translate(482.424 220.537)" fill="none" stroke="#ffd063" stroke-miterlimit="10" stroke-width="2.023"/>
          <line id="Line_70" data-name="Line 70" x1="97.173" transform="translate(468.64 234.32)" fill="none" stroke="#ffd063" stroke-miterlimit="10" stroke-width="2.13"/>
          <line id="Line_71" data-name="Line 71" x1="97.173" transform="translate(454.857 248.104)" fill="none" stroke="#ffd063" stroke-miterlimit="10" stroke-width="2.238"/>
          <line id="Line_72" data-name="Line 72" x1="97.173" transform="translate(441.073 261.887)" fill="none" stroke="#ffd063" stroke-miterlimit="10" stroke-width="2.345"/>
          <line id="Line_73" data-name="Line 73" x1="97.173" transform="translate(427.29 275.671)" fill="none" stroke="#ffd063" stroke-miterlimit="10" stroke-width="2.452"/>
          <line id="Line_74" data-name="Line 74" x1="97.173" transform="translate(413.506 289.454)" fill="none" stroke="#ffd063" stroke-miterlimit="10" stroke-width="2.56"/>
          <line id="Line_75" data-name="Line 75" x1="97.173" transform="translate(399.723 303.238)" fill="none" stroke="#ffd063" stroke-miterlimit="10" stroke-width="2.667"/>
          <line id="Line_76" data-name="Line 76" x1="97.173" transform="translate(385.939 317.021)" fill="none" stroke="#ffd063" stroke-miterlimit="10" stroke-width="2.774"/>
          <line id="Line_77" data-name="Line 77" x1="97.173" transform="translate(372.156 330.805)" fill="none" stroke="#ffd063" stroke-miterlimit="10" stroke-width="2.882"/>
          <line id="Line_78" data-name="Line 78" x1="97.173" transform="translate(358.372 344.589)" fill="none" stroke="#ffd063" stroke-miterlimit="10" stroke-width="2.989"/>
          <line id="Line_79" data-name="Line 79" x1="97.173" transform="translate(344.589 358.372)" fill="none" stroke="#ffd063" stroke-miterlimit="10" stroke-width="3.096"/>
          <line id="Line_80" data-name="Line 80" x1="97.173" transform="translate(330.805 372.156)" fill="none" stroke="#ffd063" stroke-miterlimit="10" stroke-width="3.204"/>
          <line id="Line_81" data-name="Line 81" x1="97.173" transform="translate(317.021 385.939)" fill="none" stroke="#ffd063" stroke-miterlimit="10" stroke-width="3.311"/>
          <line id="Line_82" data-name="Line 82" x1="97.173" transform="translate(303.238 399.723)" fill="none" stroke="#ffd063" stroke-miterlimit="10" stroke-width="3.419"/>
          <line id="Line_83" data-name="Line 83" x1="97.173" transform="translate(289.454 413.506)" fill="none" stroke="#ffd063" stroke-miterlimit="10" stroke-width="3.526"/>
          <line id="Line_84" data-name="Line 84" x1="97.173" transform="translate(275.671 427.29)" fill="none" stroke="#ffd063" stroke-miterlimit="10" stroke-width="3.633"/>
          <line id="Line_85" data-name="Line 85" x1="97.173" transform="translate(261.887 441.073)" fill="none" stroke="#ffd063" stroke-miterlimit="10" stroke-width="3.741"/>
          <line id="Line_86" data-name="Line 86" x1="97.173" transform="translate(248.104 454.857)" fill="none" stroke="#ffd063" stroke-miterlimit="10" stroke-width="3.848"/>
          <line id="Line_87" data-name="Line 87" x1="97.173" transform="translate(234.32 468.64)" fill="none" stroke="#ffd063" stroke-miterlimit="10" stroke-width="3.955"/>
          <line id="Line_88" data-name="Line 88" x1="97.173" transform="translate(220.537 482.424)" fill="none" stroke="#ffd063" stroke-miterlimit="10" stroke-width="4.063"/>
          <line id="Line_89" data-name="Line 89" x1="97.173" transform="translate(206.753 496.208)" fill="none" stroke="#ffd063" stroke-miterlimit="10" stroke-width="4.17"/>
          <line id="Line_90" data-name="Line 90" x1="97.173" transform="translate(192.97 509.991)" fill="none" stroke="#ffd063" stroke-miterlimit="10" stroke-width="4.277"/>
          <line id="Line_91" data-name="Line 91" x1="97.173" transform="translate(179.186 523.775)" fill="none" stroke="#ffd063" stroke-miterlimit="10" stroke-width="4.385"/>
          <line id="Line_92" data-name="Line 92" x1="97.173" transform="translate(165.403 537.558)" fill="none" stroke="#ffd063" stroke-miterlimit="10" stroke-width="4.492"/>
          <line id="Line_93" data-name="Line 93" x1="97.173" transform="translate(151.619 551.342)" fill="none" stroke="#ffd063" stroke-miterlimit="10" stroke-width="4.599"/>
          <line id="Line_94" data-name="Line 94" x1="97.173" transform="translate(137.835 565.125)" fill="none" stroke="#ffd063" stroke-miterlimit="10" stroke-width="4.707"/>
          <line id="Line_95" data-name="Line 95" x1="97.173" transform="translate(124.052 578.909)" fill="none" stroke="#ffd063" stroke-miterlimit="10" stroke-width="4.814"/>
          <line id="Line_96" data-name="Line 96" x1="97.173" transform="translate(110.268 592.692)" fill="none" stroke="#ffd063" stroke-miterlimit="10" stroke-width="4.922"/>
          <line id="Line_97" data-name="Line 97" x1="97.173" transform="translate(96.485 606.476)" fill="none" stroke="#ffd063" stroke-miterlimit="10" stroke-width="5.029"/>
          <line id="Line_98" data-name="Line 98" x1="97.173" transform="translate(82.701 620.259)" fill="none" stroke="#ffd063" stroke-miterlimit="10" stroke-width="5.136"/>
          <line id="Line_99" data-name="Line 99" x1="97.173" transform="translate(68.918 634.043)" fill="none" stroke="#ffd063" stroke-miterlimit="10" stroke-width="5.244"/>
          <line id="Line_100" data-name="Line 100" x1="97.173" transform="translate(55.134 647.827)" fill="none" stroke="#ffd063" stroke-miterlimit="10" stroke-width="5.351"/>
          <line id="Line_101" data-name="Line 101" x1="97.174" transform="translate(41.351 661.61)" fill="none" stroke="#ffd063" stroke-miterlimit="10" stroke-width="5.458"/>
          <line id="Line_102" data-name="Line 102" x1="97.174" transform="translate(27.567 675.394)" fill="none" stroke="#ffd063" stroke-miterlimit="10" stroke-width="5.566"/>
          <line id="Line_103" data-name="Line 103" x1="97.174" transform="translate(13.784 689.177)" fill="none" stroke="#ffd063" stroke-miterlimit="10" stroke-width="5.673"/>
          <line id="Line_104" data-name="Line 104" x1="97.174" transform="translate(0 702.961)" fill="none" stroke="#ffd063" stroke-miterlimit="10" stroke-width="5.78"/>
        </g>
      </g>
      <rect id="Rectangle_240" data-name="Rectangle 240" width="540.995" height="2.981" transform="translate(103.942 736.306) rotate(-44.979)" fill="url(#linear-gradient-6)"/>
      <rect id="Rectangle_241" data-name="Rectangle 241" width="270.498" height="1.49" transform="matrix(0.708, -0.707, 0.707, 0.708, 108.026, 327.003)" fill="url(#linear-gradient-7)"/>
      <rect id="Rectangle_242" data-name="Rectangle 242" width="270.499" height="1.491" transform="matrix(0.708, -0.707, 0.707, 0.708, 855.297, 653.951)" fill="url(#linear-gradient-8)"/>
      <rect id="Rectangle_243" data-name="Rectangle 243" width="540.996" height="2.98" transform="matrix(0.707, -0.707, 0.707, 0.707, 421.727, 784.104)" fill="url(#linear-gradient-9)"/>
      <rect id="Rectangle_244" data-name="Rectangle 244" width="258.302" height="1.424" transform="translate(531.79 429.194) rotate(-44.956)" fill="url(#linear-gradient-10)"/>
      <rect id="Rectangle_245" data-name="Rectangle 245" width="112.659" height="0.621" transform="matrix(0.706, -0.708, 0.708, 0.706, 583.706, 187.1)" fill="url(#linear-gradient-11)"/>
      <rect id="Rectangle_246" data-name="Rectangle 246" width="112.659" height="0.62" transform="matrix(0.706, -0.708, 0.708, 0.706, 36.38, 187.1)" fill="url(#linear-gradient-12)"/>
      <path id="Path_3059" data-name="Path 3059" d="M.661,120.694,0,120.035,120.035,0l.664.661Z" transform="translate(396.471 516.101)" fill="url(#linear-gradient-13)"/>
      <path id="Path_3060" data-name="Path 3060" d="M.439,80.1,0,79.662,79.662,0l.44.439Z" transform="translate(691.043 686.92)" fill="url(#linear-gradient-14)"/>
      <path id="Path_3077" data-name="Path 3077" d="M51.543,0A51.543,51.543,0,1,1,0,51.543,51.543,51.543,0,0,1,51.543,0Z" transform="matrix(0.23, -0.973, 0.973, 0.23, 696.133, 810.822)" fill="url(#linear-gradient-15)"/>
      <circle id="Ellipse_75" data-name="Ellipse 75" cx="19.272" cy="19.272" r="19.272" transform="matrix(0.023, -1, 1, 0.023, 594.412, 284.306)" fill="none" stroke="#ffd063" stroke-miterlimit="10" stroke-width="6.195"/>
      <path id="Path_3061" data-name="Path 3061" d="M0,12.527A12.526,12.526,0,1,1,12.526,25.053,12.526,12.526,0,0,1,0,12.527Z" transform="translate(891.833 694.481)" fill="none" stroke="#ffd063" stroke-miterlimit="10" stroke-width="4.13"/>
      <path id="Path_3062" data-name="Path 3062" d="M0,18.52A18.518,18.518,0,1,1,18.517,37.038,18.517,18.517,0,0,1,0,18.52Z" transform="translate(85.493 364.587)" fill="none" stroke="#ffd063" stroke-miterlimit="10" stroke-width="6.106"/>
      <path id="Path_3063" data-name="Path 3063" d="M0,82.3a82.3,82.3,0,1,1,82.3,82.3A82.3,82.3,0,0,1,0,82.3Z" transform="translate(688.846 42.052)" fill="url(#linear-gradient-16)"/>
      <circle id="Ellipse_76" data-name="Ellipse 76" cx="112.227" cy="112.227" r="112.227" transform="translate(44.25 338.446) rotate(-45)" fill="url(#linear-gradient-17)"/>
      <g id="Group_699" data-name="Group 699" transform="translate(516.942 491.987)" opacity="0.5">
        <g id="Group_698" data-name="Group 698">
          <line id="Line_105" data-name="Line 105" x1="97.174" transform="translate(702.961)" fill="none" stroke="#ffd063" stroke-miterlimit="10" stroke-width="0.305"/>
          <line id="Line_106" data-name="Line 106" x1="97.174" transform="translate(689.177 13.784)" fill="none" stroke="#ffd063" stroke-miterlimit="10" stroke-width="0.412"/>
          <line id="Line_107" data-name="Line 107" x1="97.174" transform="translate(675.394 27.567)" fill="none" stroke="#ffd063" stroke-miterlimit="10" stroke-width="0.52"/>
          <line id="Line_108" data-name="Line 108" x1="97.174" transform="translate(661.61 41.351)" fill="none" stroke="#ffd063" stroke-miterlimit="10" stroke-width="0.627"/>
          <line id="Line_109" data-name="Line 109" x1="97.174" transform="translate(647.826 55.134)" fill="none" stroke="#ffd063" stroke-miterlimit="10" stroke-width="0.735"/>
          <line id="Line_110" data-name="Line 110" x1="97.174" transform="translate(634.043 68.918)" fill="none" stroke="#ffd063" stroke-miterlimit="10" stroke-width="0.842"/>
          <line id="Line_111" data-name="Line 111" x1="97.174" transform="translate(620.259 82.701)" fill="none" stroke="#ffd063" stroke-miterlimit="10" stroke-width="0.949"/>
          <line id="Line_112" data-name="Line 112" x1="97.174" transform="translate(606.476 96.485)" fill="none" stroke="#ffd063" stroke-miterlimit="10" stroke-width="1.057"/>
          <line id="Line_113" data-name="Line 113" x1="97.174" transform="translate(592.692 110.268)" fill="none" stroke="#ffd063" stroke-miterlimit="10" stroke-width="1.164"/>
          <line id="Line_114" data-name="Line 114" x1="97.174" transform="translate(578.909 124.052)" fill="none" stroke="#ffd063" stroke-miterlimit="10" stroke-width="1.271"/>
          <line id="Line_115" data-name="Line 115" x1="97.174" transform="translate(565.125 137.835)" fill="none" stroke="#ffd063" stroke-miterlimit="10" stroke-width="1.379"/>
          <line id="Line_116" data-name="Line 116" x1="97.174" transform="translate(551.342 151.619)" fill="none" stroke="#ffd063" stroke-miterlimit="10" stroke-width="1.486"/>
          <line id="Line_117" data-name="Line 117" x1="97.174" transform="translate(537.558 165.403)" fill="none" stroke="#ffd063" stroke-miterlimit="10" stroke-width="1.593"/>
          <line id="Line_118" data-name="Line 118" x1="97.174" transform="translate(523.775 179.186)" fill="none" stroke="#ffd063" stroke-miterlimit="10" stroke-width="1.701"/>
          <line id="Line_119" data-name="Line 119" x1="97.174" transform="translate(509.991 192.97)" fill="none" stroke="#ffd063" stroke-miterlimit="10" stroke-width="1.808"/>
          <line id="Line_120" data-name="Line 120" x1="97.174" transform="translate(496.207 206.753)" fill="none" stroke="#ffd063" stroke-miterlimit="10" stroke-width="1.915"/>
          <line id="Line_121" data-name="Line 121" x1="97.174" transform="translate(482.424 220.537)" fill="none" stroke="#ffd063" stroke-miterlimit="10" stroke-width="2.023"/>
          <line id="Line_122" data-name="Line 122" x1="97.174" transform="translate(468.64 234.32)" fill="none" stroke="#ffd063" stroke-miterlimit="10" stroke-width="2.13"/>
          <line id="Line_123" data-name="Line 123" x1="97.174" transform="translate(454.857 248.104)" fill="none" stroke="#ffd063" stroke-miterlimit="10" stroke-width="2.238"/>
          <line id="Line_124" data-name="Line 124" x1="97.174" transform="translate(441.073 261.887)" fill="none" stroke="#ffd063" stroke-miterlimit="10" stroke-width="2.345"/>
          <line id="Line_125" data-name="Line 125" x1="97.174" transform="translate(427.29 275.671)" fill="none" stroke="#ffd063" stroke-miterlimit="10" stroke-width="2.452"/>
          <line id="Line_126" data-name="Line 126" x1="97.174" transform="translate(413.506 289.454)" fill="none" stroke="#ffd063" stroke-miterlimit="10" stroke-width="2.56"/>
          <line id="Line_127" data-name="Line 127" x1="97.174" transform="translate(399.723 303.238)" fill="none" stroke="#ffd063" stroke-miterlimit="10" stroke-width="2.667"/>
          <line id="Line_128" data-name="Line 128" x1="97.174" transform="translate(385.939 317.021)" fill="none" stroke="#ffd063" stroke-miterlimit="10" stroke-width="2.774"/>
          <line id="Line_129" data-name="Line 129" x1="97.174" transform="translate(372.156 330.805)" fill="none" stroke="#ffd063" stroke-miterlimit="10" stroke-width="2.882"/>
          <line id="Line_130" data-name="Line 130" x1="97.174" transform="translate(358.372 344.589)" fill="none" stroke="#ffd063" stroke-miterlimit="10" stroke-width="2.989"/>
          <line id="Line_131" data-name="Line 131" x1="97.174" transform="translate(344.589 358.372)" fill="none" stroke="#ffd063" stroke-miterlimit="10" stroke-width="3.096"/>
          <line id="Line_132" data-name="Line 132" x1="97.174" transform="translate(330.805 372.156)" fill="none" stroke="#ffd063" stroke-miterlimit="10" stroke-width="3.204"/>
          <line id="Line_133" data-name="Line 133" x1="97.174" transform="translate(317.021 385.939)" fill="none" stroke="#ffd063" stroke-miterlimit="10" stroke-width="3.311"/>
          <line id="Line_134" data-name="Line 134" x1="97.174" transform="translate(303.238 399.723)" fill="none" stroke="#ffd063" stroke-miterlimit="10" stroke-width="3.419"/>
          <line id="Line_135" data-name="Line 135" x1="97.174" transform="translate(289.454 413.506)" fill="none" stroke="#ffd063" stroke-miterlimit="10" stroke-width="3.526"/>
          <line id="Line_136" data-name="Line 136" x1="97.174" transform="translate(275.671 427.29)" fill="none" stroke="#ffd063" stroke-miterlimit="10" stroke-width="3.633"/>
          <line id="Line_137" data-name="Line 137" x1="97.174" transform="translate(261.887 441.073)" fill="none" stroke="#ffd063" stroke-miterlimit="10" stroke-width="3.741"/>
          <line id="Line_138" data-name="Line 138" x1="97.174" transform="translate(248.104 454.857)" fill="none" stroke="#ffd063" stroke-miterlimit="10" stroke-width="3.848"/>
          <line id="Line_139" data-name="Line 139" x1="97.174" transform="translate(234.32 468.64)" fill="none" stroke="#ffd063" stroke-miterlimit="10" stroke-width="3.955"/>
          <line id="Line_140" data-name="Line 140" x1="97.174" transform="translate(220.537 482.424)" fill="none" stroke="#ffd063" stroke-miterlimit="10" stroke-width="4.063"/>
          <line id="Line_141" data-name="Line 141" x1="97.174" transform="translate(206.753 496.208)" fill="none" stroke="#ffd063" stroke-miterlimit="10" stroke-width="4.17"/>
          <line id="Line_142" data-name="Line 142" x1="97.174" transform="translate(192.97 509.991)" fill="none" stroke="#ffd063" stroke-miterlimit="10" stroke-width="4.277"/>
          <line id="Line_143" data-name="Line 143" x1="97.174" transform="translate(179.186 523.775)" fill="none" stroke="#ffd063" stroke-miterlimit="10" stroke-width="4.385"/>
          <line id="Line_144" data-name="Line 144" x1="97.174" transform="translate(165.402 537.558)" fill="none" stroke="#ffd063" stroke-miterlimit="10" stroke-width="4.492"/>
          <line id="Line_145" data-name="Line 145" x1="97.174" transform="translate(151.619 551.342)" fill="none" stroke="#ffd063" stroke-miterlimit="10" stroke-width="4.599"/>
          <line id="Line_146" data-name="Line 146" x1="97.174" transform="translate(137.835 565.125)" fill="none" stroke="#ffd063" stroke-miterlimit="10" stroke-width="4.707"/>
          <line id="Line_147" data-name="Line 147" x1="97.174" transform="translate(124.052 578.909)" fill="none" stroke="#ffd063" stroke-miterlimit="10" stroke-width="4.814"/>
          <line id="Line_148" data-name="Line 148" x1="97.174" transform="translate(110.268 592.692)" fill="none" stroke="#ffd063" stroke-miterlimit="10" stroke-width="4.922"/>
          <line id="Line_149" data-name="Line 149" x1="97.174" transform="translate(96.485 606.476)" fill="none" stroke="#ffd063" stroke-miterlimit="10" stroke-width="5.029"/>
          <line id="Line_150" data-name="Line 150" x1="97.174" transform="translate(82.701 620.259)" fill="none" stroke="#ffd063" stroke-miterlimit="10" stroke-width="5.136"/>
          <line id="Line_151" data-name="Line 151" x1="97.174" transform="translate(68.918 634.043)" fill="none" stroke="#ffd063" stroke-miterlimit="10" stroke-width="5.244"/>
          <line id="Line_152" data-name="Line 152" x1="97.174" transform="translate(55.134 647.827)" fill="none" stroke="#ffd063" stroke-miterlimit="10" stroke-width="5.351"/>
          <line id="Line_153" data-name="Line 153" x1="97.174" transform="translate(41.351 661.61)" fill="none" stroke="#ffd063" stroke-miterlimit="10" stroke-width="5.458"/>
          <line id="Line_154" data-name="Line 154" x1="97.174" transform="translate(27.567 675.394)" fill="none" stroke="#ffd063" stroke-miterlimit="10" stroke-width="5.566"/>
          <line id="Line_155" data-name="Line 155" x1="97.174" transform="translate(13.784 689.177)" fill="none" stroke="#ffd063" stroke-miterlimit="10" stroke-width="5.673"/>
          <line id="Line_156" data-name="Line 156" x1="97.174" transform="translate(0 702.961)" fill="none" stroke="#ffd063" stroke-miterlimit="10" stroke-width="5.78"/>
        </g>
      </g>
    </g>
  </g>
</svg>
