<svg id="Group_742" data-name="Group 742" xmlns="http://www.w3.org/2000/svg" width="32" height="32" viewBox="0 0 32 32">
  <path id="Path_2709" data-name="Path 2709" d="M16,0A16.048,16.048,0,0,1,30.977,10.357,15.789,15.789,0,0,1,32,16,16,16,0,1,1,16,0Z" fill="#5d5d5d"/>
  <g id="Group_613" data-name="Group 613" transform="translate(4 4.158)">
    <path id="Path_2691" data-name="Path 2691" d="M1304.812-100.646c-.4,1.016-.5,2.235-.9,3.252a.2.2,0,0,0,.017.154c.094.166.211.319.3.488a2.051,2.051,0,0,1,.126,1.682,3.259,3.259,0,0,1-.624,1.035.124.124,0,0,0-.011.18,2.1,2.1,0,0,1,.351.849.532.532,0,0,0,.24.4c.472.3.929.616,1.394.922.256.169.513.338.779.492.236.137.488.246.725.381a2.137,2.137,0,0,1,1.051,1.142,7.877,7.877,0,0,1,.205.91c.011.051,0,.1.077.119.2.039.241.089.242.292q0,.514,0,1.029a.511.511,0,0,1-.376.531c-.057.022-.115.045-.174.061a.139.139,0,0,0-.113.16c.016.341-.057.254.264.413.017.008.035.015.052.025a.227.227,0,0,1,.112.334q-.063.134-.131.267a.354.354,0,0,1-.417.183c-.108-.029-.213-.07-.323-.091a.173.173,0,0,0-.139.035,2.2,2.2,0,0,1-1.35.715,4.208,4.208,0,0,1-2.564-.332c-.377-.174-.745-.368-1.119-.55a1.593,1.593,0,0,0-.681-.2,3.437,3.437,0,0,0-1.632.409c-.069.036-.1.079-.068.156.066.179.121.361.191.538a4.781,4.781,0,0,0,.979,1.552,5.813,5.813,0,0,0,1.818,1.26c.66.3,1.334.58,2,.869a1.079,1.079,0,0,1,.117.075c-.057.014-.082.023-.107.026-.367.05-.735.088-1.1.151a13.966,13.966,0,0,0-2.119.52q-1.416.481-2.817,1a16.643,16.643,0,0,1-2.285.7,12.586,12.586,0,0,1-1.739.25,8.574,8.574,0,0,1-3.949-.565,5.725,5.725,0,0,1-2.434-1.859,6.692,6.692,0,0,1-1.257-3.4,9.826,9.826,0,0,1,.031-2.3.11.11,0,0,0-.077-.131,3.919,3.919,0,0,1-.408-.215,10.1,10.1,0,0,1-1.32-1.075.385.385,0,0,1-.046-.077l1.58-.178a4.58,4.58,0,0,1-2.4-1.763.228.228,0,0,1,.114-.014c.137.02.273.049.411.066a2.587,2.587,0,0,0,1.132-.1,2.085,2.085,0,0,0,1.09-.831c.393-.578.766-1.17,1.131-1.766a12.975,12.975,0,0,1,1.609-2.215c.1-.1.2-.2.3-.3a.509.509,0,0,0-.052-.029c-.029-.012-.058-.021-.087-.031a1.643,1.643,0,0,1-1.211-1.352c-.067-.4-.1-.8-.15-1.2a.349.349,0,0,1,.019-.089c.048.035.081.057.113.083.114.091.225.186.341.275a1.78,1.78,0,0,0,1.235.436,3.475,3.475,0,0,0,1.263-.385c.011-.005.016-.023.036-.051a.568.568,0,0,1-.069-.047,1.145,1.145,0,0,1-.377-.854,1.467,1.467,0,0,1,.23-.768,5.661,5.661,0,0,1,1.173-1.285.368.368,0,0,1,.081-.036c0,.053-.009.088-.011.123a3.074,3.074,0,0,0-.019.387.407.407,0,0,0,.5.43,3.594,3.594,0,0,0,.524-.092c.579-.144,1.154-.306,1.734-.444a8.424,8.424,0,0,1,2.449-.217,4.144,4.144,0,0,1,1.66.416c.245.125.473.282.719.431l.046-.086a1.593,1.593,0,0,1,.752-.717c.131-.063.151-.046.184.1a1.746,1.746,0,0,0,.814,1.209c.148.085.143.092.249-.038.552-.676,1.34-1.247,1.894-1.922" transform="translate(-1284.788 101.915)" fill="#9e9e9d"/>
    <g id="Group_612" data-name="Group 612">
      <path id="Path_2692" data-name="Path 2692" d="M1305.326-104c-.4,1.03-1.018,3.232-1.411,4.263a.209.209,0,0,0,.017.156c.094.168.211.324.3.5a2.1,2.1,0,0,1,.126,1.705,3.312,3.312,0,0,1-.624,1.049.127.127,0,0,0-.011.182,2.149,2.149,0,0,1,.351.861.54.54,0,0,0,.24.407c.472.3.929.624,1.394.935.256.171.513.343.779.5.236.139.488.249.725.386a2.155,2.155,0,0,1,1.051,1.158,8.024,8.024,0,0,1,.205.923c.011.052,0,.105.077.121.2.04.241.09.242.3q0,.521,0,1.043a.518.518,0,0,1-.376.538c-.057.023-.115.045-.174.062a.14.14,0,0,0-.113.162c.016.345-.057.257.264.419.017.008.035.016.052.025a.231.231,0,0,1,.112.339q-.063.136-.131.27a.353.353,0,0,1-.417.185c-.108-.03-.213-.07-.323-.092a.171.171,0,0,0-.139.035,2.2,2.2,0,0,1-1.35.724,4.158,4.158,0,0,1-2.564-.336c-.377-.176-.745-.373-1.119-.558a1.578,1.578,0,0,0-.681-.206,3.4,3.4,0,0,0-1.632.415.113.113,0,0,0-.068.158c.065.181.121.366.191.545a4.856,4.856,0,0,0,.979,1.573,5.811,5.811,0,0,0,1.818,1.277c.66.309,1.334.588,2,.881a1.078,1.078,0,0,1,.117.076c-.057.014-.082.023-.107.027-.367.051-.735.09-1.1.153a13.811,13.811,0,0,0-2.119.527q-1.416.488-2.817,1.019a16.478,16.478,0,0,1-2.285.7,12.428,12.428,0,0,1-1.739.253,8.47,8.47,0,0,1-3.949-.573,5.732,5.732,0,0,1-2.433-1.884,6.836,6.836,0,0,1-1.257-3.448,10.093,10.093,0,0,1,.031-2.335.111.111,0,0,0-.077-.133,3.9,3.9,0,0,1-.408-.218,10.125,10.125,0,0,1-1.32-1.09.392.392,0,0,1-.046-.078l1.58-.181a4.585,4.585,0,0,1-2.4-1.787.226.226,0,0,1,.114-.015c.137.021.273.05.411.066a2.554,2.554,0,0,0,1.132-.1,2.088,2.088,0,0,0,1.09-.842c.393-.586.766-1.186,1.131-1.79A13.145,13.145,0,0,1,1290.275-97c.1-.1.2-.2.3-.308a.51.51,0,0,0-.052-.029c-.029-.012-.058-.022-.087-.032a1.658,1.658,0,0,1-1.211-1.37c-.067-.4-.1-.811-.15-1.216a.358.358,0,0,1,.019-.09c.048.035.081.058.113.084.114.092.225.188.341.279a1.766,1.766,0,0,0,1.235.442,3.44,3.44,0,0,0,1.263-.39c.011-.006.016-.023.036-.052a.567.567,0,0,1-.069-.047,1.168,1.168,0,0,1-.377-.866,1.5,1.5,0,0,1,.23-.778,5.709,5.709,0,0,1,1.173-1.3.365.365,0,0,1,.081-.036c0,.054-.009.089-.011.125a3.158,3.158,0,0,0-.019.392.409.409,0,0,0,.5.436,3.551,3.551,0,0,0,.524-.093c.579-.146,1.154-.31,1.734-.45a8.316,8.316,0,0,1,2.449-.22,4.1,4.1,0,0,1,1.66.421c.245.126.473.286.719.437l.046-.087a1.6,1.6,0,0,1,.752-.727c.131-.064.151-.047.184.1a1.771,1.771,0,0,0,.814,1.225c.148.086.143.093.249-.038.552-.686,1.884-2.124,2.438-2.809m-2.308,7.652a.419.419,0,0,0-.109-.084.219.219,0,0,0-.114.007c-.029.006-.054.026-.083.033a2.033,2.033,0,0,1-2.457-1.03c-.057-.1-.1-.2-.158-.293a.2.2,0,0,0-.09-.067c-.179-.082-.357-.165-.54-.237a.3.3,0,0,1-.181-.189,5.3,5.3,0,0,0-1.613-2.222,3.441,3.441,0,0,0-.8-.5.24.24,0,0,0,0,.082c.271.6.532,1.207.821,1.8a1.981,1.981,0,0,0,.822.917c.093.05.193.087.306.137-.222.039-.426.072-.628.113a6.5,6.5,0,0,0-2.675,1.182,6.979,6.979,0,0,0-2.422,3.384,7.966,7.966,0,0,0-.4,3.559,6.861,6.861,0,0,0,1.612,3.821,5.949,5.949,0,0,0,2.89,1.835c.207.061.418.107.627.159a1.123,1.123,0,0,0,.113.013,9.652,9.652,0,0,1-2.348-4.211,9.956,9.956,0,0,0,4.786,3.8l.027-.029c-.107-.119-.215-.237-.321-.357a6.131,6.131,0,0,1-1.3-2.144c-.069-.212-.111-.433-.173-.647a.2.2,0,0,0-.093-.116,5.468,5.468,0,0,1-2.033-1.555,4.24,4.24,0,0,1-.985-2.342,3.673,3.673,0,0,1,.588-2.324.311.311,0,0,1,.116-.111c-.015.086-.026.174-.046.259a5.992,5.992,0,0,0-.134,1.355,3.768,3.768,0,0,0,.473,1.91,2.957,2.957,0,0,0,1.952,1.464,3.938,3.938,0,0,0,3.061-.546c.249-.152.472-.346.706-.523a.447.447,0,0,0,.056-.068,1.8,1.8,0,0,1-1-1.476,1.4,1.4,0,0,1,.089-.664c.055.13.1.239.145.344a1.267,1.267,0,0,0,1.047.743c.362.046.731.034,1.1.05.3.013.594.016.887.051a.957.957,0,0,1,.338.16c.035.021.047.08.07.121a.516.516,0,0,1-.125.042c-.277.021-.554.037-.832.056-.018,0-.036.007-.083.016a1.341,1.341,0,0,0,.119.094,10.058,10.058,0,0,0,2.328,1.042,3.674,3.674,0,0,0,1.426.177,2.35,2.35,0,0,0,.51-.137.2.2,0,0,0,.089-.139,2.154,2.154,0,0,0,0-.31,1.288,1.288,0,0,1-.865.195c.063-.035.13-.067.19-.107a1.834,1.834,0,0,0,.222-.165.471.471,0,0,0,.159-.38,3.547,3.547,0,0,0-.15-1.188,2.555,2.555,0,0,0-.646-.921.2.2,0,0,0-.048-.031c-.006,0-.014,0-.042,0l.12.917-.026.01c-.077-.127-.155-.253-.231-.381-.14-.235-.277-.473-.421-.706a.47.47,0,0,0-.133-.14q-1.8-1.223-3.6-2.443a.516.516,0,0,1-.136-.125l.881.115A1.841,1.841,0,0,0,1302.852-96.348Zm-15.359,6.787a4.364,4.364,0,0,0,1.334.1,1.89,1.89,0,0,0,1.648-1.244,2.138,2.138,0,0,1-1.531.83l-.014-.027c.083-.043.169-.084.25-.131a2.78,2.78,0,0,0,.925-.957c.348-.542.674-1.1,1.009-1.648a9.867,9.867,0,0,1,1.25-1.72c.146-.153.306-.293.46-.439l.1-.092-.016-.028c-.149.072-.3.14-.446.218a4.826,4.826,0,0,0-1.875,1.906c-.293.5-.575,1.005-.886,1.493a3.177,3.177,0,0,1-1.545,1.312c-.307.118-.636.18-.955.268l-.1.027v.033C1287.227-89.624,1287.359-89.591,1287.492-89.561Zm15.761.044c-.007.1.074.1.143.116.321.063.641.127.962.216-.031,0-.061.01-.092.012-.277.022-.554.041-.831.066-.135.012-.153.032-.106.16a3.86,3.86,0,0,0,.177.375.136.136,0,0,0,.173.071,11.492,11.492,0,0,1,2.126-.226,10.615,10.615,0,0,1,1.649.121c.1.015.131-.023.118-.123-.01-.081-.069-.066-.122-.071-.3-.028-.6-.043-.9-.09a6.486,6.486,0,0,1-1.445-.439,10.459,10.459,0,0,1-1.682-.87c-.022-.014-.047-.023-.109-.054C1303.294-89.989,1303.27-89.753,1303.253-89.517ZM1296.4-99.16c-.268-.492-1.563-.744-2.013-.661a11.487,11.487,0,0,0-2.078.736c-.387.151-.776.3-1.174.421a2,2,0,0,1-1.22,0,3.359,3.359,0,0,1-.316-.142.522.522,0,0,0,.019.077.9.9,0,0,0,1.07.52,6.753,6.753,0,0,0,1.248-.414c.56-.227,1.12-.458,1.691-.654a2.349,2.349,0,0,1,1.119-.119,4.8,4.8,0,0,1,1.746.689,1.273,1.273,0,0,1,.1.141l.055-.037C1296.567-98.793,1296.5-98.984,1296.4-99.16Zm5.636-.136a1.705,1.705,0,0,0,.841.547.1.1,0,0,0,.088-.033q.189-.466.365-.936a.105.105,0,0,0-.039-.088c-.175-.126-.352-.25-.532-.367a.117.117,0,0,0-.112.005c-.211.251-.416.507-.622.762a.316.316,0,0,0-.028.052A.59.59,0,0,0,1302.041-99.3Zm-.012,2.636q.289-.712.558-1.431a.162.162,0,0,0-.06-.135c-.267-.193-.537-.381-.813-.561a.18.18,0,0,0-.172.008c-.322.383-.636.774-.951,1.164a.526.526,0,0,0-.043.079A1.48,1.48,0,0,0,1302.028-96.66Zm5.031,8.633a6.062,6.062,0,0,0-2.381-.006A1.965,1.965,0,0,0,1307.059-88.027Zm-3.552-13.22c-.167.207-.33.417-.5.621-.06.072-.053.122.015.172.108.081.217.159.326.238.076.056.12.035.153-.052.138-.368.28-.734.421-1.1l.257-.665-.024-.012Zm-1.145,12a.886.886,0,0,0,.611.823,4.345,4.345,0,0,1-.168-1.871A2.005,2.005,0,0,0,1302.362-89.252Z" transform="translate(-1284.788 104)" fill="#434343"/>
      <path id="Path_2693" data-name="Path 2693" d="M1354.582-52.1c-.033.356-.066.676-.089,1-.009.13.1.139.194.157.434.085.868.171,1.3.293-.042.006-.083.013-.125.016-.375.03-.75.056-1.125.089-.183.016-.207.043-.144.217a5.29,5.29,0,0,0,.239.507.185.185,0,0,0,.235.1,15.553,15.553,0,0,1,2.878-.306,14.367,14.367,0,0,1,2.233.164c.137.02.177-.032.159-.167-.014-.11-.094-.089-.165-.1-.4-.038-.812-.059-1.213-.122a8.786,8.786,0,0,1-1.956-.595,14.166,14.166,0,0,1-2.277-1.177C1354.7-52.047,1354.667-52.06,1354.582-52.1Z" transform="translate(-1337.986 65.46)" fill="#fff"/>
      <path id="Path_2694" data-name="Path 2694" d="M1335.635-73.448a1.286,1.286,0,0,1,1.77-.447c.372.226.7.525,1.053.782.286.208.574.416.876.6a.309.309,0,0,0,.446-.2,2.39,2.39,0,0,0,.037-.476,1.23,1.23,0,0,0-.031-.208.662.662,0,0,1,.082.062,2.289,2.289,0,0,1,.472.875.507.507,0,0,1-.066.507c-.1.1-.05.156.031.225q.543.462,1.083.928c.094.081.184.168.276.252a.119.119,0,0,1-.1,0c-.794-.371-1.587-.744-2.383-1.109a.4.4,0,0,0-.253-.021,3.128,3.128,0,0,1-1.037.111,1.14,1.14,0,0,1-.942-.562,2.7,2.7,0,0,1-.365-1.009c-.063-.35-.164-.429-.518-.378a2.367,2.367,0,0,0-.316.086c-.037.01-.074.023-.117.037C1335.634-73.428,1335.63-73.442,1335.635-73.448Zm1.814,1.106a1.041,1.041,0,0,0,1.044.239,2.127,2.127,0,0,0,.24-.06,6.239,6.239,0,0,0-1.671-1.3A2.089,2.089,0,0,0,1337.45-72.342Z" transform="translate(-1323.25 81.666)" fill="#505050"/>
      <path id="Path_2695" data-name="Path 2695" d="M1357.253-61.822c.109-.237.268-.3.494-.157.267.169.51.375.764.565.039.029.075.061.134.109,0-.054.006-.077,0-.093a3.287,3.287,0,0,0-.885-1.269,1.372,1.372,0,0,0-.34-.186.427.427,0,0,0-.481.074.434.434,0,0,0-.08.495A.89.89,0,0,0,1357.253-61.822Z" transform="translate(-1339.477 73.583)" fill="#434343"/>
      <path id="Path_2696" data-name="Path 2696" d="M1339.622-72.322a2.089,2.089,0,0,0,.387,1.116,1.041,1.041,0,0,0,1.044.239,2.115,2.115,0,0,0,.24-.06A6.24,6.24,0,0,0,1339.622-72.322Z" transform="translate(-1325.375 80.579)" fill="#d0d0d0"/>
    </g>
    <path id="Path_2697" data-name="Path 2697" d="M1304.647-49.046s-5.95,16.253,9.07,8.28C1313.717-40.766,1303.315-37.944,1304.647-49.046Z" transform="translate(-1296.779 60.375)" fill="#898989"/>
    <path id="Path_2698" data-name="Path 2698" d="M1304.791-58.461s-4.11,3.86-3.987,8.617A18.336,18.336,0,0,1,1304.791-58.461Z" transform="translate(-1296.769 68.956)" fill="#898989"/>
    <path id="Path_2699" data-name="Path 2699" d="M1305.257-82.128s-10.12.595-12.757,8.161a2.138,2.138,0,0,1-2.638.881s2.474,3.517,4.885-.881C1294.747-73.967,1296.578-80.055,1305.257-82.128Z" transform="translate(-1288.042 86.941)" fill="#898989"/>
  </g>
</svg>
