<svg xmlns="http://www.w3.org/2000/svg" xmlns:xlink="http://www.w3.org/1999/xlink" width="295.499" height="819.956" viewBox="0 0 295.499 819.956">
  <defs>
    <style>
      .cls-1 {
        fill: url(#linear-gradient);
      }
    </style>
    <linearGradient id="linear-gradient" x1="0.5" x2="0.5" y2="1" gradientUnits="objectBoundingBox">
      <stop offset="0" stop-color="#635414"/>
      <stop offset="0.455" stop-color="#fff18c"/>
      <stop offset="0.506" stop-color="#fff07c"/>
      <stop offset="0.551" stop-color="#ffef6c"/>
      <stop offset="1" stop-color="#696c14"/>
    </linearGradient>
  </defs>
  <path id="Union_7" data-name="Union 7" class="cls-1" d="M1954.5-8631.284l23.678-19.24v15.024H2187a48.554,48.554,0,0,0,48.5-48.5,48.554,48.554,0,0,0-48.5-48.5H2029.5v-.5a81.592,81.592,0,0,1-81.5-81.5,81.587,81.587,0,0,1,81.142-81.5v0H2190.5a45.553,45.553,0,0,0,45.5-45.5,45.553,45.553,0,0,0-45.5-45.5H2012a64.071,64.071,0,0,1-64-64,64.072,64.072,0,0,1,64-64h178.5a45.552,45.552,0,0,0,45.5-45.5,45.553,45.553,0,0,0-45.5-45.5H2012a64.073,64.073,0,0,1-64-64,64.071,64.071,0,0,1,64-64h178.5a45.553,45.553,0,0,0,45.5-45.5,45.553,45.553,0,0,0-45.5-45.5h-186v-7h186a52.56,52.56,0,0,1,52.5,52.5,52.56,52.56,0,0,1-52.5,52.5H2012a57.065,57.065,0,0,0-57,57,57.066,57.066,0,0,0,57,57h178.5a52.558,52.558,0,0,1,52.5,52.5,52.558,52.558,0,0,1-52.5,52.5H2012a57.066,57.066,0,0,0-57,57,57.065,57.065,0,0,0,57,57h178.5a52.56,52.56,0,0,1,52.5,52.5,52.56,52.56,0,0,1-52.5,52.5h-161a74.586,74.586,0,0,0-74.5,74.5,74.585,74.585,0,0,0,74.5,74.5v-.5H2187a56.565,56.565,0,0,1,56.5,56.5,56.565,56.565,0,0,1-56.5,56.5h-208.82v15.455Z" transform="translate(-1948 9432)"/>
</svg>
