<svg xmlns="http://www.w3.org/2000/svg" xmlns:xlink="http://www.w3.org/1999/xlink" width="1334" height="944.032" viewBox="0 0 1334 944.032"><defs><style>.a{fill:url(#a);}</style><linearGradient id="a" x1="-0.027" y1="-0.172" x2="1.705" y2="1.516" gradientUnits="objectBoundingBox"><stop offset="0" stop-color="#635414"/><stop offset="0.455" stop-color="#fff18c"/><stop offset="0.506" stop-color="#fff07c"/><stop offset="0.551" stop-color="#ffef6c"/><stop offset="1" stop-color="#696c14"/></linearGradient></defs><path class="a" d="M1001.945,1718.9H142.709c-103.2,0-187.166-67.153-187.166-149.695s83.962-149.7,187.166-149.7h859.235c111.109,0,201.5-72.3,201.5-161.16s-90.393-161.16-201.5-161.16l-1132.5,1.235v11.465l1132.5-1.235c103.205,0,187.167,67.153,187.167,149.695s-83.962,149.7-187.167,149.7H142.709c-111.108,0-201.5,72.3-201.5,161.161s90.393,161.16,201.5,161.16h859.235c103.2,0,187.167,67.154,187.167,149.7s-83.962,149.695-187.167,149.695H536.826v11.465h465.118c111.109,0,201.5-72.3,201.5-161.161S1113.053,1718.9,1001.945,1718.9Z" transform="translate(130.554 -1097.188)"/></svg>