<svg xmlns="http://www.w3.org/2000/svg" xmlns:xlink="http://www.w3.org/1999/xlink" width="1006.429" height="773.491" viewBox="0 0 1006.429 773.491"><defs><linearGradient id="a" x1="-0.027" y1="-0.172" x2="1.705" y2="1.516" gradientUnits="objectBoundingBox"><stop offset="0" stop-color="#635414"/><stop offset="0.455" stop-color="#fff18c"/><stop offset="0.506" stop-color="#fff07c"/><stop offset="0.551" stop-color="#ffef6c"/><stop offset="1" stop-color="#696c14"/></linearGradient></defs><g transform="translate(-190.948 -4349.208)"><path d="M723.854,1598.557H75.608c-77.861,0-141.206-54.155-141.206-120.719s63.345-120.72,141.206-120.72H723.854c83.825,0,152.022-58.3,152.022-129.965s-68.2-129.965-152.022-129.965l-854.407,1v9.246l854.407-1c77.863,0,141.207,54.155,141.207,120.719s-63.344,120.719-141.207,120.719H75.608c-83.825,0-152.021,58.3-152.021,129.966S-8.216,1607.8,75.608,1607.8H723.854c77.862,0,141.207,54.155,141.207,120.72s-63.345,120.719-141.207,120.719H372.947v9.246H723.854c83.825,0,152.022-58.3,152.022-129.966S807.679,1598.557,723.854,1598.557Z" transform="translate(321.501 3252.02)" fill="url(#a)"/><path d="M13.543,4.4a3,3,0,0,1,5.172,0L29.6,22.9a3,3,0,0,1-2.586,4.521H5.245A3,3,0,0,1,2.659,22.9Z" transform="translate(686.904 5122.698) rotate(-90)" fill="#fff083"/></g></svg>