<svg xmlns="http://www.w3.org/2000/svg" xmlns:xlink="http://www.w3.org/1999/xlink" width="594.999" height="759.457" viewBox="0 0 594.999 759.457"><defs><style>.a{fill:url(#a);}</style><linearGradient id="a" x2="1.019" y2="1" gradientUnits="objectBoundingBox"><stop offset="0" stop-color="#635414"/><stop offset="0.455" stop-color="#fff18c"/><stop offset="0.506" stop-color="#fff07c"/><stop offset="0.551" stop-color="#ffef6c"/><stop offset="1" stop-color="#696c14"/></linearGradient></defs><path class="a" d="M3238-8691.783l23.678-19.242V-8697H3485.5a68.577,68.577,0,0,0,68.5-68.5,68.577,68.577,0,0,0-68.5-68.5h-438a78.589,78.589,0,0,1-78.5-78.5,78.588,78.588,0,0,1,78.5-78.5h438a68.579,68.579,0,0,0,68.5-68.5,68.579,68.579,0,0,0-68.5-68.5h-438a78.587,78.587,0,0,1-78.5-78.5,78.59,78.59,0,0,1,78.5-78.5h438a68.579,68.579,0,0,0,68.5-68.5,68.578,68.578,0,0,0-68.5-68.5H3184v-10h301.5a78.589,78.589,0,0,1,78.5,78.5,78.59,78.59,0,0,1-78.5,78.5h-438a68.577,68.577,0,0,0-68.5,68.5,68.579,68.579,0,0,0,68.5,68.5h438a78.587,78.587,0,0,1,78.5,78.5,78.59,78.59,0,0,1-78.5,78.5h-438a68.579,68.579,0,0,0-68.5,68.5,68.577,68.577,0,0,0,68.5,68.5h438a78.59,78.59,0,0,1,78.5,78.5,78.59,78.59,0,0,1-78.5,78.5H3261.678v14.456Z" transform="translate(-2969 9432)"/></svg>