<?xml version="1.0" encoding="utf-8"?>
<!-- Generator: Adobe Illustrator 22.0.0, SVG Export Plug-In . SVG Version: 6.00 Build 0)  -->
<svg version="1.1" id="Layer_1" xmlns="http://www.w3.org/2000/svg" xmlns:xlink="http://www.w3.org/1999/xlink" x="0px" y="0px"
	 viewBox="0 0 45 45" style="enable-background:new 0 0 45 45;" xml:space="preserve">
<style type="text/css">
	.st0{fill:#FAC800;}
	.st1{fill:#FFFFFF;}
</style>
<path class="st0" d="M43,45H2c-1.1,0-2-0.9-2-2L0,2c0-1.1,0.9-2,2-2l41,0c1.1,0,2,0.9,2,2v41C45,44.1,44.1,45,43,45z"/>
<g>
	<g>
		<path class="st1" d="M21.5,15.7L10.6,26.6c-0.3,0.3-0.4,0.6-0.4,1c0,0.4,0.1,0.7,0.4,1l0.8,0.8c0.5,0.5,1.4,0.5,1.9,0l9.2-9.2
			l9.2,9.2c0.3,0.3,0.6,0.4,1,0.4c0.4,0,0.7-0.1,1-0.4l0.8-0.8c0.3-0.3,0.4-0.6,0.4-1c0-0.4-0.1-0.7-0.4-1L23.4,15.7
			c-0.3-0.3-0.6-0.4-1-0.4C22.1,15.3,21.8,15.4,21.5,15.7z"/>
	</g>
</g>
</svg>
