<?xml version="1.0" encoding="utf-8"?>
<!-- Generator: Adobe Illustrator 22.0.1, SVG Export Plug-In . SVG Version: 6.00 Build 0)  -->
<svg version="1.1" id="Capa_1" xmlns="http://www.w3.org/2000/svg" xmlns:xlink="http://www.w3.org/1999/xlink" x="0px" y="0px"
	 viewBox="0 0 640 640" style="enable-background:new 0 0 640 640;" xml:space="preserve">
<style type="text/css">
	.st0{opacity:0.43;fill:url(#SVGID_1_);stroke:#FAC800;stroke-width:2;stroke-miterlimit:10;}
	.st1{fill:url(#SVGID_2_);}
	.st2{fill:url(#SVGID_3_);}
	.st3{fill:url(#SVGID_4_);}
	.st4{fill:url(#SVGID_5_);}
	.st5{fill:url(#SVGID_6_);}
</style>
<linearGradient id="SVGID_1_" gradientUnits="userSpaceOnUse" x1="19" y1="320" x2="621" y2="320">
	<stop  offset="0" style="stop-color:#D4AF37"/>
	<stop  offset="0.19" style="stop-color:#EAC45C"/>
	<stop  offset="0.37" style="stop-color:#EDDA8B"/>
	<stop  offset="0.61" style="stop-color:#A47B00"/>
	<stop  offset="0.83" style="stop-color:#CC9E00"/>
	<stop  offset="1" style="stop-color:#E8BF23"/>
</linearGradient>
<circle class="st0" cx="320" cy="320" r="301"/>
<g>
	<linearGradient id="SVGID_2_" gradientUnits="userSpaceOnUse" x1="149.9433" y1="295.7757" x2="441.6075" y2="295.7757">
		<stop  offset="0" style="stop-color:#D4AF37"/>
		<stop  offset="0.19" style="stop-color:#EAC45C"/>
		<stop  offset="0.37" style="stop-color:#EDDA8B"/>
		<stop  offset="0.61" style="stop-color:#A47B00"/>
		<stop  offset="0.83" style="stop-color:#CC9E00"/>
		<stop  offset="1" style="stop-color:#E8BF23"/>
	</linearGradient>
	<path class="st1" d="M441.6,229.3v-10.7c0-10.9-8.5-20.2-19.6-20.2H169.7c-11,0-19.7,9.2-19.7,20.2v154.9c0,0.1,0,0.2,0,0.3
		c0.1,10.7,9,19.4,19.7,19.3h10.2V266.5c0-20.7,16.9-37.3,37.6-37.3H441.6z"/>
	<linearGradient id="SVGID_3_" gradientUnits="userSpaceOnUse" x1="390.7789" y1="391.5742" x2="454.6011" y2="391.5742">
		<stop  offset="0" style="stop-color:#D4AF37"/>
		<stop  offset="0.19" style="stop-color:#EAC45C"/>
		<stop  offset="0.37" style="stop-color:#EDDA8B"/>
		<stop  offset="0.61" style="stop-color:#A47B00"/>
		<stop  offset="0.83" style="stop-color:#CC9E00"/>
		<stop  offset="1" style="stop-color:#E8BF23"/>
	</linearGradient>
	<path class="st2" d="M405.1,405.8c4.2,0.1,8.3-1.8,10.9-5.1c1.7-2,4.1-3.2,6.8-3.2c2.6-0.1,5.1,1.1,6.8,3.1
		c0.6,0.7,1.1,1.3,1.8,1.8c6,5,14.9,4.2,19.9-1.8c5-6,4.2-14.9-1.8-19.9c-6-5-14.9-4.2-19.9,1.8c-0.4,0.5-0.9,1-1.3,1.3
		c-3.8,3.1-9.3,2.5-12.4-1.3c-2.6-3.3-6.7-5.2-10.9-5.2c-7.9,0-14.3,6.3-14.2,14.3C390.8,399.5,397.2,405.8,405.1,405.8z"/>
	<linearGradient id="SVGID_4_" gradientUnits="userSpaceOnUse" x1="197.5116" y1="263.182" x2="490.0567" y2="263.182">
		<stop  offset="0" style="stop-color:#D4AF37"/>
		<stop  offset="0.19" style="stop-color:#EAC45C"/>
		<stop  offset="0.37" style="stop-color:#EDDA8B"/>
		<stop  offset="0.61" style="stop-color:#A47B00"/>
		<stop  offset="0.83" style="stop-color:#CC9E00"/>
		<stop  offset="1" style="stop-color:#E8BF23"/>
	</linearGradient>
	<path class="st3" d="M470,246.9H217.6h-0.1c-11-0.1-19.9,8.7-20,19.6v12.9H490h0.1v-12.9C490.1,255.5,481,246.9,470,246.9z"/>
	<linearGradient id="SVGID_5_" gradientUnits="userSpaceOnUse" x1="197.5116" y1="308.5484" x2="489.9686" y2="308.5484">
		<stop  offset="0" style="stop-color:#D4AF37"/>
		<stop  offset="0.19" style="stop-color:#EAC45C"/>
		<stop  offset="0.37" style="stop-color:#EDDA8B"/>
		<stop  offset="0.61" style="stop-color:#A47B00"/>
		<stop  offset="0.83" style="stop-color:#CC9E00"/>
		<stop  offset="1" style="stop-color:#E8BF23"/>
	</linearGradient>
	<rect x="197.5" y="297.1" class="st4" width="292.5" height="22.9"/>
	<linearGradient id="SVGID_6_" gradientUnits="userSpaceOnUse" x1="197.5116" y1="389.5907" x2="489.9686" y2="389.5907">
		<stop  offset="0" style="stop-color:#D4AF37"/>
		<stop  offset="0.19" style="stop-color:#EAC45C"/>
		<stop  offset="0.37" style="stop-color:#EDDA8B"/>
		<stop  offset="0.61" style="stop-color:#A47B00"/>
		<stop  offset="0.83" style="stop-color:#CC9E00"/>
		<stop  offset="1" style="stop-color:#E8BF23"/>
	</linearGradient>
	<path class="st5" d="M197.5,337.6v83.8c0,11.1,8.9,20.1,20,20.2h252.4c11.1-0.1,20-9.1,20.1-20.2v-83.8L197.5,337.6L197.5,337.6z
		 M405,359.6c6.3,0,12.5,1.8,17.8,5.5c10.8-7.3,24.9-7.3,35.7,0c14.5,9.9,18.4,29.7,8.5,44.2s-29.7,18.4-44.2,8.5
		c-5.3,3.6-11.5,5.5-17.8,5.5c-17.6,0-31.8-14.4-31.8-31.9C373.2,373.9,387.3,359.6,405,359.6z"/>
</g>
</svg>
