<?xml version="1.0" encoding="utf-8"?>
<!-- Generator: Adobe Illustrator 22.0.1, SVG Export Plug-In . SVG Version: 6.00 Build 0)  -->
<svg version="1.1" id="Capa_1" xmlns="http://www.w3.org/2000/svg" xmlns:xlink="http://www.w3.org/1999/xlink" x="0px" y="0px"
	 viewBox="0 0 618.1 618.1" style="enable-background:new 0 0 618.1 618.1;" xml:space="preserve">
<style type="text/css">
	.st0{opacity:0.43;fill:url(#SVGID_1_);stroke:#FAC800;stroke-width:2;stroke-miterlimit:10;}
	.st1{fill:url(#SVGID_2_);}
	.st2{fill:url(#SVGID_3_);}
</style>
<linearGradient id="SVGID_1_" gradientUnits="userSpaceOnUse" x1="8.052" y1="309.052" x2="610.0519" y2="309.052">
	<stop  offset="0" style="stop-color:#D4AF37"/>
	<stop  offset="0.19" style="stop-color:#EAC45C"/>
	<stop  offset="0.37" style="stop-color:#EDDA8B"/>
	<stop  offset="0.61" style="stop-color:#A47B00"/>
	<stop  offset="0.83" style="stop-color:#CC9E00"/>
	<stop  offset="1" style="stop-color:#E8BF23"/>
</linearGradient>
<circle class="st0" cx="309.1" cy="309.1" r="301"/>
<g>
	<g>
		<g>
			<linearGradient id="SVGID_2_" gradientUnits="userSpaceOnUse" x1="164.0823" y1="242.4942" x2="426.7643" y2="242.4942">
				<stop  offset="0" style="stop-color:#D4AF37"/>
				<stop  offset="0.19" style="stop-color:#EAC45C"/>
				<stop  offset="0.37" style="stop-color:#EDDA8B"/>
				<stop  offset="0.61" style="stop-color:#A47B00"/>
				<stop  offset="0.83" style="stop-color:#CC9E00"/>
				<stop  offset="1" style="stop-color:#E8BF23"/>
			</linearGradient>
			<path class="st1" d="M414.7,177.1c-6.6,0-12.1,5.4-12.1,12.1v10c-26-22.6-59-35.2-94.3-35.2c-79.5,0-144.2,64.9-144.2,144.7
				c0,6.6,5.4,12.1,12.1,12.1c6.6,0,12.1-5.4,12.1-12.1c0-66.5,53.8-120.6,120.1-120.6c29.1,0,56.3,10.3,77.8,28.8H375
				c-6.6,0-12.1,5.4-12.1,12.1c0,6.6,5.4,12.1,12.1,12.1h39.6c6.6,0,12.1-5.4,12.1-12.1v-39.9C426.8,182.6,421.3,177.1,414.7,177.1z
				"/>
		</g>
	</g>
	<g>
		<g>
			<linearGradient id="SVGID_3_" gradientUnits="userSpaceOnUse" x1="192.6232" y1="375.6097" x2="454.0217" y2="375.6097">
				<stop  offset="0" style="stop-color:#D4AF37"/>
				<stop  offset="0.19" style="stop-color:#EAC45C"/>
				<stop  offset="0.37" style="stop-color:#EDDA8B"/>
				<stop  offset="0.61" style="stop-color:#A47B00"/>
				<stop  offset="0.83" style="stop-color:#CC9E00"/>
				<stop  offset="1" style="stop-color:#E8BF23"/>
			</linearGradient>
			<path class="st2" d="M441.9,297.2c-6.6,0-12.1,5.4-12.1,12.1c0,66.4-53.8,120.6-120.1,120.6c-28.7,0-55.7-10-77.1-28.1h11.6
				c6.6,0,12.1-5.4,12.1-12.1s-5.4-12.1-12.1-12.1h-39.6c-0.1,0-0.2,0-0.3,0c-0.5,0-0.9,0.1-1.4,0.2c-0.3,0.1-0.7,0.1-1,0.2
				c-0.4,0.1-0.8,0.2-1.2,0.4c-0.4,0.2-0.8,0.2-1.1,0.4c-0.3,0.2-0.7,0.4-1,0.5c-0.4,0.2-0.8,0.5-1.1,0.7c-0.1,0.1-0.2,0.1-0.3,0.2
				c-0.2,0.2-0.4,0.4-0.5,0.5c-0.3,0.3-0.6,0.5-0.9,0.9c-0.3,0.3-0.5,0.6-0.8,0.9c-0.2,0.3-0.5,0.6-0.7,0.9s-0.4,0.7-0.6,1.1
				c-0.2,0.4-0.3,0.7-0.5,1.1c-0.2,0.4-0.2,0.8-0.4,1.1c-0.1,0.4-0.2,0.8-0.2,1.1c-0.1,0.5-0.1,0.8-0.2,1.3c0,0.2-0.1,0.5-0.1,0.8
				v39.8c0,6.6,5.4,12.1,12.1,12.1c6.6,0,12.1-5.4,12.1-12.1v-9.6c25.7,21.9,58.4,34.1,93,34.1c79.5,0,144.2-64.9,144.2-144.7
				C454,302.6,448.6,297.2,441.9,297.2z"/>
		</g>
	</g>
</g>
</svg>
