<?xml version="1.0" encoding="utf-8"?>
<!-- Generator: Adobe Illustrator 22.0.0, SVG Export Plug-In . SVG Version: 6.00 Build 0)  -->
<svg version="1.1" id="Layer_1" xmlns="http://www.w3.org/2000/svg" xmlns:xlink="http://www.w3.org/1999/xlink" x="0px" y="0px"
	 viewBox="0 0 459 459" style="enable-background:new 0 0 459 459;" xml:space="preserve">
<style type="text/css">
	.st0{fill:#8A8C8E;}
</style>
<path class="st0" d="M421.1,293.4c0,26.5-21.5,47.9-47.9,47.9H60.2l63.1-63.1l-22.6-22.6L10.3,346c-6.2,6.2-6.2,16.4,0,22.6
	l90.4,90.4l22.6-22.6l-63.1-63.1h312.9c44.1-0.1,79.8-35.8,79.9-79.9v-63.9h-32V293.4z"/>
<path class="st0" d="M37.6,165.6c0-26.5,21.5-47.9,47.9-47.9h312.9l-63.1,63.1l22.6,22.6l90.4-90.4c6.2-6.2,6.2-16.4,0-22.6L357.9,0
	l-22.6,22.6l63.1,63.1H85.5c-44.1,0.1-79.8,35.8-79.9,79.9v63.9h32V165.6z"/>
</svg>
