<?xml version="1.0" encoding="utf-8"?>
<!-- Generator: Adobe Illustrator 22.0.1, SVG Export Plug-In . SVG Version: 6.00 Build 0)  -->
<svg version="1.1" id="Capa_1" xmlns="http://www.w3.org/2000/svg" xmlns:xlink="http://www.w3.org/1999/xlink" x="0px" y="0px"
	 viewBox="0 0 643.7 643.7" style="enable-background:new 0 0 643.7 643.7;" xml:space="preserve">
<style type="text/css">
	.st0{opacity:0.43;fill:url(#SVGID_1_);stroke:#FAC800;stroke-width:2;stroke-miterlimit:10;}
	.st1{fill:url(#SVGID_2_);}
	.st2{fill:url(#SVGID_3_);}
	.st3{fill:url(#SVGID_4_);}
	.st4{fill:url(#SVGID_5_);}
</style>
<linearGradient id="SVGID_1_" gradientUnits="userSpaceOnUse" x1="20.838" y1="321.838" x2="622.838" y2="321.838">
	<stop  offset="0" style="stop-color:#D4AF37"/>
	<stop  offset="0.19" style="stop-color:#EAC45C"/>
	<stop  offset="0.37" style="stop-color:#EDDA8B"/>
	<stop  offset="0.61" style="stop-color:#A47B00"/>
	<stop  offset="0.83" style="stop-color:#CC9E00"/>
	<stop  offset="1" style="stop-color:#E8BF23"/>
</linearGradient>
<circle class="st0" cx="321.8" cy="321.8" r="301"/>
<g>
	<linearGradient id="SVGID_2_" gradientUnits="userSpaceOnUse" x1="312.9433" y1="224.0731" x2="432.234" y2="224.0731">
		<stop  offset="0" style="stop-color:#D4AF37"/>
		<stop  offset="0.19" style="stop-color:#EAC45C"/>
		<stop  offset="0.37" style="stop-color:#EDDA8B"/>
		<stop  offset="0.61" style="stop-color:#A47B00"/>
		<stop  offset="0.83" style="stop-color:#CC9E00"/>
		<stop  offset="1" style="stop-color:#E8BF23"/>
	</linearGradient>
	<path class="st1" d="M330.3,268.3v-27.2c0-8.9,7.3-16.1,16.1-16.1s16.1,7.3,16.1,16.1c0,18.6,15.1,33.8,33.8,33.8h1
		c19.2,0,34.8-15.6,34.8-34.8v-66.8h-17.3V240c0,9.6-7.8,17.5-17.5,17.5h-1c-9.1,0-16.4-7.4-16.4-16.4c0-18.5-15-33.5-33.5-33.5
		c-18.5,0-33.5,15-33.5,33.5v27.2c2.9-0.3,5.8-0.5,8.7-0.5C324.7,267.8,327.5,268,330.3,268.3L330.3,268.3z"/>
	<linearGradient id="SVGID_3_" gradientUnits="userSpaceOnUse" x1="241.9259" y1="362.9167" x2="259.2741" y2="362.9167">
		<stop  offset="0" style="stop-color:#D4AF37"/>
		<stop  offset="0.19" style="stop-color:#EAC45C"/>
		<stop  offset="0.37" style="stop-color:#EDDA8B"/>
		<stop  offset="0.61" style="stop-color:#A47B00"/>
		<stop  offset="0.83" style="stop-color:#CC9E00"/>
		<stop  offset="1" style="stop-color:#E8BF23"/>
	</linearGradient>
	<path class="st2" d="M241.9,354.2h17.3v17.3h-17.3V354.2z"/>
	<linearGradient id="SVGID_4_" gradientUnits="userSpaceOnUse" x1="383.2065" y1="362.8877" x2="400.4966" y2="362.8877">
		<stop  offset="0" style="stop-color:#D4AF37"/>
		<stop  offset="0.19" style="stop-color:#EAC45C"/>
		<stop  offset="0.37" style="stop-color:#EDDA8B"/>
		<stop  offset="0.61" style="stop-color:#A47B00"/>
		<stop  offset="0.83" style="stop-color:#CC9E00"/>
		<stop  offset="1" style="stop-color:#E8BF23"/>
	</linearGradient>
	<circle class="st3" cx="391.9" cy="362.9" r="8.6"/>
	<linearGradient id="SVGID_5_" gradientUnits="userSpaceOnUse" x1="173.3059" y1="377.538" x2="470.3702" y2="377.538">
		<stop  offset="0" style="stop-color:#D4AF37"/>
		<stop  offset="0.19" style="stop-color:#EAC45C"/>
		<stop  offset="0.37" style="stop-color:#EDDA8B"/>
		<stop  offset="0.61" style="stop-color:#A47B00"/>
		<stop  offset="0.83" style="stop-color:#CC9E00"/>
		<stop  offset="1" style="stop-color:#E8BF23"/>
	</linearGradient>
	<path class="st4" d="M467.8,409.2l-26.9-77.4c-4.5-14.4-14.8-26.4-28.4-33c-13.6-6.6-29.5-7.1-43.6-1.6c-2.2,0.9-4.3,1.9-6.3,3
		c-4.2-3.7-8.8-6.8-13.7-9.2c-8.4-4.1-17.6-6.3-27.2-6.3c-9.1,0-17.9,2-25.9,5.7c-5.4,2.5-10.4,5.8-14.9,9.8c-2-1.1-4.1-2.1-6.3-3
		c-14.1-5.6-30-5-43.6,1.6c-13.6,6.6-23.9,18.6-28.4,33l-26.7,77.4c-3.6,10.4-3.4,21.8,0.7,32.1c4.1,10.3,11.7,18.7,21.5,23.8
		c6.7,3.5,14,5.2,21.2,5.2c12.8,0,25.3-5.3,34.3-15.3l46.2-51.5c3.6-4.1,8.2-7,13.3-8.5v-21h17.3V395c-2.8-0.8-5.7-1.3-8.6-1.3
		c-3,0-5.9,0.5-8.7,1.3v17.4h17.3V395c5.1,1.6,9.8,4.5,13.5,8.5l46.2,51.5c14,15.7,36.9,19.8,55.5,10.1c9.8-5.1,17.4-13.6,21.5-23.8
		C471.2,431.1,471.5,419.6,467.8,409.2L467.8,409.2z M276.6,371.6h-17.3v17.3h-17.3v-17.3h-17.3v-17.3h17.3v-17.3h17.3v17.3h17.3
		V371.6L276.6,371.6z M342.1,345.2h-40.6v-17.3h40.6V345.2z M391.9,388.9c-14.3,0-26-11.7-26-26s11.7-26,26-26c14.3,0,26,11.7,26,26
		S406.2,388.9,391.9,388.9z"/>
</g>
</svg>
