<?xml version="1.0" encoding="utf-8"?>
<!-- Generator: Adobe Illustrator 22.0.1, SVG Export Plug-In . SVG Version: 6.00 Build 0)  -->
<svg version="1.1" id="Capa_1" xmlns="http://www.w3.org/2000/svg" xmlns:xlink="http://www.w3.org/1999/xlink" x="0px" y="0px"
	 viewBox="0 0 620.7 620.7" style="enable-background:new 0 0 620.7 620.7;" xml:space="preserve">
<style type="text/css">
	.st0{opacity:0.43;fill:url(#SVGID_1_);stroke:#FAC800;stroke-width:2;stroke-miterlimit:10;}
	.st1{fill:url(#SVGID_2_);}
	.st2{fill:url(#SVGID_3_);}
	.st3{fill:url(#SVGID_4_);}
	.st4{fill:url(#SVGID_5_);}
	.st5{fill:url(#SVGID_6_);}
	.st6{fill:url(#SVGID_7_);}
	.st7{fill:url(#SVGID_8_);}
	.st8{fill:url(#SVGID_9_);}
	.st9{fill:url(#SVGID_10_);}
	.st10{fill:url(#SVGID_11_);}
</style>
<linearGradient id="SVGID_1_" gradientUnits="userSpaceOnUse" x1="9.3374" y1="310.3374" x2="611.3373" y2="310.3374">
	<stop  offset="0" style="stop-color:#D4AF37"/>
	<stop  offset="0.19" style="stop-color:#EAC45C"/>
	<stop  offset="0.37" style="stop-color:#EDDA8B"/>
	<stop  offset="0.61" style="stop-color:#A47B00"/>
	<stop  offset="0.83" style="stop-color:#CC9E00"/>
	<stop  offset="1" style="stop-color:#E8BF23"/>
</linearGradient>
<circle class="st0" cx="310.3" cy="310.3" r="301"/>
<g>
	<linearGradient id="SVGID_2_" gradientUnits="userSpaceOnUse" x1="352.7672" y1="364.8899" x2="364.8899" y2="364.8899">
		<stop  offset="0" style="stop-color:#D4AF37"/>
		<stop  offset="0.19" style="stop-color:#EAC45C"/>
		<stop  offset="0.37" style="stop-color:#EDDA8B"/>
		<stop  offset="0.61" style="stop-color:#A47B00"/>
		<stop  offset="0.83" style="stop-color:#CC9E00"/>
		<stop  offset="1" style="stop-color:#E8BF23"/>
	</linearGradient>
	<circle class="st1" cx="358.8" cy="364.9" r="6.1"/>
	<linearGradient id="SVGID_3_" gradientUnits="userSpaceOnUse" x1="340.6444" y1="377.0126" x2="352.7672" y2="377.0126">
		<stop  offset="0" style="stop-color:#D4AF37"/>
		<stop  offset="0.19" style="stop-color:#EAC45C"/>
		<stop  offset="0.37" style="stop-color:#EDDA8B"/>
		<stop  offset="0.61" style="stop-color:#A47B00"/>
		<stop  offset="0.83" style="stop-color:#CC9E00"/>
		<stop  offset="1" style="stop-color:#E8BF23"/>
	</linearGradient>
	<circle class="st2" cx="346.7" cy="377" r="6.1"/>
	<linearGradient id="SVGID_4_" gradientUnits="userSpaceOnUse" x1="328.5216" y1="364.8899" x2="340.6444" y2="364.8899">
		<stop  offset="0" style="stop-color:#D4AF37"/>
		<stop  offset="0.19" style="stop-color:#EAC45C"/>
		<stop  offset="0.37" style="stop-color:#EDDA8B"/>
		<stop  offset="0.61" style="stop-color:#A47B00"/>
		<stop  offset="0.83" style="stop-color:#CC9E00"/>
		<stop  offset="1" style="stop-color:#E8BF23"/>
	</linearGradient>
	<circle class="st3" cx="334.6" cy="364.9" r="6.1"/>
	<linearGradient id="SVGID_5_" gradientUnits="userSpaceOnUse" x1="280.0306" y1="364.8899" x2="292.1533" y2="364.8899">
		<stop  offset="0" style="stop-color:#D4AF37"/>
		<stop  offset="0.19" style="stop-color:#EAC45C"/>
		<stop  offset="0.37" style="stop-color:#EDDA8B"/>
		<stop  offset="0.61" style="stop-color:#A47B00"/>
		<stop  offset="0.83" style="stop-color:#CC9E00"/>
		<stop  offset="1" style="stop-color:#E8BF23"/>
	</linearGradient>
	<circle class="st4" cx="286.1" cy="364.9" r="6.1"/>
	<linearGradient id="SVGID_6_" gradientUnits="userSpaceOnUse" x1="267.9078" y1="377.0126" x2="280.0306" y2="377.0126">
		<stop  offset="0" style="stop-color:#D4AF37"/>
		<stop  offset="0.19" style="stop-color:#EAC45C"/>
		<stop  offset="0.37" style="stop-color:#EDDA8B"/>
		<stop  offset="0.61" style="stop-color:#A47B00"/>
		<stop  offset="0.83" style="stop-color:#CC9E00"/>
		<stop  offset="1" style="stop-color:#E8BF23"/>
	</linearGradient>
	<circle class="st5" cx="274" cy="377" r="6.1"/>
	<linearGradient id="SVGID_7_" gradientUnits="userSpaceOnUse" x1="255.785" y1="364.8899" x2="267.9078" y2="364.8899">
		<stop  offset="0" style="stop-color:#D4AF37"/>
		<stop  offset="0.19" style="stop-color:#EAC45C"/>
		<stop  offset="0.37" style="stop-color:#EDDA8B"/>
		<stop  offset="0.61" style="stop-color:#A47B00"/>
		<stop  offset="0.83" style="stop-color:#CC9E00"/>
		<stop  offset="1" style="stop-color:#E8BF23"/>
	</linearGradient>
	<circle class="st6" cx="261.8" cy="364.9" r="6.1"/>
	<linearGradient id="SVGID_8_" gradientUnits="userSpaceOnUse" x1="155.2018" y1="310.3374" x2="465.473" y2="310.3374">
		<stop  offset="0" style="stop-color:#D4AF37"/>
		<stop  offset="0.19" style="stop-color:#EAC45C"/>
		<stop  offset="0.37" style="stop-color:#EDDA8B"/>
		<stop  offset="0.61" style="stop-color:#A47B00"/>
		<stop  offset="0.83" style="stop-color:#CC9E00"/>
		<stop  offset="1" style="stop-color:#E8BF23"/>
	</linearGradient>
	<path class="st7" d="M170.6,303c2,2.7,5.8,3.3,8.5,1.3l16.1-11.8v157.2c0,3.3,2.7,6.1,6.1,6.1h81.8c3.3,0,6.1-2.7,6.1-6.1
		c0-3.3-2.7-6.1-6.1-6.1h-75.8V283.6l103-75.5l103,75.5v160.1h-75.8c-3.3,0-6.1,2.7-6.1,6.1c0,3.3,2.7,6.1,6.1,6.1h81.8
		c3.3,0,6.1-2.7,6.1-6.1V292.5l16.1,11.8c2.7,2,6.5,1.4,8.5-1.3l14.3-19.6c2-2.7,1.4-6.5-1.3-8.5l-37.5-27.4v-58.4h6.1
		c3.3,0,6.1-2.7,6.1-6.1c0-3.3-2.7-6.1-6.1-6.1H371c-3.3,0-6.1,2.7-6.1,6.1c0,3.3,2.7,6.1,6.1,6.1h6.1v23L313.9,166
		c-2.1-1.6-5-1.6-7.1,0L157.7,274.9c-2.7,2-3.3,5.8-1.3,8.5L170.6,303z M389.1,189.1h24.2v49.6L389.1,221V189.1z M310.3,178.4
		c0.1,0,137.4,100.4,140.6,102.7l-7.1,9.8l-129.9-95.2c-1.1-0.8-2.3-1.2-3.6-1.2s-2.5,0.4-3.6,1.2l-129.9,95.2l-7.1-9.8L310.3,178.4
		z"/>
	<linearGradient id="SVGID_9_" gradientUnits="userSpaceOnUse" x1="298.2147" y1="377.0126" x2="322.4602" y2="377.0126">
		<stop  offset="0" style="stop-color:#D4AF37"/>
		<stop  offset="0.19" style="stop-color:#EAC45C"/>
		<stop  offset="0.37" style="stop-color:#EDDA8B"/>
		<stop  offset="0.61" style="stop-color:#A47B00"/>
		<stop  offset="0.83" style="stop-color:#CC9E00"/>
		<stop  offset="1" style="stop-color:#E8BF23"/>
	</linearGradient>
	<path class="st8" d="M298.2,377c0,3.3,2.7,6.1,6.1,6.1h12.1c3.3,0,6.1-2.7,6.1-6.1c0-3.3-2.7-6.1-6.1-6.1h-12.1
		C300.9,371,298.2,373.7,298.2,377L298.2,377z"/>
	<linearGradient id="SVGID_10_" gradientUnits="userSpaceOnUse" x1="219.4161" y1="346.7057" x2="401.2576" y2="346.7057">
		<stop  offset="0" style="stop-color:#D4AF37"/>
		<stop  offset="0.19" style="stop-color:#EAC45C"/>
		<stop  offset="0.37" style="stop-color:#EDDA8B"/>
		<stop  offset="0.61" style="stop-color:#A47B00"/>
		<stop  offset="0.83" style="stop-color:#CC9E00"/>
		<stop  offset="1" style="stop-color:#E8BF23"/>
	</linearGradient>
	<path class="st9" d="M346.7,298.2h-24.2c-10,0-18.2,8.2-18.2,18.2v18.2H295c-6.9-7.7-16.6-12.1-27.1-12.1
		c-16.8,0-31.4,11.4-35.3,27.8l-12.5,51.3c-0.5,1.9-0.7,3.8-0.7,5.7c0,13.4,10.9,24.2,24.2,24.2c7.3,0,14.1-3.2,18.7-8.8l12.7-15.4
		h70.5l12.7,15.4c4.6,5.6,11.4,8.8,18.7,8.8c13.4,0,24.2-10.9,24.2-24.2c0-1.9-0.2-3.9-0.7-5.7l-12.5-51.4
		c-4-16.4-18.5-27.8-35.3-27.8c-10.5,0-20.2,4.4-27.1,12.1h-9.3v-18.2c0-3.3,2.7-6.1,6.1-6.1h24.2c10,0,18.2-8.2,18.2-18.2
		s-8.2-18.2-18.2-18.2h-60.6c-3.3,0-6.1-2.7-6.1-6.1c0-3.3-2.7-6.1-6.1-6.1s-6.1,2.7-6.1,6.1c0,10,8.2,18.2,18.2,18.2h60.6
		c3.3,0,6.1,2.7,6.1,6.1C352.8,295.5,350,298.2,346.7,298.2L346.7,298.2z M328.5,346.7c1.9,0,3.7-0.9,4.8-2.4
		c4.6-6.2,11.7-9.7,19.4-9.7c11.2,0,20.9,7.6,23.6,18.5l12.5,51.4c0.2,0.9,0.3,1.9,0.3,2.9c0,6.7-5.4,12.1-12.1,12.1
		c-3.6,0-7-1.6-9.4-4.4l-14.5-17.6c-1.2-1.4-2.9-2.2-4.7-2.2h-76.2c-1.8,0-3.5,0.8-4.7,2.2L253,415c-2.3,2.8-5.7,4.4-9.4,4.4
		c-6.7,0-12.1-5.4-12.1-12.1c0-1,0.1-1.9,0.3-2.9c0,0,12.5-51.4,12.5-51.4c2.6-10.9,12.3-18.5,23.6-18.5c7.7,0,14.8,3.5,19.4,9.7
		c1.1,1.5,2.9,2.4,4.8,2.4L328.5,346.7z"/>
	<linearGradient id="SVGID_11_" gradientUnits="userSpaceOnUse" x1="304.2761" y1="449.7492" x2="316.3989" y2="449.7492">
		<stop  offset="0" style="stop-color:#D4AF37"/>
		<stop  offset="0.19" style="stop-color:#EAC45C"/>
		<stop  offset="0.37" style="stop-color:#EDDA8B"/>
		<stop  offset="0.61" style="stop-color:#A47B00"/>
		<stop  offset="0.83" style="stop-color:#CC9E00"/>
		<stop  offset="1" style="stop-color:#E8BF23"/>
	</linearGradient>
	<circle class="st10" cx="310.3" cy="449.7" r="6.1"/>
</g>
</svg>
