<?xml version="1.0" encoding="utf-8"?>
<!-- Generator: Adobe Illustrator 22.0.1, SVG Export Plug-In . SVG Version: 6.00 Build 0)  -->
<svg version="1.1" id="Layer_1" xmlns="http://www.w3.org/2000/svg" xmlns:xlink="http://www.w3.org/1999/xlink" x="0px" y="0px"
	 viewBox="0 0 614.3 614.3" style="enable-background:new 0 0 614.3 614.3;" xml:space="preserve">
<style type="text/css">
	.st0{opacity:0.43;fill:url(#SVGID_1_);stroke:#FAC800;stroke-width:2;stroke-miterlimit:10;}
	.st1{fill:url(#SVGID_2_);}
	.st2{fill:url(#SVGID_3_);}
	.st3{fill:url(#SVGID_4_);}
	.st4{fill:url(#SVGID_5_);}
	.st5{fill:url(#SVGID_6_);}
	.st6{fill:url(#SVGID_7_);}
</style>
<linearGradient id="SVGID_1_" gradientUnits="userSpaceOnUse" x1="6.162" y1="307.162" x2="608.162" y2="307.162">
	<stop  offset="0" style="stop-color:#D4AF37"/>
	<stop  offset="0.19" style="stop-color:#EAC45C"/>
	<stop  offset="0.37" style="stop-color:#EDDA8B"/>
	<stop  offset="0.61" style="stop-color:#A47B00"/>
	<stop  offset="0.83" style="stop-color:#CC9E00"/>
	<stop  offset="1" style="stop-color:#E8BF23"/>
</linearGradient>
<circle class="st0" cx="307.2" cy="307.2" r="301"/>
<g>
	<linearGradient id="SVGID_2_" gradientUnits="userSpaceOnUse" x1="163.3453" y1="347.2188" x2="440.6627" y2="347.2188">
		<stop  offset="0" style="stop-color:#D4AF37"/>
		<stop  offset="0.19" style="stop-color:#EAC45C"/>
		<stop  offset="0.37" style="stop-color:#EDDA8B"/>
		<stop  offset="0.61" style="stop-color:#A47B00"/>
		<stop  offset="0.83" style="stop-color:#CC9E00"/>
		<stop  offset="1" style="stop-color:#E8BF23"/>
	</linearGradient>
	<path class="st1" d="M345.4,362.4c-1.2-30.5,31.6-40.1,31.9-40.1h63.1v-20.9c0-18.6-16.1-29.9-35.2-29.9l-208.7,1.2
		c-2.1-0.6-3.3-2-3.3-5.2c0-2.6,0.9-5.2,3.3-5.2c10.3-0.3,14.6-0.3,18.2,0v-20l-23.1,0.3c-3,0-6.1,0.6-8.8,2
		c-5.2,2.6-13,7.3-16.4,14.8c-0.9,2.3-2.7,5.8-2.7,8.1c0,1.2-0.3,167.8-0.3,167.8c0,19.2,22.5,16.8,22.5,16.8h220.3
		c19.1,0,34.6-15.1,34.6-33.7v-16.3h-60.4C379.7,402.5,346.9,397.8,345.4,362.4z"/>
	<linearGradient id="SVGID_3_" gradientUnits="userSpaceOnUse" x1="359.0452" y1="362.419" x2="450.9786" y2="362.419">
		<stop  offset="0" style="stop-color:#D4AF37"/>
		<stop  offset="0.19" style="stop-color:#EAC45C"/>
		<stop  offset="0.37" style="stop-color:#EDDA8B"/>
		<stop  offset="0.61" style="stop-color:#A47B00"/>
		<stop  offset="0.83" style="stop-color:#CC9E00"/>
		<stop  offset="1" style="stop-color:#E8BF23"/>
	</linearGradient>
	<path class="st2" d="M378.8,332.5c-5.8,0-11.2,2.6-14.3,7c-3,4.4-5.5,11.6-5.5,22.9c0,13.1,3.6,20.6,7.6,24.7
		c3.3,3.5,8.2,5.2,13,5.2H451v-59.8H378.8z M402.4,373.7c-8.8,2-16.4-5.5-14.6-13.9c0.9-4.1,4.2-7.3,8.5-8.4
		c8.8-2,16.7,5.5,14.6,13.9C410,369.4,406.7,372.6,402.4,373.7z"/>
	<linearGradient id="SVGID_4_" gradientUnits="userSpaceOnUse" x1="225.8479" y1="222.5145" x2="257.0992" y2="222.5145">
		<stop  offset="0" style="stop-color:#D4AF37"/>
		<stop  offset="0.19" style="stop-color:#EAC45C"/>
		<stop  offset="0.37" style="stop-color:#EDDA8B"/>
		<stop  offset="0.61" style="stop-color:#A47B00"/>
		<stop  offset="0.83" style="stop-color:#CC9E00"/>
		<stop  offset="1" style="stop-color:#E8BF23"/>
	</linearGradient>
	<path class="st3" d="M257.1,183.3L235.9,262h-10c0,0,6.1-54.9,9.1-65.3C237.7,186.5,250.7,182.1,257.1,183.3z"/>
	<linearGradient id="SVGID_5_" gradientUnits="userSpaceOnUse" x1="249.5139" y1="217.5362" x2="297.4528" y2="217.5362">
		<stop  offset="0" style="stop-color:#D4AF37"/>
		<stop  offset="0.19" style="stop-color:#EAC45C"/>
		<stop  offset="0.37" style="stop-color:#EDDA8B"/>
		<stop  offset="0.61" style="stop-color:#A47B00"/>
		<stop  offset="0.83" style="stop-color:#CC9E00"/>
		<stop  offset="1" style="stop-color:#E8BF23"/>
	</linearGradient>
	<path class="st4" d="M297.5,174l-37,88h-10.9c0,0,18.2-72,21.8-79C275,176,285,171.1,297.5,174z"/>
	<linearGradient id="SVGID_6_" gradientUnits="userSpaceOnUse" x1="273.4834" y1="212.0217" x2="440.6621" y2="212.0217">
		<stop  offset="0" style="stop-color:#D4AF37"/>
		<stop  offset="0.19" style="stop-color:#EAC45C"/>
		<stop  offset="0.37" style="stop-color:#EDDA8B"/>
		<stop  offset="0.61" style="stop-color:#A47B00"/>
		<stop  offset="0.83" style="stop-color:#CC9E00"/>
		<stop  offset="1" style="stop-color:#E8BF23"/>
	</linearGradient>
	<path class="st5" d="M273.5,262c0,0,36.4-84.8,39.1-88.9c2.4-4.1,13.7-13.4,22.8-10.5c9.1,2.9,97.7,37.5,101.6,45
		c3.9,7.5,9.7,11.6-13.7,54.3c-21.5-0.6-21.5-0.6-21.5-0.6l5.2-12.5c0,0-9.7-4.6-15.8-15.4c-6.1-10.7-0.3-25.8-0.3-25.8L359.3,196
		c0,0-6.4,13.1-15.8,16c-9.4,2.9-24.6,1.7-24.6,1.7L297.5,262H273.5z"/>
	<linearGradient id="SVGID_7_" gradientUnits="userSpaceOnUse" x1="314.1404" y1="248.3038" x2="385.7453" y2="248.3038">
		<stop  offset="0" style="stop-color:#D4AF37"/>
		<stop  offset="0.19" style="stop-color:#EAC45C"/>
		<stop  offset="0.37" style="stop-color:#EDDA8B"/>
		<stop  offset="0.61" style="stop-color:#A47B00"/>
		<stop  offset="0.83" style="stop-color:#CC9E00"/>
		<stop  offset="1" style="stop-color:#E8BF23"/>
	</linearGradient>
	<path class="st6" d="M385.7,262c0,0-9.4-27.3-38.2-27.3c-28.8,0-33.4,27.3-33.4,27.3H385.7z"/>
</g>
</svg>
