<svg width="146" height="32" viewBox="0 0 146 32" fill="none" xmlns="http://www.w3.org/2000/svg">
<path fill-rule="evenodd" clip-rule="evenodd" d="M0 6.17068V24.8402C0 28.2442 2.72849 31.0109 6.0855 31.0109H24.4973C27.8543 31.0109 30.5828 28.2442 30.5828 24.8402V6.17068C30.5828 2.76669 27.8543 0 24.4973 0H6.0855C2.72849 0 0 2.76669 0 6.17068ZM24.4973 5.00853C25.1184 5.00853 25.6434 5.54087 25.6434 6.17068V24.8402C25.6434 25.47 25.1184 26.0023 24.4973 26.0023H6.0855C5.46438 26.0023 4.93939 25.47 4.93939 24.8402V6.17068C4.93939 5.54087 5.46438 5.00853 6.0855 5.00853H24.4973ZM13.9382 11.704V10.167C13.9382 8.56247 12.6516 7.25785 11.0692 7.25785C9.48687 7.25785 8.20026 8.56247 8.20026 10.167V20.8438C8.20026 22.4484 9.48687 23.753 11.0692 23.753C12.6516 23.753 13.9382 22.4484 13.9382 20.8438V19.3143L14.2414 19.6217L17.4801 22.9057C18.5966 24.0379 20.4156 24.0379 21.5321 22.9057C22.6561 21.7661 22.6561 19.9216 21.5321 18.7894L18.2934 15.5054L21.5321 12.2214C22.6487 11.0892 22.6487 9.24474 21.5321 8.11257C20.4156 6.98041 18.5966 6.98041 17.4801 8.11257L14.2414 11.3966L13.9382 11.704ZM13.9382 11.7041V19.3068L10.1893 15.5054L13.9382 11.7041Z" fill="url(#paint0_linear)"/>
<path fill-rule="evenodd" clip-rule="evenodd" d="M44.7646 15.3047V8.64045C44.7646 7.84835 44.5918 7.26952 44.2313 6.88108C43.8783 6.49265 43.4126 6.30225 42.8417 6.30225C42.2634 6.30225 41.8052 6.50027 41.4672 6.8887C41.1292 7.27713 40.9639 7.86359 40.9639 8.64045V22.7763C40.9639 23.378 40.979 23.8426 41.0015 24.1625C41.024 24.4823 41.0991 24.7641 41.2193 25.0079C41.3846 25.3049 41.6099 25.5334 41.9103 25.7086C42.2033 25.8837 42.5187 25.9675 42.8417 25.9675C43.4051 25.9675 43.8632 25.7695 44.2238 25.3887C44.5843 25.0079 44.7646 24.4138 44.7646 23.6217V19.6917L47.8742 16.668L52.3508 23.675C52.5311 23.9873 52.7339 24.33 52.9667 24.7108C53.1921 25.0916 53.4775 25.3963 53.808 25.6248C54.1385 25.8533 54.5741 25.9675 55.0999 25.9675C55.6632 25.9675 56.1064 25.8152 56.4369 25.5029C56.7674 25.1907 56.9326 24.8251 56.9326 24.3986C56.9326 24.0177 56.8425 23.6293 56.6547 23.2257C56.4669 22.822 56.189 22.3498 55.8135 21.8166L50.4956 14.0861L55.1149 9.65341C55.6858 9.09743 55.9712 8.54144 55.9712 7.97783C55.9712 7.50562 55.806 7.11719 55.468 6.78969C55.13 6.46219 54.6943 6.30225 54.146 6.30225C53.7254 6.30225 53.3874 6.39364 53.1395 6.57643C52.8841 6.75922 52.5837 7.04103 52.2231 7.42184L44.7646 15.3047ZM60.2151 9.4629C60.5606 9.76755 60.9737 9.91987 61.4619 9.91987C61.9276 9.91987 62.3332 9.76755 62.6787 9.45528C63.0167 9.14301 63.1895 8.72412 63.1895 8.17574C63.1895 7.61214 63.0167 7.18562 62.6637 6.88859C62.3107 6.59155 61.9126 6.44684 61.4619 6.44684C60.9962 6.44684 60.5831 6.60679 60.2301 6.93429C59.8771 7.26179 59.6968 7.67307 59.6968 8.17574C59.6968 8.73173 59.8695 9.15824 60.2151 9.4629ZM63.182 23.8044V13.5757C63.182 12.9512 63.0167 12.4561 62.6862 12.0981C62.3482 11.7402 61.9276 11.565 61.4168 11.565C60.9061 11.565 60.493 11.7478 60.17 12.0981C59.847 12.4561 59.6893 12.9816 59.6893 13.6823V23.812C59.6893 24.4975 59.847 25.0306 60.17 25.4038C60.493 25.777 60.9061 25.9598 61.4168 25.9598C61.9351 25.9598 62.3557 25.777 62.6862 25.4114C63.0167 25.0458 63.182 24.5127 63.182 23.8044ZM69.5666 13.53V13.9565C70.1825 13.1339 70.851 12.5322 71.5796 12.1514C72.3082 11.763 73.1494 11.5726 74.0958 11.5726C75.0197 11.5726 75.8384 11.7782 76.567 12.1819C77.2881 12.5856 77.8364 13.1644 78.1894 13.9032C78.4223 14.3373 78.565 14.8019 78.6401 15.3046C78.7077 15.8073 78.7452 16.447 78.7452 17.2239V23.812C78.7452 24.5203 78.5875 25.0534 78.2645 25.419C77.9415 25.7846 77.5284 25.9674 77.0177 25.9674C76.4994 25.9674 76.0788 25.7846 75.7483 25.4114C75.4253 25.0382 75.2601 24.5051 75.2601 23.8196V17.917C75.2601 16.7517 75.1023 15.8606 74.7793 15.236C74.4564 14.6191 73.8254 14.3068 72.864 14.3068C72.2406 14.3068 71.6772 14.4973 71.1665 14.8705C70.6557 15.2437 70.2802 15.7616 70.0398 16.4166C69.867 16.9421 69.7844 17.9322 69.7844 19.3717V23.8044C69.7844 24.5203 69.6192 25.0611 69.2887 25.419C68.9582 25.777 68.5376 25.9598 68.0193 25.9598C67.5161 25.9598 67.1029 25.777 66.78 25.4038C66.457 25.0306 66.2917 24.4974 66.2917 23.812V13.5757C66.2917 12.9054 66.4344 12.3952 66.7274 12.0677C67.0203 11.7325 67.4109 11.565 67.9141 11.565C68.2221 11.565 68.5 11.6411 68.7479 11.7859C68.9957 11.9306 69.191 12.1514 69.3413 12.4485C69.4915 12.7455 69.5666 13.1035 69.5666 13.53ZM94.6612 24.4441V14.1621C94.6612 13.3243 94.5561 12.6846 94.3458 12.2428C94.1204 11.7935 93.6773 11.5726 93.0013 11.5726C92.5356 11.5726 92.1525 11.7402 91.852 12.0753C91.5516 12.4104 91.4014 12.8826 91.4014 13.4995V13.9793C90.7779 13.1568 90.1019 12.5551 89.3809 12.1667C88.6598 11.7782 87.8035 11.5878 86.8121 11.5878C85.9858 11.5878 85.2197 11.7325 84.5362 12.0372C83.8527 12.3418 83.2367 12.7836 82.711 13.37C82.1777 13.9565 81.7721 14.68 81.4866 15.5331C81.2012 16.3861 81.0585 17.3457 81.0585 18.412C81.0585 19.8363 81.2989 21.093 81.7646 22.1821C82.2302 23.2712 82.9062 24.1243 83.7775 24.7259C84.6563 25.3276 85.6779 25.6323 86.8421 25.6323C87.8186 25.6323 88.6523 25.4343 89.3583 25.0382C90.0644 24.6422 90.6803 24.0633 91.2211 23.3017C91.2061 24.4594 91.1835 25.2972 91.146 25.8227C91.1084 26.3406 90.9958 26.8357 90.793 27.2926C90.5902 27.7496 90.2371 28.1076 89.7414 28.3589C89.2457 28.6102 88.5396 28.7397 87.6383 28.7397C87.1951 28.7397 86.797 28.7016 86.459 28.6179C86.1135 28.5417 85.8206 28.4122 85.5802 28.2447C85.3324 28.0771 85.1145 27.8715 84.9117 27.6354C84.7164 27.3993 84.5211 27.1632 84.3334 26.927C83.9503 26.4701 83.4996 26.2416 82.9889 26.2416C82.5758 26.2416 82.2302 26.3787 81.9373 26.6529C81.6444 26.927 81.5017 27.2774 81.5017 27.7115C81.5017 28.2827 81.757 28.8387 82.2678 29.3795C82.7786 29.9202 83.5071 30.362 84.4535 30.7047C85.4 31.0475 86.4741 31.215 87.6758 31.215C88.9828 31.215 90.0794 31.0779 90.9657 30.8114C91.8445 30.5448 92.5581 30.1335 93.1064 29.5775C93.6472 29.0215 94.0453 28.3208 94.2932 27.4754C94.541 26.63 94.6612 25.617 94.6612 24.4441ZM85.4751 21.9003C84.8591 21.1691 84.5512 20.08 84.5512 18.6481C84.5512 17.2315 84.8516 16.1348 85.46 15.3731C86.0609 14.6039 86.8571 14.2155 87.8561 14.2155C88.8776 14.2155 89.7039 14.6115 90.3273 15.4188C90.9507 16.2262 91.2662 17.3457 91.2662 18.7928C91.2662 19.6992 91.1009 20.476 90.778 21.1082C90.455 21.7404 90.0343 22.2202 89.5161 22.5324C88.9978 22.8447 88.4495 23.0047 87.8711 23.0047C86.8947 23.0047 86.091 22.6315 85.4751 21.9003ZM101.767 8.64046V22.4793H109.466C110.082 22.4793 110.547 22.6316 110.878 22.9362C111.208 23.2409 111.373 23.6217 111.373 24.0787C111.373 24.5433 111.208 24.9241 110.885 25.2135C110.562 25.5029 110.089 25.6476 109.466 25.6476H100.294C99.4683 25.6476 98.8749 25.4649 98.5068 25.0917C98.1463 24.7185 97.966 24.1168 97.966 23.2866V8.64046C97.966 7.86359 98.1388 7.27714 98.4843 6.88871C98.8298 6.50028 99.2805 6.30225 99.8438 6.30225C100.415 6.30225 100.88 6.49266 101.233 6.88109C101.586 7.26952 101.767 7.84836 101.767 8.64046ZM113.747 9.4629C114.093 9.76755 114.506 9.91987 114.994 9.91987C115.46 9.91987 115.865 9.76755 116.211 9.45528C116.549 9.14301 116.722 8.72412 116.722 8.17574C116.722 7.61214 116.549 7.18562 116.196 6.88859C115.843 6.59155 115.445 6.44684 114.994 6.44684C114.528 6.44684 114.115 6.60679 113.762 6.93429C113.409 7.26179 113.229 7.67307 113.229 8.17574C113.229 8.73173 113.402 9.15824 113.747 9.4629ZM116.722 23.8044V13.5757C116.722 12.9512 116.549 12.4561 116.226 12.0981C115.888 11.7402 115.467 11.565 114.956 11.565C114.446 11.565 114.033 11.7478 113.71 12.0981C113.387 12.4561 113.229 12.9816 113.229 13.6823V23.812C113.229 24.4975 113.387 25.0306 113.71 25.4038C114.033 25.777 114.446 25.9598 114.956 25.9598C115.475 25.9598 115.895 25.777 116.226 25.4114C116.556 25.0458 116.722 24.5127 116.722 23.8044ZM122.4 13.7737L125.224 21.8165L128.266 13.4234C128.506 12.7455 128.739 12.2733 128.972 11.9915C129.205 11.7097 129.55 11.5726 130.023 11.5726C130.467 11.5726 130.842 11.7249 131.158 12.0296C131.473 12.3342 131.623 12.6846 131.623 13.0806C131.623 13.233 131.593 13.4157 131.541 13.6214C131.488 13.827 131.421 14.025 131.345 14.2078C131.27 14.3906 131.188 14.5963 131.098 14.8324L127.748 23.2636C127.711 23.3539 127.672 23.4525 127.629 23.5599L127.625 23.571L127.625 23.5717C127.553 23.7514 127.472 23.9553 127.38 24.1852C127.229 24.5584 127.064 24.8783 126.884 25.1372C126.704 25.4038 126.478 25.6094 126.208 25.7541C125.937 25.8988 125.614 25.975 125.231 25.975C124.736 25.975 124.345 25.8608 124.045 25.6323C123.752 25.4038 123.534 25.1525 123.391 24.8783C123.248 24.6041 123.016 24.0709 122.685 23.2636L119.358 14.9162C119.304 14.7689 119.246 14.6217 119.188 14.4717C119.164 14.4121 119.141 14.3522 119.117 14.2916C119.035 14.086 118.967 13.8727 118.914 13.6595C118.862 13.4462 118.832 13.2558 118.832 13.1035C118.832 12.8598 118.907 12.6236 119.05 12.3875C119.192 12.1514 119.395 11.9534 119.651 11.8011C119.906 11.6488 120.184 11.5726 120.484 11.5726C121.063 11.5726 121.461 11.7402 121.679 12.0753C121.896 12.4104 122.137 12.9816 122.4 13.7737ZM136.303 19.6382H143.131C144.047 19.6382 144.753 19.5012 145.249 19.2498C145.752 18.9909 146 18.412 146 17.5209C146 16.5613 145.76 15.6168 145.271 14.6953C144.783 13.7737 144.055 13.0197 143.078 12.4332C142.102 11.8468 140.937 11.5574 139.57 11.5574C138.526 11.5574 137.572 11.7249 136.709 12.0677C135.852 12.4104 135.124 12.8978 134.538 13.5376C133.945 14.1774 133.501 14.9466 133.193 15.8377C132.885 16.7288 132.735 17.7037 132.735 18.7471C132.735 20.9711 133.359 22.7305 134.605 24.0252C135.845 25.32 137.595 25.9674 139.833 25.9674C140.81 25.9674 141.681 25.8379 142.432 25.579C143.183 25.3124 143.814 24.9925 144.31 24.5965C144.806 24.2004 145.181 23.7891 145.429 23.3626C145.677 22.9361 145.797 22.5629 145.797 22.243C145.797 21.8774 145.684 21.5956 145.467 21.3976C145.241 21.1996 144.956 21.1006 144.595 21.1006C144.265 21.1006 144.009 21.1844 143.829 21.3367C143.394 21.748 143.041 22.0755 142.77 22.3192C142.5 22.5553 142.199 22.7838 141.876 22.997C141.546 23.2103 141.215 23.3626 140.87 23.4616C140.524 23.5606 140.149 23.614 139.728 23.614C139.105 23.614 138.541 23.4616 138.023 23.1494C137.505 22.8371 137.092 22.3801 136.784 21.7632C136.468 21.1539 136.311 20.4456 136.303 19.6382ZM142.635 17.6275H136.303C136.423 16.4318 136.761 15.5331 137.317 14.9238C137.873 14.3145 138.586 14.0098 139.458 14.0098C140.374 14.0098 141.11 14.3068 141.666 14.9085C142.229 15.5102 142.552 16.4166 142.635 17.6275Z" fill="url(#paint1_linear)"/>
<defs>
<linearGradient id="paint0_linear" x1="1.23034" y1="1.05458" x2="28.157" y2="28.9799" gradientUnits="userSpaceOnUse">
<stop stop-color="#01C5FF"/>
<stop offset="1" stop-color="#FE02F7"/>
</linearGradient>
<linearGradient id="paint1_linear" x1="40.9639" y1="8.19779" x2="144.703" y2="15.0716" gradientUnits="userSpaceOnUse">
<stop stop-color="#01C5FF"/>
<stop offset="1" stop-color="#FE02F7"/>
</linearGradient>
</defs>
</svg>
