<svg width="36" height="35" viewBox="0 0 36 35" fill="none" xmlns="http://www.w3.org/2000/svg">
  <path fill-rule="evenodd" clip-rule="evenodd" d="M17.9639 0C8.29888 0 0.463867 7.83502 0.463867 17.5C0.463867 27.165 8.29888 35 17.9639 35C27.6289 35 35.4639 27.165 35.4639 17.5C35.4639 7.83502 27.6289 0 17.9639 0ZM14.2636 25.3462C14.455 25.5344 14.7063 25.6289 14.9576 25.6289C15.2088 25.6289 15.4603 25.5344 15.6517 25.3462L27.6759 13.5263C28.0596 13.1489 28.0596 12.5392 27.6759 12.1618C27.292 11.7846 26.6717 11.7846 26.288 12.1618L14.9576 23.2996L9.63951 18.0719C9.2556 17.6947 8.63535 17.6947 8.25162 18.0719C7.86771 18.4491 7.86771 19.059 8.25162 19.4362L14.2636 25.3462Z" fill="#2CE999" />
</svg>
