<svg width="26" height="27" viewBox="0 0 26 27" fill="none" xmlns="http://www.w3.org/2000/svg">
  <path d="M24.2433 26.0123C24.573 26.0123 24.9027 25.8869 25.1531 25.6345C25.656 25.1317 25.656 24.3165 25.1531 23.8136L2.70104 1.36151C2.19819 0.858663 1.38295 0.858663 0.880104 1.36151C0.377256 1.86436 0.377256 2.6796 0.880104 3.18276L23.3319 25.6345C23.5843 25.8853 23.9139 26.0123 24.2433 26.0123Z" fill="#98999A" />
  <path d="M1.78963 26.0123C2.11931 26.0123 2.44867 25.8869 2.69946 25.6345L25.1531 3.18276C25.656 2.6796 25.656 1.86436 25.1531 1.36151C24.6503 0.858663 23.8351 0.858663 23.3319 1.36151L0.880104 23.8136C0.377256 24.3165 0.377256 25.1317 0.880104 25.6345C1.13247 25.8853 1.46183 26.0123 1.78963 26.0123Z" fill="#98999A" />
</svg>
