<svg width="16" height="20" viewBox="0 0 16 20" fill="none" xmlns="http://www.w3.org/2000/svg">
  <path d="M5.93968 20H13.0302C14.6678 20 16 18.5982 16 16.875V6.28906C16 4.56589 14.6678 3.16406 13.0302 3.16406H5.93968C4.30206 3.16406 2.96984 4.56589 2.96984 6.28906V16.875C2.96984 18.5982 4.30206 20 5.93968 20ZM13.0302 4.72656C13.8489 4.72656 14.5151 5.42755 14.5151 6.28906V16.875C14.5151 17.7365 13.8489 18.4375 13.0302 18.4375H5.93968C5.12094 18.4375 4.45476 17.7365 4.45476 16.875V6.28906C4.45476 5.42755 5.12094 4.72656 5.93968 4.72656H13.0302ZM9.53674e-07 14.9219V3.125C9.53674e-07 1.40182 1.33222 0 2.96984 0H11.2111C11.6212 0 11.9536 0.349731 11.9536 0.78125C11.9536 1.21277 11.6212 1.5625 11.2111 1.5625H2.96984C2.1511 1.5625 1.48492 2.26349 1.48492 3.125V14.9219C1.48492 15.3534 1.15255 15.7031 0.74246 15.7031C0.332367 15.7031 9.53674e-07 15.3534 9.53674e-07 14.9219Z" fill="white" />
</svg>
