<svg width="15" height="20" viewBox="0 0 15 20" fill="none" xmlns="http://www.w3.org/2000/svg">
  <path d="M5.56845 20H12.2158C13.751 20 15 18.5982 15 16.875V6.28906C15 4.56589 13.751 3.16406 12.2158 3.16406H5.56845C4.03318 3.16406 2.78422 4.56589 2.78422 6.28906V16.875C2.78422 18.5982 4.03318 20 5.56845 20ZM12.2158 4.72656C12.9833 4.72656 13.6079 5.42755 13.6079 6.28906V16.875C13.6079 17.7365 12.9833 18.4375 12.2158 18.4375H5.56845C4.80088 18.4375 4.17633 17.7365 4.17633 16.875V6.28906C4.17633 5.42755 4.80088 4.72656 5.56845 4.72656H12.2158ZM0 14.9219V3.125C0 1.40182 1.24896 0 2.78422 0H10.5104C10.8949 0 11.2065 0.349731 11.2065 0.78125C11.2065 1.21277 10.8949 1.5625 10.5104 1.5625H2.78422C2.01666 1.5625 1.39211 2.26349 1.39211 3.125V14.9219C1.39211 15.3534 1.08052 15.7031 0.696056 15.7031C0.311594 15.7031 0 15.3534 0 14.9219Z" fill="#F52871" />
</svg>
