<svg width="126" height="175" viewBox="0 0 126 175" fill="none" xmlns="http://www.w3.org/2000/svg">
  <path d="M37.4641 146.477V134.597H45.7981V135.947H38.9041V139.781H44.2681V141.131H38.9041V145.127H46.0681V146.477H37.4641ZM48.6727 146.477V137.477H49.9327L50.0227 138.881C50.3467 138.329 50.7667 137.927 51.2827 137.675C51.8107 137.423 52.3507 137.297 52.9027 137.297C53.5387 137.297 54.1387 137.441 54.7027 137.729C55.2667 138.017 55.6987 138.461 55.9987 139.061C56.1907 138.653 56.4607 138.323 56.8087 138.071C57.1567 137.807 57.5347 137.615 57.9427 137.495C58.3627 137.363 58.7587 137.297 59.1307 137.297C59.7067 137.297 60.2527 137.417 60.7687 137.657C61.2967 137.897 61.7287 138.269 62.0647 138.773C62.4007 139.277 62.5687 139.925 62.5687 140.717V146.477H61.1287V140.861C61.1287 140.045 60.9247 139.457 60.5167 139.097C60.1087 138.737 59.6047 138.557 59.0047 138.557C58.5367 138.557 58.0987 138.671 57.6907 138.899C57.2827 139.127 56.9527 139.463 56.7007 139.907C56.4607 140.351 56.3407 140.897 56.3407 141.545V146.477H54.9007V140.861C54.9007 140.045 54.6967 139.457 54.2887 139.097C53.8807 138.737 53.3767 138.557 52.7767 138.557C52.3807 138.557 51.9727 138.665 51.5527 138.881C51.1447 139.085 50.8027 139.415 50.5267 139.871C50.2507 140.327 50.1127 140.927 50.1127 141.671V146.477H48.6727ZM65.8289 150.257V137.477H67.0889L67.1789 139.061C67.4549 138.533 67.8629 138.107 68.4029 137.783C68.9549 137.459 69.5849 137.297 70.2929 137.297C71.0249 137.297 71.6969 137.483 72.3089 137.855C72.9329 138.227 73.4309 138.761 73.8029 139.457C74.1749 140.153 74.3609 140.993 74.3609 141.977C74.3609 142.949 74.1689 143.789 73.7849 144.497C73.4129 145.193 72.9149 145.727 72.2909 146.099C71.6669 146.471 70.9829 146.657 70.2389 146.657C69.5669 146.657 68.9729 146.513 68.4569 146.225C67.9409 145.925 67.5449 145.541 67.2689 145.073V150.257H65.8289ZM70.0949 145.397C70.9829 145.397 71.6729 145.085 72.1649 144.461C72.6689 143.837 72.9209 143.009 72.9209 141.977C72.9209 140.945 72.6749 140.117 72.1829 139.493C71.7029 138.869 71.0249 138.557 70.1489 138.557C69.2849 138.557 68.5889 138.869 68.0609 139.493C67.5329 140.117 67.2689 140.945 67.2689 141.977C67.2689 143.009 67.5269 143.837 68.0429 144.461C68.5589 145.085 69.2429 145.397 70.0949 145.397ZM82.3559 137.477V138.719H79.0799V143.993C79.0799 144.437 79.2059 144.767 79.4579 144.983C79.7099 145.199 80.0339 145.307 80.4299 145.307C80.7779 145.307 81.0779 145.247 81.3299 145.127C81.5819 145.007 81.8099 144.845 82.0139 144.641L82.5179 145.847C82.2419 146.099 81.9119 146.297 81.5279 146.441C81.1559 146.585 80.7239 146.657 80.2319 146.657C79.7759 146.657 79.3499 146.579 78.9539 146.423C78.5579 146.255 78.2399 145.997 77.9999 145.649C77.7719 145.289 77.6519 144.821 77.6399 144.245V138.719H75.8399V137.477H77.6399V135.317L79.0799 134.921V137.477H82.3559ZM91.8949 137.477L87.6649 147.989C87.3169 148.865 86.9209 149.477 86.4769 149.825C86.0449 150.173 85.5109 150.347 84.8749 150.347C84.4669 150.347 84.0889 150.287 83.7409 150.167C83.4049 150.059 83.1049 149.909 82.8409 149.717L83.2369 148.457C83.4769 148.673 83.7289 148.829 83.9929 148.925C84.2689 149.033 84.5389 149.087 84.8029 149.087C85.1149 149.087 85.4089 148.991 85.6849 148.799C85.9609 148.607 86.2129 148.217 86.4409 147.629L86.9089 146.459L86.0089 144.317L83.1469 137.477H84.7849L87.0349 143.345L87.5929 144.947L88.2409 143.165L90.3469 137.477H91.8949Z" fill="#6A6A6D" />
  <path fill-rule="evenodd" clip-rule="evenodd" d="M116.426 48.68L126 71.2954L116.426 73.3156V91.4366H116.426V103.294L63.2718 112.336V112.403L63.0902 112.367L60.9602 112.729V111.948L10.4475 102.003V94.573V73.9492L0.21167 71.7943L10.4475 48.5605V48.2031V48.1884L10.4842 48.1956L63.2758 37.4355L116.364 48.6916L116.426 48.68ZM114.115 73.8034V101.343L63.2718 109.992V82.2859L63.7015 63.2748L72.0204 82.6857L114.115 73.8034ZM114.115 71.4414L73.3979 80.0331L65.3614 61.2811L114.115 51.5008V71.4414ZM116.426 70.9537V54.6091L122.778 69.6133L116.426 70.9537ZM12.7586 100.103V74.4357L53.5312 83.0194L60.9602 65.8847V109.592L12.7586 100.103ZM60.5201 61.0901L12.7586 51.0039V72.074L52.1613 80.3693L60.5201 61.0901ZM10.4475 71.5875V54.2928L3.47489 70.1195L10.4475 71.5875ZM111.302 49.6432L64.235 39.6639L63.8078 58.5711L111.302 49.6432ZM62.2536 39.6655L61.8324 58.3048L15.5295 49.1889L62.2536 39.6655Z" fill="#6A6A6D" />
  <path fill-rule="evenodd" clip-rule="evenodd" d="M65.9123 32.5042C74.1175 32.5042 80.7691 25.8526 80.7691 17.6474C80.7691 9.44219 74.1175 2.79056 65.9123 2.79056C57.7071 2.79056 51.0554 9.44219 51.0554 17.6474C51.0554 25.8526 57.7071 32.5042 65.9123 32.5042ZM65.9123 34.8153C75.3939 34.8153 83.0802 27.129 83.0802 17.6474C83.0802 8.16582 75.3939 0.479492 65.9123 0.479492C56.4307 0.479492 48.7444 8.16582 48.7444 17.6474C48.7444 27.129 56.4307 34.8153 65.9123 34.8153Z" fill="#6A6A6D" />
  <path fill-rule="evenodd" clip-rule="evenodd" d="M64.262 7.41263V18.6378H67.8937V7.41263H64.262ZM62.6112 5.10156C62.2466 5.10156 61.9509 5.39719 61.9509 5.76187V20.2885C61.9509 20.6532 62.2466 20.9489 62.6112 20.9489H69.5444C69.9091 20.9489 70.2047 20.6532 70.2047 20.2885V5.76187C70.2047 5.39719 69.9091 5.10156 69.5444 5.10156H62.6112Z" fill="#6A6A6D" />
  <path fill-rule="evenodd" clip-rule="evenodd" d="M65.9128 28.2132C66.8244 28.2132 67.5635 27.4741 67.5635 26.5624C67.5635 25.6507 66.8244 24.9116 65.9128 24.9116C65.0011 24.9116 64.262 25.6507 64.262 26.5624C64.262 27.4741 65.0011 28.2132 65.9128 28.2132ZM65.9128 30.5242C68.1008 30.5242 69.8746 28.7505 69.8746 26.5624C69.8746 24.3744 68.1008 22.6006 65.9128 22.6006C63.7247 22.6006 61.9509 24.3744 61.9509 26.5624C61.9509 28.7505 63.7247 30.5242 65.9128 30.5242Z" fill="#6A6A6D" />
</svg>
  