<svg width="128" height="128" viewBox="0 0 128 128" fill="none" xmlns="http://www.w3.org/2000/svg">
  <mask id="mask0" mask-type="alpha" maskUnits="userSpaceOnUse" x="0" y="0" width="128" height="128">
    <rect width="128" height="128" fill="#FF0000" />
  </mask>
  <g mask="url(#mask0)">
    <path d="M125.833 32.1338C124.485 31.3005 122.802 31.2244 121.385 31.9326L91.4284 46.913V36.0238C91.4284 28.4497 85.2883 22.3096 77.7141 22.3096H13.7143C6.14008 22.3096 0 28.4497 0 36.0238V90.8809C0 98.4551 6.14008 104.595 13.7143 104.595H77.7141C85.2883 104.595 91.4284 98.4551 91.4284 90.8809V79.9917L121.385 94.9952C123.644 96.1237 126.389 95.2079 127.518 92.9493C127.839 92.3072 128.004 91.5985 128 90.8809V36.0238C128.001 34.4392 127.181 32.9673 125.833 32.1338ZM82.2856 90.8809C82.2856 93.4057 80.2389 95.4524 77.7141 95.4524H13.7143C11.1895 95.4524 9.14276 93.4057 9.14276 90.8809V36.0238C9.14276 33.499 11.1895 31.4523 13.7143 31.4523H77.7141C80.2389 31.4523 82.2856 33.499 82.2856 36.0238V90.8809ZM118.857 83.4846L91.4284 69.7703V57.135L118.857 43.4207V83.4846V83.4846Z" fill="url(#paint0_linear)" />
    <path d="M45.7151 45.1602C35.6161 45.1602 27.4293 53.3469 27.4293 63.4459C27.4293 73.5449 35.6161 81.7317 45.7151 81.7317C55.8141 81.7317 64.0009 73.5449 64.0009 63.4459C64.0009 53.3469 55.8139 45.1602 45.7151 45.1602ZM45.7151 72.5887C40.6658 72.5887 36.5724 68.4953 36.5724 63.4459C36.5724 58.3966 40.6658 54.3032 45.7151 54.3032C50.7645 54.3032 54.8579 58.3966 54.8579 63.4459C54.8579 68.4953 50.7645 72.5887 45.7151 72.5887Z" fill="url(#paint1_linear)" />
  </g>
  <defs>
    <linearGradient id="paint0_linear" x1="128" y1="97.0162" x2="50.0225" y2="-13.11" gradientUnits="userSpaceOnUse">
      <stop stop-color="#01C5FF" />
      <stop offset="1" stop-color="#FE02F7" />
    </linearGradient>
    <linearGradient id="paint1_linear" x1="64.0009" y1="78.3632" x2="27.4294" y2="45.1601" gradientUnits="userSpaceOnUse">
      <stop stop-color="#01C5FF" />
      <stop offset="1" stop-color="#FE02F7" />
    </linearGradient>
  </defs>
</svg>
