<?xml version="1.0" encoding="utf-8"?>
<!-- Generator: Adobe Illustrator 22.0.1, SVG Export Plug-In . SVG Version: 6.00 Build 0)  -->
<svg version="1.1" id="Layer_1" xmlns="http://www.w3.org/2000/svg" xmlns:xlink="http://www.w3.org/1999/xlink" x="0px" y="0px"
	 width="942.7px" height="219.2px" viewBox="0 0 942.7 219.2" style="enable-background:new 0 0 942.7 219.2;" xml:space="preserve"
	>
<style type="text/css">
	.st0{fill:url(#SVGID_1_);}
	.st1{fill:url(#SVGID_2_);}
	.st2{fill:url(#SVGID_3_);}
	.st3{fill:url(#SVGID_4_);}
</style>
<linearGradient id="SVGID_1_" gradientUnits="userSpaceOnUse" x1="13.7889" y1="211.0925" x2="196.3738" y2="21.7359" gradientTransform="matrix(1 0 0 -1 0 221.1781)">
	<stop  offset="0" style="stop-color:#01C5FF"/>
	<stop  offset="1" style="stop-color:#FE02F7"/>
</linearGradient>
<path class="st0" d="M5,45.2v126.6c0,23.1,18.5,41.8,41.3,41.8h124.8c22.8,0,41.3-18.8,41.3-41.8V45.2c0-23.1-18.5-41.8-41.3-41.8
	H46.3C23.5,3.4,5,22.1,5,45.2z M171.1,37.3c4.2,0,7.8,3.6,7.8,7.9v126.6c0,4.3-3.6,7.9-7.8,7.9H46.3c-4.2,0-7.8-3.6-7.8-7.9V45.2
	c0-4.3,3.6-7.9,7.8-7.9H171.1z M99.5,82.7V72.3c0-10.9-8.7-19.7-19.5-19.7c-10.7,0-19.5,8.8-19.5,19.7v72.4
	c0,10.9,8.7,19.7,19.5,19.7c10.7,0,19.5-8.8,19.5-19.7v-10.4l2.1,2.1l22,22.3c7.6,7.7,19.9,7.7,27.5,0c7.6-7.7,7.6-20.2,0-27.9
	l-22-22.3l22-22.3c7.6-7.7,7.6-20.2,0-27.9c-7.6-7.7-19.9-7.7-27.5,0l-22,22.3L99.5,82.7z M99.5,82.7v51.6l-25.4-25.8L99.5,82.7z"/>
<linearGradient id="SVGID_2_" gradientUnits="userSpaceOnUse" x1="284.6425" y1="138.0165" x2="985.6194" y2="91.5694">
	<stop  offset="0" style="stop-color:#01C5FF"/>
	<stop  offset="1" style="stop-color:#FE02F7"/>
</linearGradient>
<path class="st1" d="M691.4,50c-2.1-2.3-4.9-3.6-8.2-3.9c-0.4,0-0.8-0.1-1.2-0.1c-3.5,0-6.4,1.2-8.7,3.4c-0.1,0.1-0.3,0.2-0.4,0.3
	c-1.8,1.9-3,4.7-3.4,8.3c-0.2,1.2-0.2,2.4-0.2,3.8v0.2v99.2v0.2c0,1.3,0.1,2.6,0.2,3.8c0.5,3.7,1.6,6.4,3.4,8.3
	c0.1,0.1,0.3,0.2,0.4,0.3c2.3,2.3,5.1,3.4,8.7,3.4c0.4,0,0.8,0,1.2-0.1c3.3-0.2,6.1-1.5,8.2-3.9c2.4-2.6,3.6-6.6,3.6-11.9v-5.6V67.6
	V62C695.1,56.6,693.8,52.7,691.4,50z"/>
<linearGradient id="SVGID_3_" gradientUnits="userSpaceOnUse" x1="230.2859" y1="141.0071" x2="927.8682" y2="94.785" gradientTransform="matrix(1 0 0 -1 0 221.1781)">
	<stop  offset="0" style="stop-color:#01C5FF"/>
	<stop  offset="1" style="stop-color:#FE02F7"/>
</linearGradient>
<path class="st2" d="M721,67.5c2.3,2.1,5.1,3.1,8.5,3.1c3.2,0,5.9-1,8.3-3.2c2.3-2.1,3.5-5,3.5-8.7c0-3.8-1.2-6.7-3.6-8.7
	c-2.4-2-5.1-3-8.2-3c-3.2,0-6,1.1-8.4,3.3c-2.4,2.2-3.6,5-3.6,8.4C717.5,62.6,718.6,65.5,721,67.5z M741.2,164.8V95.4
	c0-4.2-1.2-7.6-3.4-10c-2.3-2.4-5.1-3.6-8.6-3.6c-3.5,0-6.3,1.2-8.4,3.6c-2.2,2.4-3.3,6-3.3,10.7v68.7c0,4.6,1.1,8.3,3.3,10.8
	s5,3.8,8.4,3.8c3.5,0,6.4-1.2,8.6-3.7C740,173.2,741.2,169.6,741.2,164.8z M779.7,96.8l19.1,54.5l20.6-56.9c1.6-4.6,3.2-7.8,4.8-9.7
	c1.6-1.9,3.9-2.8,7.1-2.8c3,0,5.6,1,7.7,3.1c2.1,2.1,3.2,4.4,3.2,7.1c0,1-0.2,2.3-0.6,3.7c-0.4,1.4-0.8,2.7-1.3,4
	c-0.5,1.2-1.1,2.6-1.7,4.2l-22.7,57.2c-0.3,0.6-0.5,1.3-0.8,2l0,0.1v0c-0.5,1.2-1,2.6-1.7,4.2c-1,2.5-2.1,4.7-3.4,6.5
	c-1.2,1.8-2.8,3.2-4.6,4.2c-1.8,1-4,1.5-6.6,1.5c-3.4,0-6-0.8-8-2.3c-2-1.5-3.5-3.3-4.4-5.1c-1-1.9-2.5-5.5-4.8-10.9L759,104.5
	c-0.4-1-0.8-2-1.2-3c-0.2-0.4-0.3-0.8-0.5-1.2c-0.6-1.4-1-2.8-1.4-4.3c-0.4-1.4-0.6-2.7-0.6-3.8c0-1.7,0.5-3.3,1.5-4.9
	c1-1.6,2.3-2.9,4.1-4c1.7-1,3.6-1.5,5.6-1.5c3.9,0,6.6,1.1,8.1,3.4C776.2,87.5,777.9,91.4,779.7,96.8z M873.9,136.5h46.3
	c6.2,0,11-0.9,14.4-2.6c3.4-1.8,5.1-5.7,5.1-11.7c0-6.5-1.6-12.9-4.9-19.2c-3.3-6.2-8.3-11.4-14.9-15.3c-6.6-4-14.5-5.9-23.8-5.9
	c-7.1,0-13.5,1.1-19.4,3.5c-5.8,2.3-10.7,5.6-14.7,10c-4,4.3-7,9.6-9.1,15.6c-2.1,6-3.1,12.7-3.1,19.7c0,15.1,4.2,27,12.7,35.8
	c8.4,8.8,20.3,13.2,35.5,13.2c6.6,0,12.5-0.9,17.6-2.6c5.1-1.8,9.4-4,12.7-6.7c3.4-2.7,5.9-5.5,7.6-8.4c1.7-2.9,2.5-5.4,2.5-7.6
	c0-2.5-0.8-4.4-2.2-5.7c-1.5-1.3-3.5-2-5.9-2c-2.2,0-4,0.6-5.2,1.6c-3,2.8-5.4,5-7.2,6.7c-1.8,1.6-3.9,3.2-6.1,4.6
	c-2.2,1.4-4.5,2.5-6.8,3.2c-2.3,0.7-4.9,1-7.7,1c-4.2,0-8-1-11.6-3.2c-3.5-2.1-6.3-5.2-8.4-9.4C875.1,146.8,874,142,873.9,136.5z
	 M916.9,122.9h-42.9c0.8-8.1,3.1-14.2,6.9-18.3c3.8-4.1,8.6-6.2,14.5-6.2c6.2,0,11.2,2,15,6.1C914.1,108.5,916.3,114.7,916.9,122.9z
	"/>
<linearGradient id="SVGID_4_" gradientUnits="userSpaceOnUse" x1="279.1261" y1="105.3881" x2="982.7639" y2="58.7647" gradientTransform="matrix(1 0 0 -1 0 221.1781)">
	<stop  offset="0" style="stop-color:#01C5FF"/>
	<stop  offset="1" style="stop-color:#FE02F7"/>
</linearGradient>
<path class="st3" d="M308.5,107.1V62c0-5.4-1.2-9.3-3.6-11.9c-2.4-2.6-5.6-3.9-9.4-3.9c-3.9,0-7,1.3-9.3,4
	c-2.3,2.6-3.4,6.6-3.4,11.9v95.9c0,4.1,0.1,7.2,0.3,9.4c0.2,2.2,0.7,4.1,1.5,5.7c1.1,2,2.6,3.6,4.7,4.8c2,1.2,4.1,1.8,6.3,1.8
	c3.8,0,6.9-1.3,9.4-3.9s3.7-6.6,3.7-12v-26.6l21.1-20.5l30.4,47.5c1.2,2.1,2.6,4.4,4.2,7c1.5,2.6,3.5,4.6,5.7,6.2s5.2,2.3,8.8,2.3
	c3.8,0,6.8-1,9.1-3.2c2.2-2.1,3.4-4.6,3.4-7.5c0-2.6-0.6-5.2-1.9-8c-1.3-2.7-3.2-5.9-5.7-9.6l-36.1-52.4l31.3-30.1
	c3.9-3.8,5.8-7.5,5.8-11.4c0-3.2-1.1-5.8-3.4-8.1c-2.3-2.2-5.2-3.3-9-3.3c-2.9,0-5.1,0.6-6.8,1.9c-1.7,1.2-3.8,3.2-6.2,5.7
	L308.5,107.1z M413.3,67.5c2.3,2.1,5.1,3.1,8.5,3.1c3.2,0,5.9-1,8.3-3.2c2.3-2.1,3.5-5,3.5-8.7c0-3.8-1.2-6.7-3.6-8.7
	c-2.4-2-5.1-3-8.1-3c-3.2,0-6,1.1-8.4,3.3c-2.4,2.2-3.6,5-3.6,8.4C409.8,62.6,411,65.5,413.3,67.5z M433.4,164.8V95.4
	c0-4.2-1.1-7.6-3.4-10c-2.3-2.4-5.1-3.6-8.6-3.6c-3.5,0-6.3,1.2-8.5,3.6c-2.2,2.4-3.3,6-3.3,10.7v68.7c0,4.6,1.1,8.3,3.3,10.8
	c2.2,2.5,5,3.8,8.5,3.8c3.5,0,6.4-1.2,8.6-3.7C432.3,173.2,433.4,169.6,433.4,164.8z M476.7,95.1V98c4.2-5.6,8.7-9.7,13.6-12.2
	c4.9-2.6,10.6-3.9,17.1-3.9c6.3,0,11.8,1.4,16.8,4.1c4.9,2.7,8.6,6.7,11,11.7c1.6,2.9,2.5,6.1,3.1,9.5c0.5,3.4,0.7,7.7,0.7,13v44.7
	c0,4.8-1.1,8.4-3.3,10.9c-2.2,2.5-5,3.7-8.5,3.7c-3.5,0-6.4-1.2-8.6-3.8c-2.2-2.5-3.3-6.1-3.3-10.8v-40c0-7.9-1.1-13.9-3.3-18.2
	c-2.2-4.2-6.5-6.3-13-6.3c-4.2,0-8,1.3-11.5,3.8c-3.5,2.5-6,6-7.6,10.5c-1.2,3.6-1.7,10.3-1.7,20v30.1c0,4.9-1.1,8.5-3.4,10.9
	c-2.2,2.4-5.1,3.7-8.6,3.7c-3.4,0-6.2-1.2-8.4-3.8s-3.3-6.1-3.3-10.8V95.4c0-4.5,1-8,3-10.2c2-2.3,4.6-3.4,8-3.4
	c2.1,0,4,0.5,5.7,1.5c1.7,1,3,2.5,4,4.5C476.2,89.8,476.7,92.2,476.7,95.1z M646.9,169.1V99.4c0-5.7-0.7-10-2.1-13
	c-1.5-3-4.5-4.5-9.1-4.5c-3.2,0-5.8,1.1-7.8,3.4c-2,2.3-3.1,5.5-3.1,9.7v3.3c-4.2-5.6-8.8-9.7-13.7-12.3c-4.9-2.6-10.7-3.9-17.4-3.9
	c-5.6,0-10.8,1-15.4,3c-4.6,2.1-8.8,5.1-12.4,9c-3.6,4-6.4,8.9-8.3,14.7c-1.9,5.8-2.9,12.3-2.9,19.5c0,9.7,1.6,18.2,4.8,25.6
	c3.2,7.4,7.7,13.2,13.6,17.2c6,4.1,12.9,6.1,20.8,6.1c6.6,0,12.3-1.3,17.1-4c4.8-2.7,9-6.6,12.6-11.8c-0.1,7.9-0.3,13.5-0.5,17.1
	c-0.3,3.5-1,6.9-2.4,10c-1.4,3.1-3.8,5.5-7.1,7.2c-3.4,1.7-8.1,2.6-14.3,2.6c-3,0-5.7-0.3-8-0.8c-2.3-0.5-4.3-1.4-6-2.5
	c-1.7-1.1-3.2-2.5-4.5-4.1c-1.3-1.6-2.6-3.2-3.9-4.8c-2.6-3.1-5.7-4.6-9.1-4.6c-2.8,0-5.1,0.9-7.1,2.8c-2,1.9-3,4.2-3,7.2
	c0,3.9,1.7,7.6,5.2,11.3c3.5,3.7,8.4,6.7,14.8,9c6.4,2.3,13.7,3.5,21.8,3.5c8.9,0,16.3-0.9,22.3-2.7c6-1.8,10.8-4.6,14.5-8.4
	c3.7-3.8,6.4-8.5,8-14.3C646.1,183.9,646.9,177.1,646.9,169.1z M584.6,151.9c-4.2-5-6.3-12.3-6.3-22.1c0-9.6,2-17,6.2-22.2
	c4.1-5.2,9.5-7.8,16.2-7.8c6.9,0,12.5,2.7,16.8,8.2c4.2,5.5,6.4,13.1,6.4,22.9c0,6.1-1.1,11.4-3.3,15.7s-5,7.5-8.6,9.7
	c-3.5,2.1-7.2,3.2-11.2,3.2C594.2,159.4,588.8,156.8,584.6,151.9z"/>
</svg>
