<svg width="16" height="15" viewBox="0 0 16 15" fill="none" xmlns="http://www.w3.org/2000/svg">
  <path fill-rule="evenodd" clip-rule="evenodd" d="M8.12526 0.486481C7.47662 1.13512 7.47662 2.18678 8.12526 2.83542L8.42846 3.13861L6.14627 5.4208C5.4137 5.12158 4.62821 4.96863 3.83374 4.9706C3.03114 4.97258 2.23509 5.13263 1.49104 5.4416C1.36416 5.49428 1.23921 5.55113 1.11639 5.61199C0.126703 6.10249 0.128609 7.40631 0.907386 8.18962L3.59564 10.8935L0.983383 13.5058C0.825504 13.6637 0.825504 13.9197 0.983383 14.0775C1.14126 14.2354 1.39723 14.2354 1.55511 14.0775L4.16571 11.4669L6.65885 13.9746C7.43762 14.7579 8.74141 14.7674 9.23765 13.7806C9.29923 13.6581 9.3568 13.5335 9.41022 13.4069C9.7235 12.6647 9.88817 11.8696 9.89482 11.067C9.90088 10.3353 9.77548 9.61037 9.52516 8.92672L11.8709 6.58102L12.208 6.91814C12.8566 7.56678 13.9083 7.56678 14.5569 6.91814C15.2056 6.2695 15.2056 5.21784 14.5569 4.5692L10.4742 0.486481C9.82556 -0.16216 8.7739 -0.16216 8.12526 0.486481Z" fill="#C4C4C4" />
</svg>
