<svg width="52" height="52" viewBox="0 0 52 52" fill="none" xmlns="http://www.w3.org/2000/svg">
  <g clip-path="url(#clip0)">
    <path d="M45.2218 19.6245H31.5699V5.97268C31.5699 2.67406 28.8959 0 25.5972 0C22.2986 0 19.6245 2.67406 19.6245 5.97268V19.6245H5.97268C2.67406 19.6245 0 22.2986 0 25.5972C0 28.8959 2.67406 31.5699 5.97268 31.5699H19.6245V45.2218C19.6245 48.5204 22.2986 51.1944 25.5972 51.1944C28.8959 51.1944 31.5699 48.5204 31.5699 45.2218V31.5699H45.2218C48.5204 31.5699 51.1944 28.8959 51.1944 25.5972C51.1944 22.2986 48.5204 19.6245 45.2218 19.6245ZM45.2218 29.8634H30.7167C30.2455 29.8634 29.8634 30.2455 29.8634 30.7167V45.2218C29.8634 47.5779 27.9533 49.488 25.5972 49.488C23.2411 49.488 21.331 47.5779 21.331 45.2218V30.7167C21.331 30.2455 20.949 29.8634 20.4778 29.8634H5.97268C3.61657 29.8634 1.70648 27.9533 1.70648 25.5972C1.70648 23.2411 3.61657 21.331 5.97268 21.331H20.4778C20.949 21.331 21.331 20.949 21.331 20.4778V5.97268C21.331 3.61657 23.2411 1.70648 25.5972 1.70648C27.9533 1.70648 29.8634 3.61657 29.8634 5.97268V20.4778C29.8634 20.949 30.2455 21.331 30.7167 21.331H45.2218C47.5779 21.331 49.488 23.2411 49.488 25.5972C49.488 27.9533 47.5779 29.8634 45.2218 29.8634Z" fill="#C4C4C4" />
  </g>
  <defs>
    <clipPath id="clip0">
      <rect width="51.1944" height="51.1944" fill="white" />
    </clipPath>
  </defs>
</svg>