<svg width="23" height="14" viewBox="0 0 23 14" fill="none" xmlns="http://www.w3.org/2000/svg">
  <path d="M12.469 4.40279H12.969V3.90279V1.20099C12.9716 1.19762 12.9756 1.19295 12.9816 1.18702C13.0114 1.1574 13.0762 1.11346 13.1857 1.08363C13.4178 1.02102 13.6662 1.07044 13.7919 1.15787L21.8957 6.80494C21.8958 6.805 21.8959 6.80507 21.896 6.80513C21.9099 6.81486 21.9203 6.8236 21.9281 6.83093C21.9204 6.83813 21.9101 6.84668 21.8964 6.85619L13.7917 12.5039C13.7917 12.5039 13.7916 12.5039 13.7916 12.5039C13.6653 12.5918 13.4151 12.641 13.1874 12.5785L13.185 12.5778C13.0756 12.5484 13.011 12.5046 12.9814 12.4752C12.9755 12.4694 12.9716 12.4648 12.969 12.4615V9.75976V9.25976H12.469H10.9877C6.96602 9.25976 3.26472 10.756 1.38723 13.2762C1.34692 13.3296 1.18429 13.4325 0.93381 13.4325C0.890044 13.4325 0.84971 13.4293 0.81162 13.4229L0.811627 13.4228L0.805461 13.4219C0.663321 13.3996 0.568905 13.3513 0.52151 13.3127C0.511107 13.3042 0.504301 13.2975 0.5 13.2927V12.0608C0.5 10.0299 1.73137 8.12749 3.84352 6.71016C5.95216 5.29518 8.89161 4.40279 12.1573 4.40279H12.469ZM12.9647 1.20752C12.9647 1.20752 12.9648 1.2071 12.9653 1.20628L12.9647 1.20752ZM0.493445 13.284C0.493529 13.284 0.494061 13.2847 0.494788 13.2863C0.493725 13.2848 0.493361 13.284 0.493445 13.284Z" fill="#C4C4C4" stroke="#707070" />
</svg>
