<svg width="13" height="14" viewBox="0 0 13 14" fill="none" xmlns="http://www.w3.org/2000/svg">
  <path d="M12.6798 13.1387H12.0941V4.63392C12.0941 4.23806 11.772 3.91602 11.3762 3.91602H10.067C9.67109 3.91602 9.34905 4.23809 9.34905 4.63392V13.1387H7.86176V8.48726C7.86176 8.0914 7.53971 7.76935 7.14385 7.76935H5.83463C5.43878 7.76935 5.11673 8.09142 5.11673 8.48726V13.1387H3.62944V10.7298C3.62944 10.3339 3.30737 10.0119 2.91154 10.0119H1.60229C1.20643 10.0119 0.884386 10.3339 0.884386 10.7298V13.1387H0.267057C0.119561 13.1387 0 13.2583 0 13.4058C0 13.5533 0.119561 13.6728 0.267057 13.6728H12.6798C12.8273 13.6728 12.9469 13.5533 12.9469 13.4058C12.9469 13.2583 12.8273 13.1387 12.6798 13.1387ZM3.09527 13.1387H1.41847V10.7298C1.41847 10.6284 1.50091 10.546 1.60226 10.546H2.91148C3.01283 10.546 3.09527 10.6284 3.09527 10.7298V13.1387ZM7.32761 13.1387H5.65082V8.48726C5.65082 8.38591 5.73326 8.30347 5.83461 8.30347H7.14383C7.24515 8.30347 7.32761 8.38591 7.32761 8.48726V13.1387ZM11.56 13.1387H9.88316V4.63392C9.88316 4.53257 9.9656 4.45013 10.067 4.45013H11.3762C11.4775 4.45013 11.56 4.53257 11.56 4.63392V13.1387Z" fill="#C4C4C4" />
  <path d="M12.0935 0.280837C12.0972 0.207957 12.0716 0.133849 12.0159 0.0781943C11.9603 0.0225396 11.8862 -0.00312457 11.8133 0.000640937C11.809 0.000453997 11.8048 0 11.8004 0H10.1847C10.0372 0 9.91762 0.119561 9.91762 0.267057C9.91762 0.414553 10.0372 0.534114 10.1847 0.534114H11.1823L8.54228 3.17419L7.54669 2.1786C7.49662 2.12852 7.42868 2.10038 7.35785 2.10038C7.28703 2.10038 7.21909 2.12852 7.16902 2.1786L2.36816 6.97948C2.26388 7.08377 2.26388 7.25287 2.36816 7.35718C2.42032 7.40928 2.48866 7.43535 2.557 7.43535C2.62534 7.43535 2.6937 7.40928 2.74583 7.35713L7.35785 2.74508L8.35344 3.74067C8.45773 3.84495 8.62683 3.84495 8.73114 3.74067L11.56 0.911813V1.81473C11.56 1.96223 11.6796 2.08179 11.8271 2.08179C11.9746 2.08179 12.0941 1.96223 12.0941 1.81473V0.293763C12.0941 0.28941 12.0937 0.285163 12.0935 0.280837Z" fill="#C4C4C4" />
  <path d="M1.65677 8.3681C1.80426 8.3681 1.92382 8.24853 1.92382 8.10104C1.92382 7.95355 1.80426 7.83398 1.65677 7.83398C1.50927 7.83398 1.38971 7.95355 1.38971 8.10104C1.38971 8.24853 1.50927 8.3681 1.65677 8.3681Z" fill="#C4C4C4" />
</svg>
