<svg width="14" height="15" viewBox="0 0 14 15" fill="none" xmlns="http://www.w3.org/2000/svg">
  <path d="M12.6922 1.96292H10.177V1.13734C10.177 1.02374 10.0849 0.931641 9.97127 0.931641C9.85764 0.931641 9.76557 1.02374 9.76557 1.13734V1.96292H8.91349C8.79986 1.96292 8.70779 2.05502 8.70779 2.16863C8.70779 2.28223 8.79986 2.37433 8.91349 2.37433H9.76557V3.24536H9.61118C9.3956 3.24536 9.22021 3.42075 9.22021 3.6363V6.05794C9.22021 6.27352 9.3956 6.44889 9.61118 6.44889H9.76557V8.08082C9.76557 8.19443 9.85764 8.28653 9.97127 8.28653C10.0849 8.28653 10.177 8.19443 10.177 8.08082V6.44889H10.3314C10.5469 6.44889 10.7223 6.27349 10.7223 6.05794V3.6363C10.7223 3.42073 10.5469 3.24536 10.3314 3.24536H10.177V2.37433H12.6922C13.1864 2.37433 13.5886 2.77646 13.5886 3.27075V10.3111H0.411406V3.27078C0.411406 2.77649 0.813541 2.37436 1.30783 2.37436H4.91372V2.77581H4.75933C4.54376 2.77581 4.36839 2.9512 4.36839 3.16675V5.58839C4.36839 5.80397 4.54378 5.97934 4.75933 5.97934H4.91372V7.79701C4.91372 7.91061 5.00582 8.00271 5.11942 8.00271C5.23303 8.00271 5.32513 7.91061 5.32513 7.79701V5.97934H5.47951C5.69509 5.97934 5.87046 5.80394 5.87046 5.58839V3.16675C5.87046 2.95117 5.69506 2.77581 5.47951 2.77581H5.32513V2.37433H6.1772C6.2908 2.37433 6.38291 2.28223 6.38291 2.16863C6.38291 2.05502 6.2908 1.96292 6.1772 1.96292H5.32513V1.86133C5.32513 1.74773 5.23303 1.65563 5.11942 1.65563C5.00582 1.65563 4.91372 1.74773 4.91372 1.86133V1.96292H1.30783C0.586692 1.96292 0 2.54962 0 3.27075V10.5168C0 11.238 0.586692 11.8247 1.30783 11.8247H4.43915V12.8706L3.77616 13.6396H3.51299C3.39939 13.6396 3.30729 13.7317 3.30729 13.8453C3.30729 13.9589 3.39939 14.051 3.51299 14.051H10.468C10.5817 14.051 10.6737 13.9589 10.6737 13.8453C10.6737 13.7317 10.5817 13.6396 10.468 13.6396H10.2238L9.56082 12.8706V11.8247H12.6922C13.4133 11.8247 14 11.238 14 10.5168V3.27078C14 2.54964 13.4133 1.96292 12.6922 1.96292ZM10.3109 6.03754H9.63164V3.65679H10.3109V6.03754H10.3109ZM5.45905 5.56793H4.77977V3.18721H5.45905V5.56793ZM12.6922 11.4133H8.52899C8.41536 11.4133 8.32329 11.5054 8.32329 11.619C8.32329 11.7326 8.41536 11.8247 8.52899 11.8247H9.14942V12.7413H8.63702C8.52339 12.7413 8.43132 12.8334 8.43132 12.947C8.43132 13.0606 8.52339 13.1527 8.63702 13.1527H9.26085L9.68062 13.6396H4.31935L4.73912 13.1527H5.36295C5.47655 13.1527 5.56865 13.0606 5.56865 12.947C5.56865 12.8334 5.47655 12.7413 5.36295 12.7413H4.85056V11.8247H7.65234C7.76597 11.8247 7.85804 11.7326 7.85804 11.619C7.85804 11.5054 7.76597 11.4133 7.65234 11.4133H1.30783C0.88433 11.4133 0.528739 11.118 0.435487 10.7225H13.5645C13.4713 11.118 13.1157 11.4133 12.6922 11.4133Z" fill="#F52871" />
  <path d="M2.14833 6.00636C2.03473 6.00636 1.94263 6.09846 1.94263 6.21207V6.70866C1.94263 6.92424 2.118 7.09961 2.33357 7.09961H2.48796V8.19507C2.48796 8.30867 2.58006 8.40077 2.69366 8.40077C2.80726 8.40077 2.89936 8.30867 2.89936 8.19507V7.09961H3.05375C3.26933 7.09961 3.4447 6.92424 3.4447 6.70866V4.28702C3.4447 4.07144 3.2693 3.89605 3.05375 3.89605H2.89936V3.56703C2.89936 3.45343 2.80726 3.36133 2.69366 3.36133C2.58006 3.36133 2.48796 3.45343 2.48796 3.56703V3.89605H2.33357C2.118 3.89605 1.94263 4.07144 1.94263 4.28702V5.33544C1.94263 5.44905 2.03473 5.54115 2.14833 5.54115C2.26193 5.54115 2.35403 5.44905 2.35403 5.33544V4.30748H2.69341H2.69369C2.69369 4.30748 2.69385 4.30748 2.69396 4.30748H3.03335V6.68823H2.35403V6.21209C2.35403 6.09846 2.26193 6.00636 2.14833 6.00636Z" fill="#F52871" />
  <path d="M7.18526 5.57156H7.33967V6.66699C7.33967 6.7806 7.43174 6.8727 7.54537 6.8727C7.659 6.8727 7.75108 6.7806 7.75108 6.66699V5.57156H7.90546C8.12101 5.57156 8.29641 5.39616 8.29641 5.18058V3.56713C8.29641 3.45353 8.20433 3.36143 8.0907 3.36143C7.97707 3.36143 7.885 3.45353 7.885 3.56713V5.16015H7.20572V1.43548H7.885V2.69051C7.885 2.80411 7.97707 2.89621 8.0907 2.89621C8.20433 2.89621 8.29641 2.80411 8.29641 2.69051V1.41502C8.29641 1.19947 8.12101 1.02407 7.90546 1.02407H7.75108V0.205703C7.75108 0.0921 7.659 0 7.54537 0C7.43174 0 7.33967 0.0921 7.33967 0.205703V1.02407H7.18526C6.96968 1.02407 6.79431 1.19947 6.79431 1.41502V5.18058C6.79431 5.39619 6.96968 5.57156 7.18526 5.57156Z" fill="#F52871" />
  <path d="M11.1585 5.63918C11.1956 5.70813 11.2665 5.74729 11.3397 5.74729C11.3727 5.74729 11.4061 5.73934 11.4372 5.72261L12.3847 5.21173L12.3165 5.3906C12.2761 5.49677 12.3294 5.61562 12.4355 5.65607C12.4596 5.66523 12.4844 5.66959 12.5087 5.66959C12.5916 5.66959 12.6697 5.61913 12.701 5.53707L12.9326 4.92912C12.973 4.82295 12.9198 4.70411 12.8136 4.66365L12.1683 4.41782C12.0622 4.37739 11.9433 4.43066 11.9028 4.53683C11.8624 4.643 11.9157 4.76184 12.0219 4.80229L12.1715 4.85929L11.2419 5.36049C11.1419 5.41441 11.1046 5.53918 11.1585 5.63918Z" fill="#F52871" />
  <path d="M1.21634 9.65841C1.24975 9.73647 1.32569 9.78323 1.40553 9.78323C1.43252 9.78323 1.45997 9.77788 1.48639 9.76658L4.14072 8.63058L4.38194 9.26258C4.40306 9.3179 4.44697 9.36143 4.50246 9.38205C4.55791 9.40265 4.61962 9.3984 4.67174 9.37029L9.05688 7.00594C9.15688 6.95202 9.19424 6.82725 9.14031 6.72725C9.08642 6.62728 8.96168 6.5899 8.86163 6.64382L4.68273 8.89695L4.44875 8.28388C4.42879 8.23157 4.38839 8.18966 4.33685 8.16783C4.28532 8.14597 4.22712 8.14611 4.17563 8.16811L1.32451 9.38833C1.2201 9.43307 1.17166 9.55397 1.21634 9.65841Z" fill="#F52871" />
</svg>
  