<svg width="15" height="15" viewBox="0 0 15 15" fill="none" xmlns="http://www.w3.org/2000/svg">
  <path d="M2.57812 1.875H5.15625V1.40625C5.15625 0.63085 5.7871 0 6.5625 0H8.4375C9.2129 0 9.84375 0.63085 9.84375 1.40625V1.875H12.4219C13.068 1.875 13.5938 2.4007 13.5938 3.04688V4.6875C13.5938 4.94637 13.3839 5.15625 13.125 5.15625H12.8688L12.4639 13.6606C12.4281 14.4117 11.8111 15 11.0592 15H3.94078C3.18888 15 2.57188 14.4117 2.53614 13.6606L2.13117 5.15625H1.875C1.61613 5.15625 1.40625 4.94637 1.40625 4.6875V3.04688C1.40625 2.4007 1.93195 1.875 2.57812 1.875ZM8.90625 1.40625C8.90625 1.14779 8.69596 0.9375 8.4375 0.9375H6.5625C6.30404 0.9375 6.09375 1.14779 6.09375 1.40625V1.875H8.90625V1.40625ZM12.6562 3.04688C12.6562 2.91765 12.5511 2.8125 12.4219 2.8125H2.57812C2.4489 2.8125 2.34375 2.91765 2.34375 3.04688V4.21875C2.48821 4.21875 12.0576 4.21875 12.6562 4.21875V3.04688ZM3.47259 13.616C3.48451 13.8664 3.69018 14.0625 3.94078 14.0625H11.0592C11.3099 14.0625 11.5155 13.8664 11.5274 13.616L11.9303 5.15625H3.06973L3.47259 13.616Z" fill="#C4C4C4" />
  <path d="M7.5 13.125C7.24113 13.125 7.03125 12.9151 7.03125 12.6562V6.5625C7.03125 6.30363 7.24113 6.09375 7.5 6.09375C7.75887 6.09375 7.96875 6.30363 7.96875 6.5625V12.6562C7.96875 12.9151 7.7589 13.125 7.5 13.125Z" fill="#C4C4C4" />
  <path d="M5.15625 13.125C4.89738 13.125 4.6875 12.9151 4.6875 12.6562V6.5625C4.6875 6.30363 4.89738 6.09375 5.15625 6.09375C5.41512 6.09375 5.625 6.30363 5.625 6.5625V12.6562C5.625 12.9151 5.41515 13.125 5.15625 13.125Z" fill="#C4C4C4" />
  <path d="M9.84375 13.125C9.58488 13.125 9.375 12.9151 9.375 12.6562V6.5625C9.375 6.30363 9.58488 6.09375 9.84375 6.09375C10.1026 6.09375 10.3125 6.30363 10.3125 6.5625V12.6562C10.3125 12.9151 10.1026 13.125 9.84375 13.125Z" fill="#C4C4C4" />
</svg>
