<svg width="129" height="102" viewBox="0 0 129 102" fill="none" xmlns="http://www.w3.org/2000/svg">
  <path d="M107.44 33.5419C101.48 9.79974 77.4023 -4.61558 53.6602 1.34426C35.1063 6.00188 21.6341 22.0377 20.246 41.1167C7.07195 43.2893 -1.84664 55.73 0.325902 68.904C2.2572 80.6159 12.4055 89.1931 24.2753 89.146H44.4218V81.0874H24.2753C15.3741 81.0874 8.1581 73.8714 8.1581 64.9702C8.1581 56.0689 15.3741 48.853 24.2753 48.853C26.5007 48.853 28.3046 47.0491 28.3046 44.8237C28.2844 24.7958 44.5041 8.54361 64.532 8.52371C81.8691 8.50634 96.7933 20.763 100.147 37.7724C100.478 39.4707 101.856 40.7682 103.572 40.9958C114.587 42.5645 122.245 52.7659 120.677 63.7813C119.269 73.6727 110.823 81.0375 100.832 81.0874H84.7148V89.146H100.832C116.409 89.0989 128.999 76.4328 128.951 60.8555C128.912 47.8887 120.037 36.619 107.44 33.5419Z" fill="url(#paint0_linear)" />
  <path d="M61.7069 50.0258L45.5897 66.143L51.271 71.8243L60.5384 62.5972V101.238H68.597V62.5972L77.8241 71.8243L83.5054 66.143L67.3882 50.0258C65.8165 48.4634 63.2785 48.4634 61.7069 50.0258Z" fill="url(#paint1_linear)" />
  <defs>
    <linearGradient id="paint0_linear" x1="128.952" y1="80.9353" x2="42.6151" y2="-32.4492" gradientUnits="userSpaceOnUse">
      <stop stop-color="#01C5FF" />
      <stop offset="1" stop-color="#FE02F7" />
    </linearGradient>
    <linearGradient id="paint1_linear" x1="83.5054" y1="96.4133" x2="35.1974" y2="64.6684" gradientUnits="userSpaceOnUse">
      <stop stop-color="#01C5FF" />
      <stop offset="1" stop-color="#FE02F7" />
    </linearGradient>
  </defs>
</svg>