<svg xmlns="http://www.w3.org/2000/svg" width="193.052" height="129.049" viewBox="0 0 193.052 129.049">
  <path id="Path_36" data-name="Path 36" d="M134.212,139.511l-11.13-11.131-11.131,11.131,11.131,11.131Zm22.05-20.944-7.9-7.9-7.9,7.9,7.9,7.9Zm-25.279,0-7.9-7.9-7.9,7.9,7.9,7.9Zm-1.258,56.158a32.926,32.926,0,0,1,8.984,11.564c.114.24.22.481.328.721V168.883H119.206A34.207,34.207,0,0,1,129.726,174.725ZM126.1,152.719l12.878,13.151,9.383-34.81Zm-20.394-34.152-7.9-7.9-7.9,7.9,7.9,7.9Zm4.742,47.3,11.131-11.131-11.131-11.13L99.317,154.74Zm16.578,11.555a34.327,34.327,0,0,0-12.761-6.542,54.4,54.4,0,0,0-14.006-1.567H81.83V237.5h18.8a55.445,55.445,0,0,0,14.743-1.658,30.888,30.888,0,0,0,12.762-7.05,33.92,33.92,0,0,0,8.339-11.61,34.712,34.712,0,0,0,2.856-13.959,34.163,34.163,0,0,0-12.3-25.8ZM122,224.971a26.63,26.63,0,0,1-11.7,5.436,72.411,72.411,0,0,1-12.808.83H88.649V175.582h11.425a48.961,48.961,0,0,1,11.933,1.336,29.044,29.044,0,0,1,10,4.746,27.57,27.57,0,0,1,0,43.307Zm-48.72-55.655-8.661-.056L38.043,202.3l4,5.649,22.9,29.5,8.405.057-26.893-35Zm98.476,37.595v6.265h37.962A25.924,25.924,0,0,1,199.4,227.5a28.916,28.916,0,0,1-17.139,5.575,29.855,29.855,0,0,1-21.146-8.339,27.1,27.1,0,0,1-8.892-20.594,26.748,26.748,0,0,1,2.58-11.242,29.437,29.437,0,0,1,6.773-9.491,27.448,27.448,0,0,1,9.491-5.759,32.044,32.044,0,0,1,10.827-1.889,30.483,30.483,0,0,1,14.052,3.363,24.03,24.03,0,0,1,10.089,9.352h7.74a19.693,19.693,0,0,0-4.884-7.648,39.819,39.819,0,0,0-6.911-5.8,37.293,37.293,0,0,0-46.071,4.607,36.772,36.772,0,0,0-7.694,11.241,32.025,32.025,0,0,0-2.811,13.084A33.847,33.847,0,0,0,156.28,229.21a35.653,35.653,0,0,0,25.616,10.5,36.851,36.851,0,0,0,24.97-9.4q11.148-9.675,11.15-23.4ZM80.428,118.567l-7.9-7.9-7.9,7.9,7.9,7.9ZM24.965,237.5h9.9V169.316h-9.9ZM81.908,165.87l12.878-13.151L72.526,131.061Zm27.026-26.36L97.8,128.38l-11.13,11.131L97.8,150.641Z" transform="translate(-24.965 -110.665)"/>
</svg>
