<svg width="15" height="14" viewBox="0 0 15 14" fill="none" xmlns="http://www.w3.org/2000/svg">
  <path fill-rule="evenodd" clip-rule="evenodd" d="M6.11234 0C5.15284 0 4.375 0.774104 4.375 1.72901V3.125H1.38804C0.621448 3.125 0 3.70493 0 4.42031V11.8297C0 12.5451 0.621448 13.125 1.38804 13.125H4.72469H10.2753H13.612C14.3786 13.125 15 12.5451 15 11.8297V4.42031C15 3.70493 14.3786 3.125 13.612 3.125H10.625V1.72901C10.625 0.774104 9.84717 0 8.88766 0H6.11234ZM9.92562 3.125V1.72901C9.92562 1.15851 9.46091 0.696023 8.88766 0.696023H6.11234C5.53909 0.696023 5.07438 1.15851 5.07438 1.72901V3.125H9.92562ZM5.07438 3.79664H9.92562V12.4534H5.07438V3.79664ZM4.375 3.79664H1.38804C1.01894 3.79664 0.719726 4.07587 0.719726 4.42031V11.8297C0.719726 12.1741 1.01894 12.4534 1.38804 12.4534H4.375V3.79664ZM10.625 12.4534V3.79664H13.612C13.9811 3.79664 14.2803 4.07587 14.2803 4.42031V11.8297C14.2803 12.1741 13.9811 12.4534 13.612 12.4534H10.625Z" fill="#707070" />
</svg>
