<svg width="16" height="12" viewBox="0 0 16 12" fill="none" xmlns="http://www.w3.org/2000/svg">
  <path d="M15.5312 0H0.46875C0.215625 0 0 0.203077 0 0.461538V11.5385C0 11.7877 0.20625 12 0.46875 12H15.5312C15.7969 12 16 11.7877 16 11.5385V0.461538C16 0.206154 15.7875 0 15.5312 0ZM6.59375 4.38769L1.88125 0.923077H6.59375V4.38769ZM5.3375 4.61538H0.9375V1.38154L5.3375 4.61538ZM0.9375 7.38462H5.3375L0.9375 10.6185V7.38462ZM6.59375 7.61231V11.0769H1.88125L6.59375 7.61231ZM7.0625 6.46154H0.9375V5.53846H7.0625C7.32188 5.53846 7.53125 5.33231 7.53125 5.07692V0.923077H8.46875V5.07692C8.46875 5.33231 8.67812 5.53846 8.9375 5.53846H15.0625V6.46154H8.9375C8.67812 6.46154 8.46875 6.66769 8.46875 6.92308V11.0769H7.53125V6.92308C7.53125 6.66769 7.32188 6.46154 7.0625 6.46154ZM9.40625 4.38769V0.923077H14.1187L9.40625 4.38769ZM15.0625 1.38154V4.61538H10.6625L15.0625 1.38154ZM9.40625 7.61231L14.1187 11.0769H9.40625V7.61231ZM10.6625 7.38462H15.0625V10.6185L10.6625 7.38462Z" fill="#707070" />
</svg>
