<svg width="15" height="15" viewBox="0 0 15 15" fill="none" xmlns="http://www.w3.org/2000/svg">
  <g clip-path="url(#clip0)">
    <path d="M15.5311 7.03122H9.59374C9.33499 7.03122 9.125 6.82123 9.125 6.56249C9.125 6.30374 9.33499 6.09375 9.59374 6.09375H15.5311C15.7898 6.09375 15.9998 6.30374 15.9998 6.56249C15.9998 6.82123 15.7898 7.03122 15.5311 7.03122Z" fill="#707070" />
    <path d="M13.1874 9.37496C13.0673 9.37496 12.9474 9.3293 12.8561 9.23752C12.673 9.05431 12.673 8.75746 12.8561 8.57436L14.8686 6.56198L12.8561 4.54948C12.673 4.36638 12.673 4.06953 12.8561 3.88643C13.0393 3.70322 13.3361 3.70322 13.5192 3.88643L15.8629 6.23011C16.046 6.41321 16.046 6.71006 15.8629 6.89316L13.5192 9.23684C13.4273 9.3293 13.3074 9.37496 13.1874 9.37496Z" fill="#707070" />
    <path d="M5.99988 15.0005C5.8661 15.0005 5.73919 14.9817 5.6124 14.9424L1.85118 13.6893C1.33942 13.5105 1 13.0337 1 12.5006V1.25098C1 0.561605 1.56063 0.000976562 2.25 0.000976562C2.38366 0.000976562 2.51057 0.0197443 2.63748 0.0591107L6.39858 1.3122C6.91046 1.49095 7.24977 1.96781 7.24977 2.50086V13.7505C7.24977 14.4399 6.68925 15.0005 5.99988 15.0005ZM2.25 0.938447C2.07811 0.938447 1.93747 1.07909 1.93747 1.25098V12.5006C1.93747 12.6337 2.02685 12.7574 2.15433 12.8018L5.89792 14.0493C5.92481 14.058 5.95983 14.063 5.99988 14.063C6.17177 14.063 6.3123 13.9224 6.3123 13.7505V2.50086C6.3123 2.36777 6.22292 2.24406 6.09544 2.19966L2.35185 0.95218C2.32496 0.943483 2.28994 0.938447 2.25 0.938447Z" fill="#707070" />
    <path d="M10.5309 5.00037C10.2722 5.00037 10.0622 4.79038 10.0622 4.53164V1.71922C10.0622 1.2886 9.71164 0.937959 9.28101 0.937959H2.24999C1.99124 0.937959 1.78125 0.727967 1.78125 0.469224C1.78125 0.210481 1.99124 0.000488281 2.24999 0.000488281H9.28101C10.2291 0.000488281 10.9996 0.771109 10.9996 1.71922V4.53164C10.9996 4.79038 10.7896 5.00037 10.5309 5.00037Z" fill="#707070" />
    <path d="M9.28123 13.1249H6.78124C6.52249 13.1249 6.3125 12.9149 6.3125 12.6561C6.3125 12.3974 6.52249 12.1874 6.78124 12.1874H9.28123C9.71186 12.1874 10.0624 11.8368 10.0624 11.4061V8.59374C10.0624 8.33499 10.2724 8.125 10.5311 8.125C10.7899 8.125 10.9999 8.33499 10.9999 8.59374V11.4061C10.9999 12.3543 10.2293 13.1249 9.28123 13.1249Z" fill="#707070" />
  </g>
  <defs>
    <clipPath id="clip0">
      <rect width="15" height="15" fill="white" />
    </clipPath>
  </defs>
</svg>
