<svg width="14" height="15" viewBox="0 0 14 15" fill="none" xmlns="http://www.w3.org/2000/svg">
  <path fill-rule="evenodd" clip-rule="evenodd" d="M0 12.8571C0 10.8283 1.64469 9.18359 3.67352 9.18359H9.79604C11.8249 9.18359 13.4696 10.8283 13.4696 12.8571V14.3877C13.4696 14.7259 13.1954 15 12.8573 15C12.5192 15 12.2451 14.7259 12.2451 14.3877V12.8571C12.2451 11.5046 11.1486 10.4081 9.79604 10.4081H3.67352C2.32096 10.4081 1.22451 11.5046 1.22451 12.8571V14.3877C1.22451 14.7259 0.95039 15 0.612253 15C0.274115 15 0 14.7259 0 14.3877V12.8571Z" fill="#707070" />
  <path fill-rule="evenodd" clip-rule="evenodd" d="M6.73504 1.22451C5.38249 1.22451 4.28603 2.32096 4.28603 3.67352C4.28603 5.02607 5.38249 6.12253 6.73504 6.12253C8.08759 6.12253 9.18405 5.02607 9.18405 3.67352C9.18405 2.32096 8.08759 1.22451 6.73504 1.22451ZM3.06152 3.67352C3.06152 1.64469 4.70621 0 6.73504 0C8.76386 0 10.4086 1.64469 10.4086 3.67352C10.4086 5.70234 8.76386 7.34703 6.73504 7.34703C4.70621 7.34703 3.06152 5.70234 3.06152 3.67352Z" fill="#707070" />
</svg>
