<svg width="14" height="16" viewBox="0 0 14 16" fill="none" xmlns="http://www.w3.org/2000/svg">
  <path d="M1.59165 13.7827H12.051C13.1262 13.7827 14 12.9244 14 11.8684V1.91426C14 0.858225 13.1262 0 12.051 0H1.94896C0.873782 0 0 0.858225 0 1.91426V14.4207C0 15.4768 0.873782 16 1.94896 16H11.4014H12.051C13.1262 16 14 15.3332 14 14.2772C13.4575 14.6792 12.7819 14.9153 12.051 14.9153H11.4014H1.59165C1.23434 14.9153 0.945244 14.7398 0.909513 14.3888C0.860789 13.8943 1.23434 13.7827 1.59165 13.7827ZM0.941995 1.72283C0.941995 1.37188 1.23434 1.08475 1.59165 1.08475H12.4246C12.7819 1.08475 13.0742 1.37188 13.0742 1.72283V12.1236C13.0742 12.4746 12.7819 12.7617 12.4246 12.7617H1.94896C1.72158 12.7617 1.14664 12.8 0.941995 12.8702V1.72283ZM6.33411 4.17946H7.81206V5.63111H6.33411V4.17946ZM6.33411 5.99163H7.81206V10.8156H6.33411V5.99163Z" fill="#707070" />
</svg>
