<svg width="16" height="19" viewBox="0 0 16 19" fill="none" xmlns="http://www.w3.org/2000/svg">
  <path fill-rule="evenodd" clip-rule="evenodd" d="M5.129 0C4.67629 0.00262447 4.24287 0.183634 3.92275 0.503754C3.60263 0.823874 3.42162 1.25728 3.419 1.70999C3.419 1.88 3.48653 2.04306 3.60674 2.16327C3.72696 2.28348 3.89 2.35101 4.06 2.35101C4.23 2.35101 4.39304 2.28348 4.51326 2.16327C4.63347 2.04306 4.701 1.88 4.701 1.70999C4.69905 1.65339 4.70876 1.597 4.72952 1.54431C4.75029 1.49162 4.78167 1.44376 4.82172 1.40372C4.86177 1.36367 4.90962 1.33229 4.96231 1.31152C5.015 1.29076 5.0714 1.28104 5.128 1.28299H13.676C13.7326 1.28104 13.789 1.29076 13.8417 1.31152C13.8944 1.33229 13.9422 1.36367 13.9823 1.40372C14.0223 1.44376 14.0537 1.49162 14.0745 1.54431C14.0952 1.597 14.105 1.65339 14.103 1.70999V13.677C14.105 13.7336 14.0952 13.79 14.0745 13.8427C14.0537 13.8954 14.0223 13.9432 13.9823 13.9833C13.9422 14.0233 13.8944 14.0547 13.8417 14.0755C13.789 14.0962 13.7326 14.106 13.676 14.104C13.5918 14.104 13.5085 14.1206 13.4307 14.1528C13.3529 14.185 13.2823 14.2322 13.2227 14.2917C13.1632 14.3513 13.116 14.4219 13.0838 14.4997C13.0516 14.5775 13.035 14.6608 13.035 14.745C13.035 14.8292 13.0516 14.9125 13.0838 14.9903C13.116 15.0681 13.1632 15.1388 13.2227 15.1983C13.2823 15.2578 13.3529 15.305 13.4307 15.3372C13.5085 15.3694 13.5918 15.386 13.676 15.386C14.1287 15.3834 14.5621 15.2024 14.8823 14.8823C15.2024 14.5621 15.3834 14.1287 15.386 13.676V1.70999C15.3834 1.25728 15.2024 0.823874 14.8823 0.503754C14.5621 0.183634 14.1287 0.00262447 13.676 0H5.129ZM1.71 3.41901C1.25729 3.42163 0.823868 3.60264 0.503747 3.92276C0.183627 4.24288 0.00262447 4.67629 0 5.129V17.096C0.00262447 17.5487 0.183627 17.9821 0.503747 18.3022C0.823868 18.6224 1.25729 18.8034 1.71 18.806H10.258C10.7107 18.8034 11.1441 18.6224 11.4643 18.3022C11.7844 17.9821 11.9654 17.5487 11.968 17.096V5.129C11.9654 4.67629 11.7844 4.24288 11.4643 3.92276C11.1441 3.60264 10.7107 3.42163 10.258 3.41901H1.71ZM1.71 4.70099H10.258C10.3146 4.69904 10.371 4.70876 10.4237 4.72952C10.4764 4.75029 10.5242 4.78167 10.5643 4.82172C10.6043 4.86176 10.6357 4.90962 10.6565 4.96231C10.6772 5.015 10.687 5.07139 10.685 5.12799V17.095C10.687 17.1516 10.6772 17.208 10.6565 17.2607C10.6357 17.3134 10.6043 17.3612 10.5643 17.4013C10.5242 17.4413 10.4764 17.4727 10.4237 17.4935C10.371 17.5142 10.3146 17.524 10.258 17.522H1.71C1.6534 17.524 1.597 17.5142 1.54431 17.4935C1.49162 17.4727 1.44377 17.4413 1.40372 17.4013C1.36367 17.3612 1.33229 17.3134 1.31152 17.2607C1.29076 17.208 1.28105 17.1516 1.283 17.095V5.129C1.28105 5.0724 1.29076 5.01601 1.31152 4.96332C1.33229 4.91063 1.36367 4.86277 1.40372 4.82272C1.44377 4.78268 1.49162 4.7513 1.54431 4.73053C1.597 4.70976 1.6534 4.70004 1.71 4.702V4.70099Z" fill="#F52871" />
</svg>
