<svg width="18" height="18" viewBox="0 0 18 18" fill="none" xmlns="http://www.w3.org/2000/svg">
  <path d="M17.5854 15.3156L16.5156 13.8892V6.47594C16.5156 5.69977 15.8842 5.06836 15.108 5.06836H12.3867C12.2312 5.06836 12.1052 5.19437 12.1052 5.34987C12.1052 5.50537 12.2312 5.63138 12.3867 5.63138H15.108C15.5737 5.63138 15.9526 6.01026 15.9526 6.47594V13.7015H1.40758C1.31899 13.7015 1.2355 13.7432 1.18237 13.8141L0.0563018 15.3156C0.0197435 15.3643 0 15.4235 0 15.4845V16.2352C0 17.0113 0.631414 17.6427 1.40758 17.6427H16.2341C17.0103 17.6427 17.6417 17.0113 17.6417 16.2352V15.4845C17.6417 15.4235 17.6219 15.3643 17.5854 15.3156ZM1.54833 14.2645H16.0934L16.7972 15.2029H0.844561L1.54833 14.2645ZM17.0787 16.2352C17.0787 16.7008 16.6998 17.0797 16.2341 17.0797H1.40758C0.941901 17.0797 0.563018 16.7008 0.563018 16.2352V15.766H8.53933V16.2352C8.53933 16.3907 8.66534 16.5167 8.82084 16.5167C8.97634 16.5167 9.10235 16.3907 9.10235 16.2352V15.766H17.0787V16.2352Z" fill="white" />
  <path d="M5.25489 5.06836H2.53356C1.75739 5.06836 1.12598 5.69977 1.12598 6.47594V12.857C1.12598 13.0125 1.25198 13.1385 1.40749 13.1385C1.56299 13.1385 1.68899 13.0125 1.68899 12.857V6.47594C1.68899 6.01026 2.06788 5.63138 2.53356 5.63138H5.25489C5.41039 5.63138 5.5364 5.50537 5.5364 5.34987C5.5364 5.19437 5.41039 5.06836 5.25489 5.06836Z" fill="white" />
  <path d="M13.0207 6.36713C12.9772 6.26194 12.8745 6.19333 12.7606 6.19333H11.5407V0.281509C11.5407 0.126007 11.4147 0 11.2592 0H6.37961C6.22411 0 6.0981 0.126007 6.0981 0.281509V6.19333H4.8782C4.76436 6.19333 4.66168 6.2619 4.61813 6.36713C4.57454 6.47233 4.59863 6.59341 4.67912 6.67393L8.62034 10.6152C8.67534 10.6701 8.74739 10.6976 8.81943 10.6976C8.89148 10.6976 8.96353 10.6701 9.01852 10.6152L12.9598 6.67393C13.0402 6.59341 13.0643 6.47236 13.0207 6.36713ZM8.8194 10.018L5.55779 6.75639H6.37961C6.53511 6.75639 6.66112 6.63038 6.66112 6.47488V0.563018H10.9777V6.47484C10.9777 6.63034 11.1037 6.75635 11.2592 6.75635H12.081L8.8194 10.018Z" fill="white" />
  <path d="M8.82057 3.65872C8.97604 3.65872 9.10208 3.53269 9.10208 3.37721C9.10208 3.22174 8.97604 3.0957 8.82057 3.0957C8.6651 3.0957 8.53906 3.22174 8.53906 3.37721C8.53906 3.53269 8.6651 3.65872 8.82057 3.65872Z" fill="white" />
  <path d="M7.50612 3.65872C7.66159 3.65872 7.78763 3.53269 7.78763 3.37721C7.78763 3.22174 7.66159 3.0957 7.50612 3.0957C7.35065 3.0957 7.22461 3.22174 7.22461 3.37721C7.22461 3.53269 7.35065 3.65872 7.50612 3.65872Z" fill="white" />
  <path d="M10.135 3.65872C10.2905 3.65872 10.4165 3.53269 10.4165 3.37721C10.4165 3.22174 10.2905 3.0957 10.135 3.0957C9.97955 3.0957 9.85352 3.22174 9.85352 3.37721C9.85352 3.53269 9.97955 3.65872 10.135 3.65872Z" fill="white" />
</svg>
