<svg width="71" height="91" viewBox="0 0 71 91" fill="none" xmlns="http://www.w3.org/2000/svg">
  <path d="M12.268 78.4481H10.9V86.8361L10.972 88.7441H10.954L9.676 86.3681L4.726 78.4481H2.944V90.3281H4.312V81.9401L4.24 80.0321H4.258L5.518 82.3721L10.486 90.3281H12.268V78.4481ZM19.5325 81.1481C16.8145 81.1481 15.1765 82.9121 15.1765 85.8281C15.1765 88.7441 16.8145 90.5081 19.5325 90.5081C22.2505 90.5081 23.8885 88.7441 23.8885 85.8281C23.8885 82.9121 22.2505 81.1481 19.5325 81.1481ZM19.5325 82.3901C21.3505 82.3901 22.4485 83.6861 22.4485 85.8281C22.4485 87.9701 21.3505 89.2661 19.5325 89.2661C17.7145 89.2661 16.6165 87.9701 16.6165 85.8281C16.6165 83.6861 17.7145 82.3901 19.5325 82.3901ZM39.3725 77.1881V82.7321C38.8145 81.7961 37.7345 81.1481 36.3845 81.1481C33.8825 81.1481 32.2805 82.8941 32.2805 85.8281C32.2805 88.7621 33.8825 90.5081 36.3845 90.5081C37.8065 90.5081 38.9405 89.7881 39.4625 88.7621L39.5525 90.3281H40.8125V77.1881H39.3725ZM36.5465 89.2481C34.7825 89.2481 33.7205 87.9161 33.7205 85.8281C33.7205 83.7401 34.7825 82.4081 36.5465 82.4081C38.2565 82.4081 39.3725 83.6861 39.3725 85.7201V85.9361C39.3725 87.9701 38.2565 89.2481 36.5465 89.2481ZM51.5384 89.2841C51.0344 89.2841 50.8544 89.0681 50.8544 88.6361V84.2081C50.8544 82.1201 49.3604 81.1481 47.3084 81.1481C45.5624 81.1481 44.1404 82.0121 43.6724 83.3441L44.7344 84.1181C45.2204 82.9841 46.1204 82.4081 47.3084 82.4081C48.6584 82.4081 49.4144 83.2001 49.4144 84.3881V84.8921L47.0204 85.2881C44.6984 85.6841 43.5104 86.7461 43.5104 88.0961C43.5104 89.7161 44.8784 90.5081 46.5704 90.5081C47.7224 90.5081 48.8924 90.0221 49.4684 89.1761C49.6304 90.1841 50.2064 90.5081 51.0884 90.5081C51.5384 90.5081 51.9164 90.4181 52.1684 90.3281L52.2584 89.1941C52.0424 89.2481 51.7724 89.2841 51.5384 89.2841ZM46.6424 89.2481C45.6164 89.2481 45.0044 88.8521 45.0044 88.0961C45.0044 87.2501 45.8144 86.7281 47.3984 86.4401L49.4144 86.0621V87.3041C49.4144 88.4921 48.0824 89.2481 46.6424 89.2481ZM59.0061 88.4921C58.5921 88.9061 58.1241 89.1581 57.4761 89.1581C56.6841 89.1581 56.1261 88.7261 56.1261 87.8441V82.5701H59.4561V81.3281H56.1261V78.7721L54.6861 79.1681V81.3281H52.8861V82.5701H54.6861V88.0961C54.7041 89.8421 55.8561 90.5081 57.1881 90.5081C58.1781 90.5081 58.9521 90.2021 59.5101 89.6981L59.0061 88.4921ZM68.9231 89.2841C68.4191 89.2841 68.2391 89.0681 68.2391 88.6361V84.2081C68.2391 82.1201 66.7451 81.1481 64.6931 81.1481C62.9471 81.1481 61.5251 82.0121 61.0571 83.3441L62.1191 84.1181C62.6051 82.9841 63.5051 82.4081 64.6931 82.4081C66.0431 82.4081 66.7991 83.2001 66.7991 84.3881V84.8921L64.4051 85.2881C62.0831 85.6841 60.8951 86.7461 60.8951 88.0961C60.8951 89.7161 62.2631 90.5081 63.9551 90.5081C65.1071 90.5081 66.2771 90.0221 66.8531 89.1761C67.0151 90.1841 67.5911 90.5081 68.4731 90.5081C68.9231 90.5081 69.3011 90.4181 69.5531 90.3281L69.6431 89.1941C69.4271 89.2481 69.1571 89.2841 68.9231 89.2841ZM64.0271 89.2481C63.0011 89.2481 62.3891 88.8521 62.3891 88.0961C62.3891 87.2501 63.1991 86.7281 64.7831 86.4401L66.7991 86.0621V87.3041C66.7991 88.4921 65.4671 89.2481 64.0271 89.2481Z" fill="#C4C4C4" />
  <path fill-rule="evenodd" clip-rule="evenodd" d="M65.6555 26.9048L70.9997 39.5281L65.6559 40.6556V50.7698H65.6555V57.389L35.9866 62.4359V62.4722L35.8877 62.4527L34.6962 62.6554V62.2182L6.50147 56.6673V52.5205V41.0084L0.788086 39.8056L6.50147 26.8371V26.6381V26.6294L6.52312 26.6337L35.9888 20.6279L65.6223 26.911L65.6555 26.9048ZM64.3656 40.9279V56.2999L35.9866 61.1274V45.6623L36.2264 35.0514L40.8697 45.8858L64.3656 40.9279ZM64.3656 39.6096L41.6385 44.4052L37.1528 33.9383L64.3656 28.4792V39.6096ZM65.6559 39.3373V30.2145L69.2014 38.5891L65.6559 39.3373ZM7.79144 55.6066V41.2799L30.5496 46.0711L34.6962 36.5073V60.9034L7.79144 55.6066ZM34.4506 33.8308L7.79144 28.2009V39.9617L29.7849 44.5919L34.4506 33.8308ZM6.50147 39.6901V30.0367L2.60953 38.8708L6.50147 39.6901ZM62.7967 27.4422L36.5242 21.8717L36.2857 32.4257L62.7967 27.4422ZM35.4182 21.8726L35.1831 32.2761L9.33928 27.1881L35.4182 21.8726Z" fill="#C4C4C4" />
  <path fill-rule="evenodd" clip-rule="evenodd" d="M37.4606 17.8753C42.0405 17.8753 45.7533 14.1626 45.7533 9.58265C45.7533 5.00273 42.0405 1.28997 37.4606 1.28997C32.8807 1.28997 29.1679 5.00273 29.1679 9.58265C29.1679 14.1626 32.8807 17.8753 37.4606 17.8753ZM37.4606 19.1653C42.7529 19.1653 47.0432 14.875 47.0432 9.58265C47.0432 4.2903 42.7529 0 37.4606 0C32.1682 0 27.8779 4.2903 27.8779 9.58265C27.8779 14.875 32.1682 19.1653 37.4606 19.1653Z" fill="#C4C4C4" />
  <path fill-rule="evenodd" clip-rule="evenodd" d="M36.54 3.87005V10.1356H38.5671V3.87005H36.54ZM35.6186 2.58008C35.415 2.58008 35.25 2.74509 35.25 2.94864V11.057C35.25 11.2606 35.415 11.4256 35.6186 11.4256H39.4885C39.692 11.4256 39.857 11.2606 39.857 11.057V2.94864C39.857 2.74509 39.692 2.58008 39.4885 2.58008H35.6186Z" fill="#C4C4C4" />
  <path fill-rule="evenodd" clip-rule="evenodd" d="M37.4614 15.4804C37.9703 15.4804 38.3828 15.0679 38.3828 14.559C38.3828 14.0502 37.9703 13.6376 37.4614 13.6376C36.9525 13.6376 36.54 14.0502 36.54 14.559C36.54 15.0679 36.9525 15.4804 37.4614 15.4804ZM37.4614 16.7704C38.6827 16.7704 39.6728 15.7804 39.6728 14.559C39.6728 13.3377 38.6827 12.3477 37.4614 12.3477C36.2401 12.3477 35.25 13.3377 35.25 14.559C35.25 15.7804 36.2401 16.7704 37.4614 16.7704Z" fill="#C4C4C4" />
</svg>
