<svg width="19" height="19" viewBox="0 0 19 19" fill="none" xmlns="http://www.w3.org/2000/svg">
  <path d="M16.5096 2.5524H13.2379V1.47851C13.2379 1.33074 13.1181 1.21094 12.9703 1.21094C12.8225 1.21094 12.7028 1.33074 12.7028 1.47851V2.5524H11.5944C11.4466 2.5524 11.3268 2.6722 11.3268 2.81997C11.3268 2.96774 11.4466 3.08754 11.5944 3.08754H12.7028V4.22055H12.5019C12.2215 4.22055 11.9934 4.4487 11.9934 4.72908V7.87908C11.9934 8.15949 12.2215 8.38761 12.5019 8.38761H12.7028V10.5104C12.7028 10.6582 12.8225 10.778 12.9703 10.778C13.1181 10.778 13.2379 10.6582 13.2379 10.5104V8.38761H13.4387C13.7191 8.38761 13.9472 8.15946 13.9472 7.87908V4.72908C13.9472 4.44866 13.7191 4.22055 13.4387 4.22055H13.2379V3.08754H16.5096C17.1525 3.08754 17.6756 3.61063 17.6756 4.25359V13.4115H0.535144V4.25362C0.535144 3.61066 1.05823 3.08758 1.70119 3.08758H6.39162V3.60977H6.1908C5.91038 3.60977 5.68227 3.83792 5.68227 4.1183V7.2683C5.68227 7.54872 5.91042 7.77683 6.1908 7.77683H6.39162V10.1412C6.39162 10.289 6.51142 10.4088 6.65919 10.4088C6.80696 10.4088 6.92676 10.289 6.92676 10.1412V7.77683H7.12758C7.408 7.77683 7.63611 7.54868 7.63611 7.2683V4.1183C7.63611 3.83789 7.40796 3.60977 7.12758 3.60977H6.92676V3.08754H8.03512C8.18289 3.08754 8.30269 2.96774 8.30269 2.81997C8.30269 2.6722 8.18289 2.5524 8.03512 2.5524H6.92676V2.42026C6.92676 2.27248 6.80696 2.15268 6.65919 2.15268C6.51142 2.15268 6.39162 2.27248 6.39162 2.42026V2.5524H1.70119C0.763151 2.5524 0 3.31555 0 4.25359V13.6791C0 14.6171 0.763151 15.3803 1.70119 15.3803H5.77431V16.7407L4.91191 17.7411H4.56959C4.42182 17.7411 4.30202 17.8609 4.30202 18.0087C4.30202 18.1564 4.42182 18.2762 4.56959 18.2762H13.6165C13.7643 18.2762 13.8841 18.1564 13.8841 18.0087C13.8841 17.8609 13.7643 17.7411 13.6165 17.7411H13.2988L12.4364 16.7407V15.3803H16.5096C17.4476 15.3803 18.2108 14.6171 18.2108 13.6791V4.25362C18.2108 3.31559 17.4476 2.5524 16.5096 2.5524ZM13.4121 7.85253H12.5285V4.75573H13.4121V7.85253H13.4121ZM7.10097 7.24169H6.21737V4.14492H7.10097V7.24169ZM16.5096 14.8451H11.0942C10.9464 14.8451 10.8267 14.9649 10.8267 15.1127C10.8267 15.2605 10.9464 15.3803 11.0942 15.3803H11.9013V16.5726H11.2348C11.087 16.5726 10.9672 16.6924 10.9672 16.8402C10.9672 16.9879 11.087 17.1077 11.2348 17.1077H12.0462L12.5923 17.7411H5.61848L6.1645 17.1077H6.97596C7.12373 17.1077 7.24353 16.9879 7.24353 16.8402C7.24353 16.6924 7.12373 16.5726 6.97596 16.5726H6.30946V15.3803H9.95393C10.1017 15.3803 10.2215 15.2605 10.2215 15.1127C10.2215 14.9649 10.1017 14.8451 9.95393 14.8451H1.70119C1.15031 14.8451 0.687767 14.461 0.566468 13.9466H17.6443C17.523 14.461 17.0605 14.8451 16.5096 14.8451Z" fill="#F52871" />
  <path d="M2.79492 7.81168C2.64714 7.81168 2.52734 7.93148 2.52734 8.07925V8.7252C2.52734 9.00562 2.75546 9.23373 3.03587 9.23373H3.23669V10.6587C3.23669 10.8064 3.3565 10.9262 3.50427 10.9262C3.65204 10.9262 3.77184 10.8064 3.77184 10.6587V9.23373H3.97266C4.25308 9.23373 4.48119 9.00562 4.48119 8.7252V5.5752C4.48119 5.29479 4.25304 5.06664 3.97266 5.06664H3.77184V4.63867C3.77184 4.49089 3.65204 4.37109 3.50427 4.37109C3.3565 4.37109 3.23669 4.49089 3.23669 4.63867V5.06664H3.03587C2.75546 5.06664 2.52734 5.29479 2.52734 5.5752V6.93896C2.52734 7.08673 2.64714 7.20654 2.79492 7.20654C2.94269 7.20654 3.06249 7.08673 3.06249 6.93896V5.60182H3.50395H3.5043C3.5043 5.60182 3.50452 5.60182 3.50466 5.60182H3.94612V8.69862H3.06249V8.07928C3.06249 7.93148 2.94269 7.81168 2.79492 7.81168Z" fill="#F52871" />
  <path d="M9.34642 7.24731H9.54728V8.67222C9.54728 8.81999 9.66704 8.93979 9.81485 8.93979C9.96265 8.93979 10.0824 8.81999 10.0824 8.67222V7.24731H10.2832C10.5636 7.24731 10.7918 7.01916 10.7918 6.73875V4.64002C10.7918 4.49225 10.672 4.37245 10.5242 4.37245C10.3764 4.37245 10.2566 4.49225 10.2566 4.64002V6.71217H9.37303V1.86722H10.2566V3.49973C10.2566 3.64751 10.3764 3.76731 10.5242 3.76731C10.672 3.76731 10.7918 3.64751 10.7918 3.49973V1.84061C10.7918 1.56023 10.5636 1.33208 10.2832 1.33208H10.0824V0.267572C10.0824 0.119801 9.96265 0 9.81485 0C9.66704 0 9.54728 0.119801 9.54728 0.267572V1.33208H9.34642C9.066 1.33208 8.83789 1.56023 8.83789 1.84061V6.73875C8.83789 7.0192 9.066 7.24731 9.34642 7.24731Z" fill="#F52871" />
  <path d="M14.5145 7.33579C14.5629 7.42548 14.6551 7.47642 14.7503 7.47642C14.7931 7.47642 14.8367 7.46608 14.877 7.44431L16.1095 6.77977L16.0209 7.01245C15.9683 7.15055 16.0376 7.30514 16.1757 7.35776C16.2071 7.36968 16.2392 7.37535 16.2709 7.37535C16.3787 7.37535 16.4803 7.30971 16.521 7.20296L16.8223 6.41216C16.8749 6.27406 16.8056 6.11947 16.6675 6.06685L15.8281 5.74708C15.69 5.6945 15.5354 5.76378 15.4828 5.90188C15.4302 6.03999 15.4995 6.19457 15.6376 6.2472L15.8322 6.32133L14.6231 6.97328C14.493 7.04342 14.4444 7.20571 14.5145 7.33579Z" fill="#F52871" />
  <path d="M1.58218 12.5637C1.62563 12.6653 1.72442 12.7261 1.82828 12.7261C1.86338 12.7261 1.89909 12.7191 1.93345 12.7044L5.38613 11.2268L5.6999 12.0489C5.72737 12.1208 5.78449 12.1774 5.85666 12.2043C5.9288 12.2311 6.00907 12.2255 6.07686 12.189L11.7809 9.11349C11.911 9.04335 11.9596 8.88106 11.8894 8.75098C11.8193 8.62094 11.6571 8.57231 11.5269 8.64245L6.09116 11.5733L5.78681 10.7758C5.76083 10.7078 5.70828 10.6532 5.64125 10.6248C5.57421 10.5964 5.49851 10.5966 5.43154 10.6252L1.72289 12.2124C1.58707 12.2706 1.52406 12.4279 1.58218 12.5637Z" fill="#F52871" />
</svg>
