<svg width="18" height="18" viewBox="0 0 18 18" fill="none" xmlns="http://www.w3.org/2000/svg">
  <path d="M17.5854 15.3156L16.5156 13.8892V6.47594C16.5156 5.69977 15.8842 5.06836 15.108 5.06836H12.3867C12.2312 5.06836 12.1052 5.19437 12.1052 5.34987C12.1052 5.50537 12.2312 5.63138 12.3867 5.63138H15.108C15.5737 5.63138 15.9526 6.01026 15.9526 6.47594V13.7015H1.40758C1.31899 13.7015 1.2355 13.7432 1.18237 13.8141L0.0563018 15.3156C0.0197435 15.3643 0 15.4235 0 15.4845V16.2352C0 17.0113 0.631414 17.6427 1.40758 17.6427H16.2341C17.0103 17.6427 17.6417 17.0113 17.6417 16.2352V15.4845C17.6417 15.4235 17.6219 15.3643 17.5854 15.3156ZM1.54833 14.2645H16.0934L16.7972 15.2029H0.844561L1.54833 14.2645ZM17.0787 16.2352C17.0787 16.7008 16.6998 17.0797 16.2341 17.0797H1.40758C0.941901 17.0797 0.563018 16.7008 0.563018 16.2352V15.766H8.53933V16.2352C8.53933 16.3907 8.66534 16.5167 8.82084 16.5167C8.97634 16.5167 9.10235 16.3907 9.10235 16.2352V15.766H17.0787V16.2352Z" fill="#F52871" />
  <path d="M5.25489 5.06836H2.53356C1.75739 5.06836 1.12598 5.69977 1.12598 6.47594V12.857C1.12598 13.0125 1.25198 13.1385 1.40749 13.1385C1.56299 13.1385 1.68899 13.0125 1.68899 12.857V6.47594C1.68899 6.01026 2.06788 5.63138 2.53356 5.63138H5.25489C5.41039 5.63138 5.5364 5.50537 5.5364 5.34987C5.5364 5.19437 5.41039 5.06836 5.25489 5.06836Z" fill="#F52871" />
  <path d="M4.61797 4.33013C4.66152 4.43533 4.7642 4.50393 4.87805 4.50393L6.09794 4.50393L6.09794 10.4158C6.09794 10.5713 6.22395 10.6973 6.37945 10.6973L11.2591 10.6973C11.4146 10.6973 11.5406 10.5713 11.5406 10.4158L11.5406 4.50393L12.7605 4.50393C12.8743 4.50393 12.977 4.43536 13.0205 4.33013C13.0641 4.22494 13.04 4.10386 12.9596 4.02333L9.01833 0.0821043C8.96334 0.027146 8.89129 -0.000315075 8.81924 -0.000315082C8.74719 -0.000315088 8.67514 0.027146 8.62015 0.0821043L4.67892 4.02333C4.59843 4.10386 4.57438 4.2249 4.61797 4.33013ZM8.81927 0.679269L12.0809 3.94088L11.2591 3.94088C11.1036 3.94088 10.9776 4.06689 10.9776 4.22239L10.9776 10.1342L6.66096 10.1342L6.66096 4.22242C6.66096 4.06692 6.53495 3.94091 6.37945 3.94091L5.55766 3.94091L8.81927 0.679269Z" fill="#F52871" />
  <path d="M8.82057 8.56302C8.97604 8.56302 9.10208 8.43698 9.10208 8.28151C9.10208 8.12604 8.97604 8 8.82057 8C8.6651 8 8.53906 8.12604 8.53906 8.28151C8.53906 8.43698 8.6651 8.56302 8.82057 8.56302Z" fill="#F52871" />
  <path d="M7.50612 8.56302C7.66159 8.56302 7.78763 8.43698 7.78763 8.28151C7.78763 8.12604 7.66159 8 7.50612 8C7.35065 8 7.22461 8.12604 7.22461 8.28151C7.22461 8.43698 7.35065 8.56302 7.50612 8.56302Z" fill="#F52871" />
  <path d="M10.135 8.56302C10.2905 8.56302 10.4165 8.43698 10.4165 8.28151C10.4165 8.12604 10.2905 8 10.135 8C9.97955 8 9.85352 8.12604 9.85352 8.28151C9.85352 8.43698 9.97955 8.56302 10.135 8.56302Z" fill="#F52871" />
</svg>
