<svg xmlns="http://www.w3.org/2000/svg" width="24" height="24" viewBox="0 0 24 24">
  <g id="Group_608" data-name="Group 608" transform="translate(2 3)">
    <rect id="Rectangle_283" data-name="Rectangle 283" width="24" height="24" transform="translate(-2 -3)" fill="none"/>
    <path id="Path_2677" data-name="Path 2677" d="M17.209,20.757,14.5,18.049a3.619,3.619,0,0,0-5,0L.4,27.146a1.376,1.376,0,0,0,1.946,1.945L11.443,20a.812.812,0,0,1,1.113,0l9.1,9.1A1.376,1.376,0,1,0,23.6,27.146L19.96,23.509Z" transform="translate(-2 -19.221)" fill="#fac668"/>
    <path id="Path_2678" data-name="Path 2678" d="M77.78,127.946a.675.675,0,0,0-.955,0l-8,8a.677.677,0,0,0-.2.478v5.833a2.479,2.479,0,0,0,2.478,2.478h3.961V138.6h4.471v6.134H83.5a2.479,2.479,0,0,0,2.478-2.478v-5.833a.674.674,0,0,0-.2-.478Z" transform="translate(-67.302 -124.559)" fill="#fac668"/>
  </g>
</svg>
