<svg xmlns="http://www.w3.org/2000/svg" width="24" height="24" viewBox="0 0 24 24">
  <g id="wheel" transform="translate(-81 13)">
    <rect id="Rectangle_289" data-name="Rectangle 289" width="24" height="24" transform="translate(81 -13)" fill="none"/>
    <g id="Group_931" data-name="Group 931" transform="translate(55 -13)">
      <g id="Group_906" data-name="Group 906" transform="translate(32.157 7.333)">
        <g id="Group_905" data-name="Group 905">
          <g id="Group_904" data-name="Group 904">
            <path id="Path_3218" data-name="Path 3218" d="M144.473,142.791a5.91,5.91,0,0,0-.47,1.643h4.488l-2.243-3.884A5.931,5.931,0,0,0,144.473,142.791Z" transform="translate(-144.003 -140.55)" fill="#fac668"/>
            <path id="Path_3219" data-name="Path 3219" d="M230.019,215h0Z" transform="translate(-225.531 -211.115)" fill="#fac668"/>
          </g>
        </g>
      </g>
      <g id="Group_908" data-name="Group 908" transform="translate(32.157 12.783)">
        <g id="Group_907" data-name="Group 907">
          <path id="Path_3220" data-name="Path 3220" d="M144,245a5.883,5.883,0,0,0,2.245,3.884L148.492,245Z" transform="translate(-144.004 -245)" fill="#fac668"/>
        </g>
      </g>
      <g id="Group_910" data-name="Group 910" transform="translate(35.756 13.565)">
        <g id="Group_909" data-name="Group 909">
          <path id="Path_3221" data-name="Path 3221" d="M215.238,260l-2.244,3.886a5.891,5.891,0,0,0,4.488,0Z" transform="translate(-212.994 -260)" fill="#fac668"/>
        </g>
      </g>
      <g id="Group_912" data-name="Group 912" transform="translate(39.356 12.783)">
        <g id="Group_911" data-name="Group 911">
          <path id="Path_3222" data-name="Path 3222" d="M281.98,245l2.243,3.884A5.883,5.883,0,0,0,286.468,245Z" transform="translate(-281.98 -245)" fill="#fac668"/>
        </g>
      </g>
      <g id="Group_914" data-name="Group 914" transform="translate(39.356 7.333)">
        <g id="Group_913" data-name="Group 913">
          <path id="Path_3223" data-name="Path 3223" d="M286,142.792a5.931,5.931,0,0,0-1.775-2.241l-2.243,3.884h4.488A5.909,5.909,0,0,0,286,142.792Z" transform="translate(-281.981 -140.551)" fill="#fac668"/>
        </g>
      </g>
      <g id="Group_916" data-name="Group 916" transform="translate(36.876 3.403)">
        <g id="Group_915" data-name="Group 915">
          <path id="Path_3224" data-name="Path 3224" d="M234.455,65.217l1.124,1.995,1.124-1.995Z" transform="translate(-234.455 -65.217)" fill="#fac668"/>
        </g>
      </g>
      <g id="Group_918" data-name="Group 918" transform="translate(26)">
        <g id="Group_917" data-name="Group 917" transform="translate(0)">
          <path id="Path_3225" data-name="Path 3225" d="M46.485,3.515A12,12,0,0,0,29.515,20.485,12,12,0,0,0,46.485,3.515Zm-2.73,1.623a.783.783,0,1,1,0,1.107A.783.783,0,0,1,43.755,5.138Zm-12.617,0a.783.783,0,1,1,0,1.107A.783.783,0,0,1,31.138,5.138Zm-2.06,7.645A.783.783,0,1,1,29.861,12,.783.783,0,0,1,29.078,12.783Zm3.166,6.079a.783.783,0,1,1,0-1.107A.783.783,0,0,1,32.245,18.862ZM38,21.7a.783.783,0,1,1,.783-.783A.783.783,0,0,1,38,21.7Zm6.862-2.842a.783.783,0,1,1,0-1.107A.783.783,0,0,1,44.862,18.862Zm.6-6.636c0,.018,0,.037,0,.055q0,.093-.009.184c0,.014,0,.028,0,.042A7.406,7.406,0,0,1,44.9,14.84l-.009.023c-.029.069-.059.139-.09.207l-.033.07c-.017.037-.034.073-.052.11s-.043.086-.064.129l-.016.031c-.056.108-.113.215-.174.321a7.471,7.471,0,0,1-2.731,2.731h-.005a7.449,7.449,0,0,1-7.451,0H34.27a7.471,7.471,0,0,1-2.731-2.731c-.061-.106-.118-.213-.174-.321l-.016-.031c-.022-.043-.043-.086-.064-.129l-.052-.11-.033-.07c-.031-.068-.061-.137-.09-.207L31.1,14.84a7.405,7.405,0,0,1-.544-2.333l0-.042q-.006-.092-.009-.184c0-.018,0-.037,0-.055,0-.075,0-.15,0-.226s0-.151,0-.226c0-.018,0-.037,0-.055q0-.093.009-.185c0-.014,0-.028,0-.041A7.405,7.405,0,0,1,31.1,9.16l.009-.021c.029-.07.059-.139.09-.208l.032-.068c.017-.037.035-.075.053-.112s.042-.086.064-.128l.016-.032c.055-.108.113-.215.174-.321A7.471,7.471,0,0,1,34.27,5.539h0a7.423,7.423,0,0,1,1.618-.7L34.2,1.837H41.8L40.109,4.843a7.421,7.421,0,0,1,1.617.694h.005a7.471,7.471,0,0,1,2.731,2.731c.061.106.118.213.174.321l.016.031c.022.043.043.086.064.129l.052.11.033.07c.031.068.061.137.09.207l.009.023a7.406,7.406,0,0,1,.544,2.333l0,.042q.006.092.009.184c0,.018,0,.037,0,.055,0,.075,0,.15,0,.226S45.459,12.151,45.457,12.226Zm1.465.557A.783.783,0,1,1,47.7,12,.783.783,0,0,1,46.922,12.783Z" transform="translate(-26)" fill="#fac668"/>
        </g>
      </g>
      <g id="Group_922" data-name="Group 922" transform="translate(35.756 6.253)">
        <g id="Group_921" data-name="Group 921">
          <path id="Path_3227" data-name="Path 3227" d="M216.552,119.84l-1.315,2.333-1.315-2.333a5.851,5.851,0,0,0-.929.3l2.244,3.886,2.244-3.886A5.851,5.851,0,0,0,216.552,119.84Z" transform="translate(-212.994 -119.84)" fill="#fac668"/>
        </g>
      </g>
    </g>
  </g>
</svg>
