<svg xmlns="http://www.w3.org/2000/svg" width="24" height="24" viewBox="0 0 24 24">
  <g id="save-money-2" transform="translate(-5 4)">
    <rect id="Rectangle_286" data-name="Rectangle 286" width="24" height="24" transform="translate(5 -4)" fill="none"/>
    <g id="Group_928" data-name="Group 928" transform="translate(5 1)">
      <path id="Path_2687" data-name="Path 2687" d="M151.156,10.312A5.156,5.156,0,1,0,146,5.156,5.162,5.162,0,0,0,151.156,10.312Zm0,0" transform="translate(-139.156)" fill="#fac668"/>
      <path id="Path_2688" data-name="Path 2688" d="M90,186.875h4.043a6.615,6.615,0,0,1-1.8-1.875H90Zm0,0" transform="translate(-85.781 -176.328)" fill="#fac668"/>
      <path id="Path_2689" data-name="Path 2689" d="M335.746,186.875h4.043V185h-2.242A6.616,6.616,0,0,1,335.746,186.875Zm0,0" transform="translate(-320.008 -176.328)" fill="#fac668"/>
      <path id="Path_2690" data-name="Path 2690" d="M18.525,95a6.558,6.558,0,0,1-.31,2.812h2.973V102.5H2.813V97.812H5.785A6.559,6.559,0,0,1,5.475,95H0v10.312H24V95Zm0,0" transform="translate(0 -90.547)" fill="#fac668"/>
    </g>
  </g>
</svg>
